<svg width="20" height="20" viewBox="0 0 20 20" fill="none" xmlns="http://www.w3.org/2000/svg">
<path d="M18.3337 18.9583H1.66699C1.32533 18.9583 1.04199 18.675 1.04199 18.3333C1.04199 17.9917 1.32533 17.7083 1.66699 17.7083H18.3337C18.6753 17.7083 18.9587 17.9917 18.9587 18.3333C18.9587 18.675 18.6753 18.9583 18.3337 18.9583Z" fill="#505050"/>
<path d="M3.08398 18.3333H1.83398L1.87565 8.30829C1.87565 7.59995 2.20065 6.94164 2.75898 6.50831L8.59232 1.96663C9.41732 1.32497 10.5757 1.32497 11.409 1.96663L17.2423 6.49997C17.7923 6.9333 18.1257 7.60829 18.1257 8.30829V18.3333H16.8757V8.31663C16.8757 7.99996 16.7257 7.69164 16.4757 7.49164L10.6423 2.9583C10.2673 2.66663 9.74232 2.66663 9.35899 2.9583L3.52566 7.49998C3.27566 7.69164 3.12565 7.99996 3.12565 8.31663L3.08398 18.3333Z" fill="#505050"/>
<path d="M14.1663 18.9583H5.83301C5.49134 18.9583 5.20801 18.675 5.20801 18.3333V10.4167C5.20801 9.38332 6.04967 8.54166 7.08301 8.54166H12.9163C13.9497 8.54166 14.7913 9.38332 14.7913 10.4167V18.3333C14.7913 18.675 14.508 18.9583 14.1663 18.9583ZM6.45801 17.7083H13.5413V10.4167C13.5413 10.075 13.258 9.79166 12.9163 9.79166H7.08301C6.74134 9.79166 6.45801 10.075 6.45801 10.4167V17.7083Z" fill="#505050"/>
<path d="M8.33301 15.4167C7.99134 15.4167 7.70801 15.1333 7.70801 14.7917V13.5417C7.70801 13.2 7.99134 12.9167 8.33301 12.9167C8.67467 12.9167 8.95801 13.2 8.95801 13.5417V14.7917C8.95801 15.1333 8.67467 15.4167 8.33301 15.4167Z" fill="#505050"/>
<path d="M11.25 6.875H8.75C8.40833 6.875 8.125 6.59167 8.125 6.25C8.125 5.90833 8.40833 5.625 8.75 5.625H11.25C11.5917 5.625 11.875 5.90833 11.875 6.25C11.875 6.59167 11.5917 6.875 11.25 6.875Z" fill="#505050"/>
</svg>
