<svg width="104" height="16" viewBox="0 0 104 16" fill="none" xmlns="http://www.w3.org/2000/svg">
<path d="M8.07162 11.6755H7.12211C7.03523 12.944 6.48911 13.9329 5.48374 14.6421C4.48459 15.3571 3.11617 15.7146 1.37851 15.7146H0.31729V13.5004H1.32265C3.44509 13.5004 4.59629 12.8921 4.77627 11.6755H3.6685C2.50178 11.6755 1.60813 11.3958 0.987533 10.8365C0.366938 10.2714 0.0566406 9.4584 0.0566406 8.39745C0.0566406 7.8785 0.131112 7.39992 0.280055 6.9617C0.435204 6.51771 0.658618 6.1285 0.950297 5.79407C1.24818 5.45387 1.62675 5.18863 2.08599 4.99835C2.55143 4.80807 3.07583 4.71293 3.65919 4.71293C4.74524 4.71293 5.59545 5.0416 6.20984 5.69893C6.82423 6.35626 7.13142 7.22982 7.13142 8.3196V9.42669H8.07162C8.13989 9.42669 8.19574 9.54778 8.23918 9.78995C8.28263 10.0321 8.30435 10.2657 8.30435 10.4905V10.5857C8.30435 10.8221 8.28263 11.0642 8.23918 11.3122C8.20195 11.5544 8.1461 11.6755 8.07162 11.6755ZM2.35594 8.36285C2.35594 8.74341 2.45214 9.0173 2.64452 9.18451C2.84311 9.34596 3.18134 9.42669 3.65919 9.42669H4.8135V8.31096C4.8135 7.36532 4.41632 6.8925 3.62196 6.8925C2.77795 6.8925 2.35594 7.38262 2.35594 8.36285Z" fill="#CB1B1B"/>
<path d="M10.3989 9.42669C10.4733 9.42669 10.5292 9.54778 10.5664 9.78995C10.6099 10.0321 10.6316 10.2657 10.6316 10.4905V10.5857C10.6316 10.8221 10.6099 11.0642 10.5664 11.3122C10.5292 11.5544 10.4733 11.6755 10.3989 11.6755H7.97853C7.90406 11.6755 7.84821 11.5544 7.81097 11.3122C7.76753 11.0642 7.74581 10.8221 7.74581 10.5857V10.4905C7.74581 10.2657 7.76753 10.0321 7.81097 9.78995C7.84821 9.54778 7.90406 9.42669 7.97853 9.42669H10.3989Z" fill="#CB1B1B"/>
<path d="M12.7261 9.42669C12.8006 9.42669 12.8564 9.54778 12.8936 9.78995C12.9371 10.0321 12.9588 10.2657 12.9588 10.4905V10.5857C12.9588 10.8221 12.9371 11.0642 12.8936 11.3122C12.8564 11.5544 12.8006 11.6755 12.7261 11.6755H10.3058C10.2313 11.6755 10.1754 11.5544 10.1382 11.3122C10.0948 11.0642 10.073 10.8221 10.073 10.5857V10.4905C10.073 10.2657 10.0948 10.0321 10.1382 9.78995C10.1754 9.54778 10.2313 9.42669 10.3058 9.42669H12.7261Z" fill="#CB1B1B"/>
<path d="M15.0533 9.42669C15.1278 9.42669 15.1836 9.54778 15.2209 9.78995C15.2643 10.0321 15.286 10.2657 15.286 10.4905V10.5857C15.286 10.8221 15.2643 11.0642 15.2209 11.3122C15.1836 11.5544 15.1278 11.6755 15.0533 11.6755H12.633C12.5585 11.6755 12.5027 11.5544 12.4654 11.3122C12.422 11.0642 12.4003 10.8221 12.4003 10.5857V10.4905C12.4003 10.2657 12.422 10.0321 12.4654 9.78995C12.5027 9.54778 12.5585 9.42669 12.633 9.42669H15.0533Z" fill="#CB1B1B"/>
<path d="M17.3805 9.42669C17.455 9.42669 17.5109 9.54778 17.5481 9.78995C17.5916 10.0321 17.6133 10.2657 17.6133 10.4905V10.5857C17.6133 10.8221 17.5916 11.0642 17.5481 11.3122C17.5109 11.5544 17.455 11.6755 17.3805 11.6755H14.9602C14.8858 11.6755 14.8299 11.5544 14.7927 11.3122C14.7492 11.0642 14.7275 10.8221 14.7275 10.5857V10.4905C14.7275 10.2657 14.7492 10.0321 14.7927 9.78995C14.8299 9.54778 14.8858 9.42669 14.9602 9.42669H17.3805Z" fill="#CB1B1B"/>
<path d="M19.7078 9.42669C19.7822 9.42669 19.8381 9.54778 19.8753 9.78995C19.9188 10.0321 19.9405 10.2657 19.9405 10.4905V10.5857C19.9405 10.8221 19.9188 11.0642 19.8753 11.3122C19.8381 11.5544 19.7822 11.6755 19.7078 11.6755H17.2875C17.213 11.6755 17.1571 11.5544 17.1199 11.3122C17.0765 11.0642 17.0547 10.8221 17.0547 10.5857V10.4905C17.0547 10.2657 17.0765 10.0321 17.1199 9.78995C17.1571 9.54778 17.213 9.42669 17.2875 9.42669H19.7078Z" fill="#CB1B1B"/>
<path d="M22.035 9.42669C22.1095 9.42669 22.1653 9.54778 22.2026 9.78995C22.246 10.0321 22.2677 10.2657 22.2677 10.4905V10.5857C22.2677 10.8221 22.246 11.0642 22.2026 11.3122C22.1653 11.5544 22.1095 11.6755 22.035 11.6755H19.6147C19.5402 11.6755 19.4844 11.5544 19.4471 11.3122C19.4037 11.0642 19.382 10.8221 19.382 10.5857V10.4905C19.382 10.2657 19.4037 10.0321 19.4471 9.78995C19.4844 9.54778 19.5402 9.42669 19.6147 9.42669H22.035Z" fill="#CB1B1B"/>
<path d="M24.3622 9.42669C24.4367 9.42669 24.4926 9.54778 24.5298 9.78995C24.5732 10.0321 24.595 10.2657 24.595 10.4905V10.5857C24.595 10.8221 24.5732 11.0642 24.5298 11.3122C24.4926 11.5544 24.4367 11.6755 24.3622 11.6755H21.9419C21.8674 11.6755 21.8116 11.5544 21.7744 11.3122C21.7309 11.0642 21.7092 10.8221 21.7092 10.5857V10.4905C21.7092 10.2657 21.7309 10.0321 21.7744 9.78995C21.8116 9.54778 21.8674 9.42669 21.9419 9.42669H24.3622Z" fill="#CB1B1B"/>
<path d="M26.6895 9.42669C26.7639 9.42669 26.8198 9.54778 26.857 9.78995C26.9005 10.0321 26.9222 10.2657 26.9222 10.4905V10.5857C26.9222 10.8221 26.9005 11.0642 26.857 11.3122C26.8198 11.5544 26.7639 11.6755 26.6895 11.6755H24.2692C24.1947 11.6755 24.1388 11.5544 24.1016 11.3122C24.0581 11.0642 24.0364 10.8221 24.0364 10.5857V10.4905C24.0364 10.2657 24.0581 10.0321 24.1016 9.78995C24.1388 9.54778 24.1947 9.42669 24.2692 9.42669H26.6895Z" fill="#CB1B1B"/>
<path d="M29.0167 9.42669C29.0912 9.42669 29.147 9.54778 29.1843 9.78995C29.2277 10.0321 29.2494 10.2657 29.2494 10.4905V10.5857C29.2494 10.8221 29.2277 11.0642 29.1843 11.3122C29.147 11.5544 29.0912 11.6755 29.0167 11.6755H26.5964C26.5219 11.6755 26.4661 11.5544 26.4288 11.3122C26.3854 11.0642 26.3637 10.8221 26.3637 10.5857V10.4905C26.3637 10.2657 26.3854 10.0321 26.4288 9.78995C26.4661 9.54778 26.5219 9.42669 26.5964 9.42669H29.0167Z" fill="#CB1B1B"/>
<path d="M31.3439 9.42669C31.4184 9.42669 31.4743 9.54778 31.5115 9.78995C31.5549 10.0321 31.5767 10.2657 31.5767 10.4905V10.5857C31.5767 10.8221 31.5549 11.0642 31.5115 11.3122C31.4743 11.5544 31.4184 11.6755 31.3439 11.6755H28.9236C28.8491 11.6755 28.7933 11.5544 28.7561 11.3122C28.7126 11.0642 28.6909 10.8221 28.6909 10.5857V10.4905C28.6909 10.2657 28.7126 10.0321 28.7561 9.78995C28.7933 9.54778 28.8491 9.42669 28.9236 9.42669H31.3439Z" fill="#CB1B1B"/>
<path d="M33.6712 9.42669C33.7456 9.42669 33.8015 9.54778 33.8387 9.78995C33.8822 10.0321 33.9039 10.2657 33.9039 10.4905V10.5857C33.9039 10.8221 33.8822 11.0642 33.8387 11.3122C33.8015 11.5544 33.7456 11.6755 33.6712 11.6755H31.2508C31.1764 11.6755 31.1205 11.5544 31.0833 11.3122C31.0398 11.0642 31.0181 10.8221 31.0181 10.5857V10.4905C31.0181 10.2657 31.0398 10.0321 31.0833 9.78995C31.1205 9.54778 31.1764 9.42669 31.2508 9.42669H33.6712Z" fill="#CB1B1B"/>
<path d="M35.9984 9.42669C36.0729 9.42669 36.1287 9.54778 36.166 9.78995C36.2094 10.0321 36.2311 10.2657 36.2311 10.4905V10.5857C36.2311 10.8221 36.2094 11.0642 36.166 11.3122C36.1287 11.5544 36.0729 11.6755 35.9984 11.6755H33.5781C33.5036 11.6755 33.4478 11.5544 33.4105 11.3122C33.3671 11.0642 33.3454 10.8221 33.3454 10.5857V10.4905C33.3454 10.2657 33.3671 10.0321 33.4105 9.78995C33.4478 9.54778 33.5036 9.42669 33.5781 9.42669H35.9984Z" fill="#CB1B1B"/>
<path d="M38.3256 9.42669C38.4001 9.42669 38.456 9.54778 38.4932 9.78995C38.5366 10.0321 38.5583 10.2657 38.5583 10.4905V10.5857C38.5583 10.8221 38.5366 11.0642 38.4932 11.3122C38.456 11.5544 38.4001 11.6755 38.3256 11.6755H35.9053C35.8308 11.6755 35.775 11.5544 35.7377 11.3122C35.6943 11.0642 35.6726 10.8221 35.6726 10.5857V10.4905C35.6726 10.2657 35.6943 10.0321 35.7377 9.78995C35.775 9.54778 35.8308 9.42669 35.9053 9.42669H38.3256Z" fill="#CB1B1B"/>
<path d="M40.6529 9.42669C40.7273 9.42669 40.7832 9.54778 40.8204 9.78995C40.8639 10.0321 40.8856 10.2657 40.8856 10.4905V10.5857C40.8856 10.8221 40.8639 11.0642 40.8204 11.3122C40.7832 11.5544 40.7273 11.6755 40.6529 11.6755H38.2325C38.1581 11.6755 38.1022 11.5544 38.065 11.3122C38.0215 11.0642 37.9998 10.8221 37.9998 10.5857V10.4905C37.9998 10.2657 38.0215 10.0321 38.065 9.78995C38.1022 9.54778 38.1581 9.42669 38.2325 9.42669H40.6529Z" fill="#CB1B1B"/>
<path d="M42.9801 9.42669C43.0546 9.42669 43.1104 9.54778 43.1476 9.78995C43.1911 10.0321 43.2128 10.2657 43.2128 10.4905V10.5857C43.2128 10.8221 43.1911 11.0642 43.1476 11.3122C43.1104 11.5544 43.0546 11.6755 42.9801 11.6755H40.5598C40.4853 11.6755 40.4294 11.5544 40.3922 11.3122C40.3488 11.0642 40.327 10.8221 40.327 10.5857V10.4905C40.327 10.2657 40.3488 10.0321 40.3922 9.78995C40.4294 9.54778 40.4853 9.42669 40.5598 9.42669H42.9801Z" fill="#CB1B1B"/>
<path d="M45.3073 9.42669C45.3818 9.42669 45.4376 9.54778 45.4749 9.78995C45.5183 10.0321 45.54 10.2657 45.54 10.4905V10.5857C45.54 10.8221 45.5183 11.0642 45.4749 11.3122C45.4376 11.5544 45.3818 11.6755 45.3073 11.6755H42.887C42.8125 11.6755 42.7567 11.5544 42.7194 11.3122C42.676 11.0642 42.6543 10.8221 42.6543 10.5857V10.4905C42.6543 10.2657 42.676 10.0321 42.7194 9.78995C42.7567 9.54778 42.8125 9.42669 42.887 9.42669H45.3073Z" fill="#CB1B1B"/>
<path d="M47.6346 9.42669C47.709 9.42669 47.7649 9.54778 47.8021 9.78995C47.8456 10.0321 47.8673 10.2657 47.8673 10.4905V10.5857C47.8673 10.8221 47.8456 11.0642 47.8021 11.3122C47.7649 11.5544 47.709 11.6755 47.6346 11.6755H45.2142C45.1398 11.6755 45.0839 11.5544 45.0467 11.3122C45.0032 11.0642 44.9815 10.8221 44.9815 10.5857V10.4905C44.9815 10.2657 45.0032 10.0321 45.0467 9.78995C45.0839 9.54778 45.1398 9.42669 45.2142 9.42669H47.6346Z" fill="#CB1B1B"/>
<path d="M49.9618 9.42669C50.0363 9.42669 50.0921 9.54778 50.1293 9.78995C50.1728 10.0321 50.1945 10.2657 50.1945 10.4905V10.5857C50.1945 10.8221 50.1728 11.0642 50.1293 11.3122C50.0921 11.5544 50.0363 11.6755 49.9618 11.6755H47.5415C47.467 11.6755 47.4111 11.5544 47.3739 11.3122C47.3305 11.0642 47.3087 10.8221 47.3087 10.5857V10.4905C47.3087 10.2657 47.3305 10.0321 47.3739 9.78995C47.4111 9.54778 47.467 9.42669 47.5415 9.42669H49.9618Z" fill="#CB1B1B"/>
<path d="M52.289 9.42669C52.3635 9.42669 52.4193 9.54778 52.4566 9.78995C52.5 10.0321 52.5217 10.2657 52.5217 10.4905V10.5857C52.5217 10.8221 52.5 11.0642 52.4566 11.3122C52.4193 11.5544 52.3635 11.6755 52.289 11.6755H49.8687C49.7942 11.6755 49.7384 11.5544 49.7011 11.3122C49.6577 11.0642 49.636 10.8221 49.636 10.5857V10.4905C49.636 10.2657 49.6577 10.0321 49.7011 9.78995C49.7384 9.54778 49.7942 9.42669 49.8687 9.42669H52.289Z" fill="#CB1B1B"/>
<path d="M54.6162 9.42669C54.6907 9.42669 54.7466 9.54778 54.7838 9.78995C54.8272 10.0321 54.849 10.2657 54.849 10.4905V10.5857C54.849 10.8221 54.8272 11.0642 54.7838 11.3122C54.7466 11.5544 54.6907 11.6755 54.6162 11.6755H52.1959C52.1215 11.6755 52.0656 11.5544 52.0284 11.3122C51.9849 11.0642 51.9632 10.8221 51.9632 10.5857V10.4905C51.9632 10.2657 51.9849 10.0321 52.0284 9.78995C52.0656 9.54778 52.1215 9.42669 52.1959 9.42669H54.6162Z" fill="#CB1B1B"/>
<path d="M62.1192 11.6755H61.9331C60.7415 11.6755 59.8417 11.3497 59.2335 10.6981C58.526 11.3497 57.4865 11.6755 56.115 11.6755H54.5232C54.4487 11.6755 54.3928 11.5544 54.3556 11.3122C54.3122 11.0642 54.2904 10.8221 54.2904 10.5857V10.4905C54.2904 10.2657 54.3122 10.0321 54.3556 9.78995C54.399 9.54778 54.4549 9.42669 54.5232 9.42669H56.1615C56.869 9.42669 57.3562 9.3229 57.623 9.11532C57.8961 8.90774 58.0326 8.56466 58.0326 8.08608V5.50865H60.3692V8.08608C60.3692 8.58773 60.4747 8.93657 60.6857 9.13262C60.9029 9.32867 61.3156 9.42669 61.9237 9.42669H62.1192C62.1875 9.42669 62.2434 9.54778 62.2868 9.78995C62.3302 10.0321 62.352 10.2657 62.352 10.4905V10.5857C62.352 10.8221 62.3302 11.0642 62.2868 11.3122C62.2496 11.5544 62.1937 11.6755 62.1192 11.6755ZM57.1017 2.45552L58.7029 0.967875L60.304 2.45552L58.7029 3.94316L57.1017 2.45552Z" fill="#CB1B1B"/>
<path d="M64.7164 14.5383L66.2803 13.0766L67.8535 14.5383C67.8163 14.5729 67.7791 14.6104 67.7418 14.6507C67.6611 14.7257 67.4439 14.9246 67.0902 15.2475C66.7365 15.5762 66.4665 15.827 66.2803 16L64.7164 14.5383ZM61.3466 14.5383L62.9198 13.0766L64.4837 14.5383L62.9198 16L61.3466 14.5383ZM70.3111 11.6755H70.1156C68.9116 11.6755 68.0118 11.3526 67.416 10.7068C66.7209 11.3526 65.6814 11.6755 64.2975 11.6755H62.0541C61.9796 11.6755 61.9237 11.5544 61.8865 11.3122C61.8431 11.0642 61.8214 10.8221 61.8214 10.5857V10.4905C61.8214 10.2657 61.8431 10.0321 61.8865 9.78995C61.93 9.54778 61.9858 9.42669 62.0541 9.42669H64.3441C65.0515 9.42669 65.5387 9.3229 65.8056 9.11532C66.0786 8.90774 66.2152 8.56466 66.2152 8.08608V5.50865H68.5517V8.08608C68.5517 8.58773 68.6572 8.93657 68.8682 9.13262C69.0854 9.32867 69.4981 9.42669 70.1063 9.42669H70.3111C70.3794 9.42669 70.4352 9.54778 70.4787 9.78995C70.5221 10.0321 70.5438 10.2657 70.5438 10.4905V10.5857C70.5438 10.8221 70.5221 11.0642 70.4787 11.3122C70.4414 11.5544 70.3856 11.6755 70.3111 11.6755Z" fill="#CB1B1B"/>
<path d="M73.5971 1.73764L75.1983 0.25L76.7994 1.73764L75.1983 3.22529L73.5971 1.73764ZM79.8248 11.6755H78.5588C78.0065 11.6755 77.4386 11.6236 76.8553 11.5198C76.2719 11.4102 75.7351 11.243 75.2448 11.0181C74.2829 11.4563 73.1751 11.6755 71.9215 11.6755H70.218C70.1435 11.6755 70.0877 11.5544 70.0504 11.3122C70.007 11.0642 69.9853 10.8221 69.9853 10.5857V10.4905C69.9853 10.2657 70.007 10.0321 70.0504 9.78995C70.0939 9.54778 70.1497 9.42669 70.218 9.42669H72.1915C71.8067 8.88468 71.6143 8.27636 71.6143 7.60173C71.6143 6.64456 71.9681 5.83731 72.6756 5.17998C73.383 4.51689 74.2488 4.18534 75.2727 4.18534C76.2905 4.18534 77.1531 4.514 77.8606 5.17133C78.5681 5.8229 78.9218 6.63015 78.9218 7.59308C78.9218 8.27348 78.7326 8.88468 78.354 9.42669H79.8248C79.8931 9.42669 79.9489 9.54778 79.9924 9.78995C80.0358 10.0321 80.0575 10.2657 80.0575 10.4905V10.5857C80.0575 10.8221 80.0358 11.0642 79.9924 11.3122C79.9551 11.5544 79.8993 11.6755 79.8248 11.6755ZM76.6132 7.61038C76.6132 7.27018 76.486 6.98188 76.2316 6.74547C75.9771 6.50906 75.6544 6.39086 75.2634 6.39086C74.86 6.39086 74.5311 6.50618 74.2767 6.73682C74.0285 6.9617 73.9043 7.25288 73.9043 7.61038C73.9043 7.93904 74.0378 8.22446 74.3046 8.46664C74.5777 8.70881 74.8973 8.8299 75.2634 8.8299C75.6296 8.8299 75.9461 8.7117 76.2129 8.47529C76.4798 8.23311 76.6132 7.94481 76.6132 7.61038Z" fill="#CB1B1B"/>
<path d="M89.3385 11.6755H88.0725C87.5202 11.6755 86.9523 11.6236 86.369 11.5198C85.7856 11.4102 85.2488 11.243 84.7585 11.0181C83.7966 11.4563 82.6889 11.6755 81.4352 11.6755H79.7317C79.6572 11.6755 79.6014 11.5544 79.5642 11.3122C79.5207 11.0642 79.499 10.8221 79.499 10.5857V10.4905C79.499 10.2657 79.5207 10.0321 79.5642 9.78995C79.6076 9.54778 79.6635 9.42669 79.7317 9.42669H81.7052C81.3204 8.88468 81.1281 8.27636 81.1281 7.60173C81.1281 6.64456 81.4818 5.83731 82.1893 5.17998C82.8968 4.51689 83.7625 4.18534 84.7865 4.18534C85.8042 4.18534 86.6669 4.514 87.3743 5.17133C88.0818 5.8229 88.4356 6.63015 88.4356 7.59308C88.4356 8.27348 88.2463 8.88468 87.8677 9.42669H89.3385C89.4068 9.42669 89.4626 9.54778 89.5061 9.78995C89.5495 10.0321 89.5713 10.2657 89.5713 10.4905V10.5857C89.5713 10.8221 89.5495 11.0642 89.5061 11.3122C89.4689 11.5544 89.413 11.6755 89.3385 11.6755ZM86.127 7.61038C86.127 7.27018 85.9997 6.98188 85.7453 6.74547C85.4908 6.50906 85.1681 6.39086 84.7772 6.39086C84.3738 6.39086 84.0449 6.50618 83.7904 6.73682C83.5422 6.9617 83.4181 7.25288 83.4181 7.61038C83.4181 7.93904 83.5515 8.22446 83.8183 8.46664C84.0914 8.70881 84.411 8.8299 84.7772 8.8299C85.1433 8.8299 85.4598 8.7117 85.7267 8.47529C85.9935 8.23311 86.127 7.94481 86.127 7.61038ZM84.7585 1.72899L86.3224 0.267298L87.8956 1.72899C87.8584 1.76359 87.8212 1.80107 87.7839 1.84143C87.7033 1.91639 87.4861 2.1182 87.1323 2.44687C86.7786 2.76977 86.5086 3.01771 86.3224 3.19069L84.7585 1.72899ZM81.3887 1.72899L82.9619 0.267298L84.5258 1.72899L82.9619 3.19069L81.3887 1.72899Z" fill="#CB1B1B"/>
<path d="M89.2454 9.42669H90.1298C90.7814 9.42669 91.25 9.32002 91.5354 9.10667C91.8209 8.88756 91.9636 8.55025 91.9636 8.09473V5.5H94.3002V5.84596L94.3095 8.11203C94.3157 8.58484 94.4212 8.92216 94.626 9.12397C94.837 9.32578 95.1876 9.42669 95.6779 9.42669C96.1309 9.42669 96.4599 9.32578 96.6646 9.12397C96.8757 8.91639 96.9812 8.57619 96.9812 8.10338L96.9905 5.84596V5.5H99.3177V5.84596L99.327 8.08608C99.3332 8.57043 99.4387 8.91351 99.6435 9.11532C99.8483 9.31713 100.18 9.41804 100.64 9.41804C100.987 9.41804 101.238 9.3229 101.394 9.13262C101.549 8.94234 101.626 8.60502 101.626 8.12068V5.22323H104V8.18987C104 9.26812 103.708 10.1186 103.125 10.7414C102.542 11.3641 101.732 11.6755 100.695 11.6755C99.6218 11.6755 98.7933 11.3526 98.2099 10.7068C97.6204 11.3526 96.7639 11.6755 95.6407 11.6755C94.6043 11.6755 93.7789 11.3439 93.1645 10.6808C92.5005 11.3439 91.4858 11.6755 90.1205 11.6755H89.2454C89.171 11.6755 89.1151 11.5544 89.0779 11.3122C89.0344 11.0642 89.0127 10.8221 89.0127 10.5857V10.4905C89.0127 10.2657 89.0344 10.0321 89.0779 9.78995C89.1213 9.54778 89.1772 9.42669 89.2454 9.42669Z" fill="#CB1B1B"/>
</svg>
