<svg width="20" height="20" viewBox="0 0 20 20" fill="none" xmlns="http://www.w3.org/2000/svg">
<path d="M5.14963 18.9583C5.06629 18.9583 4.97463 18.95 4.89963 18.9417L3.09129 18.6917C2.22463 18.575 1.44129 17.8 1.30796 16.9167L1.05796 15.0917C0.974626 14.5083 1.22463 13.75 1.64129 13.325L5.29963 9.66667C4.70796 7.30001 5.39129 4.80001 7.13296 3.07501C9.83296 0.383341 14.2246 0.375007 16.933 3.07501C18.2413 4.38334 18.958 6.12501 18.958 7.97501C18.958 9.82501 18.2413 11.5667 16.933 12.875C15.183 14.6083 12.6913 15.2917 10.3413 14.6917L6.67463 18.35C6.32463 18.7167 5.69963 18.9583 5.14963 18.9583ZM12.0246 2.30001C10.5663 2.30001 9.11629 2.85001 8.00796 3.95834C6.50796 5.45001 5.96629 7.63334 6.59129 9.66667C6.65796 9.89167 6.59963 10.125 6.43296 10.2917L2.51629 14.2083C2.37463 14.35 2.25796 14.7167 2.28296 14.9083L2.53296 16.7333C2.58296 17.05 2.92463 17.4083 3.24129 17.45L5.05796 17.7C5.25796 17.7333 5.62463 17.6167 5.76629 17.475L9.69963 13.55C9.86629 13.3833 10.108 13.3333 10.3246 13.4C12.333 14.0333 14.5246 13.4917 16.0246 11.9917C17.0913 10.925 17.683 9.49167 17.683 7.97501C17.683 6.45001 17.0913 5.02501 16.0246 3.95834C14.9413 2.85834 13.483 2.30001 12.0246 2.30001Z" fill="#505050"/>
<path d="M7.65872 17.1167C7.50039 17.1167 7.34206 17.0583 7.21706 16.9333L5.30039 15.0167C5.05872 14.775 5.05872 14.375 5.30039 14.1333C5.54206 13.8917 5.94206 13.8917 6.18372 14.1333L8.10039 16.05C8.34206 16.2917 8.34206 16.6917 8.10039 16.9333C7.97539 17.0583 7.81706 17.1167 7.65872 17.1167Z" fill="#505050"/>
<path d="M12.083 9.79166C11.0497 9.79166 10.208 8.94999 10.208 7.91666C10.208 6.88332 11.0497 6.04166 12.083 6.04166C13.1163 6.04166 13.958 6.88332 13.958 7.91666C13.958 8.94999 13.1163 9.79166 12.083 9.79166ZM12.083 7.29166C11.7413 7.29166 11.458 7.57499 11.458 7.91666C11.458 8.25832 11.7413 8.54166 12.083 8.54166C12.4247 8.54166 12.708 8.25832 12.708 7.91666C12.708 7.57499 12.4247 7.29166 12.083 7.29166Z" fill="#505050"/>
</svg>
