<svg width="28" height="28" viewBox="0 0 28 28" fill="none" xmlns="http://www.w3.org/2000/svg">
<path d="M11.667 18.0834C11.1887 18.0834 10.792 18.48 10.792 18.9584V20.7084C10.792 21.1867 11.1887 21.5834 11.667 21.5834C12.1453 21.5834 12.542 21.1867 12.542 20.7084V18.9584C12.542 18.48 12.1453 18.0834 11.667 18.0834Z" fill="#CB1B1B"/>
<path d="M25.6663 24.7917H24.4997V11.6433C24.4997 10.92 24.173 10.2433 23.6013 9.80001L15.4347 3.45334C14.5947 2.78834 13.4047 2.78834 12.5647 3.45334L4.39801 9.80001C3.82634 10.2433 3.49967 10.92 3.49967 11.6317L3.44134 24.7917H2.33301C1.85467 24.7917 1.45801 25.1767 1.45801 25.6667C1.45801 26.145 1.85467 26.5417 2.33301 26.5417H25.6663C26.1447 26.5417 26.5413 26.145 26.5413 25.6667C26.5413 25.1767 26.1447 24.7917 25.6663 24.7917ZM12.2497 7.87501H15.7497C16.228 7.87501 16.6247 8.27167 16.6247 8.75001C16.6247 9.22834 16.228 9.62501 15.7497 9.62501H12.2497C11.7713 9.62501 11.3747 9.22834 11.3747 8.75001C11.3747 8.27167 11.7713 7.87501 12.2497 7.87501ZM19.833 24.7917H8.16634V14.5833C8.16634 13.615 8.94801 12.8333 9.91634 12.8333H18.083C19.0513 12.8333 19.833 13.615 19.833 14.5833V24.7917Z" fill="#CB1B1B"/>
</svg>
