<svg width="28" height="28" viewBox="0 0 28 28" fill="none" xmlns="http://www.w3.org/2000/svg">
<path d="M13.2069 3.5H5.93853C3.61686 3.5 2.4502 4.67833 2.4502 7.02333V25.6667H8.7502V21.2917C8.7502 20.8133 9.14686 20.4167 9.6252 20.4167C10.1035 20.4167 10.5002 20.8017 10.5002 21.2917V25.6667H16.6835V7.02333C16.6835 4.67833 15.5285 3.5 13.2069 3.5ZM12.5419 14.875H6.76686C6.28853 14.875 5.89186 14.4783 5.89186 14C5.89186 13.5217 6.28853 13.125 6.76686 13.125H12.5419C13.0202 13.125 13.4169 13.5217 13.4169 14C13.4169 14.4783 13.0202 14.875 12.5419 14.875ZM12.5419 10.5H6.76686C6.28853 10.5 5.89186 10.1033 5.89186 9.625C5.89186 9.14667 6.28853 8.75 6.76686 8.75H12.5419C13.0202 8.75 13.4169 9.14667 13.4169 9.625C13.4169 10.1033 13.0202 10.5 12.5419 10.5Z" fill="#CB1B1B"/>
<path d="M26.8337 24.7916H24.1853V21.2916C25.2937 20.93 26.0987 19.8916 26.0987 18.6666V16.3333C26.0987 14.805 24.8503 13.5566 23.322 13.5566C21.7937 13.5566 20.5453 14.805 20.5453 16.3333V18.6666C20.5453 19.88 21.3387 20.9066 22.4237 21.28V24.7916H1.16699C0.688659 24.7916 0.291992 25.1883 0.291992 25.6666C0.291992 26.145 0.688659 26.5416 1.16699 26.5416H23.252C23.2753 26.5416 23.287 26.5533 23.3103 26.5533C23.3337 26.5533 23.3453 26.5416 23.3687 26.5416H26.8337C27.312 26.5416 27.7087 26.145 27.7087 25.6666C27.7087 25.1883 27.312 24.7916 26.8337 24.7916Z" fill="#CB1B1B"/>
</svg>
