<svg width="28" height="28" viewBox="0 0 28 28" fill="none" xmlns="http://www.w3.org/2000/svg">
<path d="M25.6663 24.7916H2.33301C1.85467 24.7916 1.45801 25.1883 1.45801 25.6666C1.45801 26.145 1.85467 26.5416 2.33301 26.5416H25.6663C26.1447 26.5416 26.5413 26.145 26.5413 25.6666C26.5413 25.1883 26.1447 24.7916 25.6663 24.7916Z" fill="#CB1B1B"/>
<path d="M19.8333 2.33337H8.16667C4.66667 2.33337 3.5 4.42171 3.5 7.00004V25.6667H24.5V7.00004C24.5 4.42171 23.3333 2.33337 19.8333 2.33337ZM11.6667 20.125H8.16667C7.68833 20.125 7.29167 19.7284 7.29167 19.25C7.29167 18.7717 7.68833 18.375 8.16667 18.375H11.6667C12.145 18.375 12.5417 18.7717 12.5417 19.25C12.5417 19.7284 12.145 20.125 11.6667 20.125ZM11.6667 14.875H8.16667C7.68833 14.875 7.29167 14.4784 7.29167 14C7.29167 13.5217 7.68833 13.125 8.16667 13.125H11.6667C12.145 13.125 12.5417 13.5217 12.5417 14C12.5417 14.4784 12.145 14.875 11.6667 14.875ZM11.6667 9.62504H8.16667C7.68833 9.62504 7.29167 9.22837 7.29167 8.75004C7.29167 8.27171 7.68833 7.87504 8.16667 7.87504H11.6667C12.145 7.87504 12.5417 8.27171 12.5417 8.75004C12.5417 9.22837 12.145 9.62504 11.6667 9.62504ZM19.8333 20.125H16.3333C15.855 20.125 15.4583 19.7284 15.4583 19.25C15.4583 18.7717 15.855 18.375 16.3333 18.375H19.8333C20.3117 18.375 20.7083 18.7717 20.7083 19.25C20.7083 19.7284 20.3117 20.125 19.8333 20.125ZM19.8333 14.875H16.3333C15.855 14.875 15.4583 14.4784 15.4583 14C15.4583 13.5217 15.855 13.125 16.3333 13.125H19.8333C20.3117 13.125 20.7083 13.5217 20.7083 14C20.7083 14.4784 20.3117 14.875 19.8333 14.875ZM19.8333 9.62504H16.3333C15.855 9.62504 15.4583 9.22837 15.4583 8.75004C15.4583 8.27171 15.855 7.87504 16.3333 7.87504H19.8333C20.3117 7.87504 20.7083 8.27171 20.7083 8.75004C20.7083 9.22837 20.3117 9.62504 19.8333 9.62504Z" fill="#CB1B1B"/>
</svg>
