<svg width="28" height="28" viewBox="0 0 28 28" fill="none" xmlns="http://www.w3.org/2000/svg">
<path d="M25.6663 24.7917H24.4997V11.6433C24.4997 10.92 24.173 10.2433 23.6013 9.80001L22.1663 8.68001L22.143 5.82167C22.143 5.18001 21.618 4.66667 20.9763 4.66667H16.998L15.4347 3.45334C14.5947 2.78834 13.4047 2.78834 12.5647 3.45334L4.39801 9.80001C3.82634 10.2433 3.49967 10.92 3.49967 11.6317L3.44134 24.7917H2.33301C1.85467 24.7917 1.45801 25.1883 1.45801 25.6667C1.45801 26.145 1.85467 26.5417 2.33301 26.5417H25.6663C26.1447 26.5417 26.5413 26.145 26.5413 25.6667C26.5413 25.1883 26.1447 24.7917 25.6663 24.7917ZM7.58301 14.875V13.125C7.58301 12.4833 8.10801 11.9583 8.74967 11.9583H11.083C11.7247 11.9583 12.2497 12.4833 12.2497 13.125V14.875C12.2497 15.5167 11.7247 16.0417 11.083 16.0417H8.74967C8.10801 16.0417 7.58301 15.5167 7.58301 14.875ZM16.9163 24.7917H11.083V21.5833C11.083 20.615 11.8647 19.8333 12.833 19.8333H15.1663C16.1347 19.8333 16.9163 20.615 16.9163 21.5833V24.7917ZM20.4163 14.875C20.4163 15.5167 19.8913 16.0417 19.2497 16.0417H16.9163C16.2747 16.0417 15.7497 15.5167 15.7497 14.875V13.125C15.7497 12.4833 16.2747 11.9583 16.9163 11.9583H19.2497C19.8913 11.9583 20.4163 12.4833 20.4163 13.125V14.875Z" fill="#CB1B1B"/>
</svg>
