<svg width="72" height="35" viewBox="0 0 72 35" fill="none" xmlns="http://www.w3.org/2000/svg">
<path d="M19.2763 32.5975H18.7544C18.7067 33.3022 18.4065 33.8516 17.8539 34.2456C17.3048 34.6428 16.5527 34.8414 15.5976 34.8414H15.0144V33.6113H15.5669C16.7334 33.6113 17.3662 33.2734 17.4651 32.5975H16.8562C16.215 32.5975 15.7238 32.4421 15.3827 32.1314C15.0416 31.8175 14.8711 31.3658 14.8711 30.7764C14.8711 30.4881 14.912 30.2222 14.9939 29.9787C15.0792 29.7321 15.202 29.5158 15.3623 29.33C15.526 29.141 15.7341 28.9937 15.9865 28.888C16.2423 28.7823 16.5305 28.7294 16.8511 28.7294C17.448 28.7294 17.9153 28.912 18.253 29.2772C18.5907 29.6424 18.7595 30.1277 18.7595 30.7331V31.3482H19.2763C19.3138 31.3482 19.3445 31.4154 19.3684 31.55C19.3922 31.6845 19.4042 31.8142 19.4042 31.9392V31.992C19.4042 32.1234 19.3922 32.2579 19.3684 32.3957C19.3479 32.5302 19.3172 32.5975 19.2763 32.5975ZM16.1348 30.7571C16.1348 30.9686 16.1877 31.1207 16.2934 31.2136C16.4026 31.3033 16.5885 31.3482 16.8511 31.3482H17.4856V30.7283C17.4856 30.203 17.2673 29.9403 16.8307 29.9403C16.3668 29.9403 16.1348 30.2126 16.1348 30.7571Z" fill="#CB1B1B"/>
<path d="M20.5554 31.3482C20.5963 31.3482 20.627 31.4154 20.6475 31.55C20.6713 31.6845 20.6833 31.8142 20.6833 31.9392V31.992C20.6833 32.1234 20.6713 32.2579 20.6475 32.3957C20.627 32.5302 20.5963 32.5975 20.5554 32.5975H19.2251C19.1842 32.5975 19.1535 32.5302 19.133 32.3957C19.1091 32.2579 19.0972 32.1234 19.0972 31.992V31.9392C19.0972 31.8142 19.1091 31.6845 19.133 31.55C19.1535 31.4154 19.1842 31.3482 19.2251 31.3482H20.5554Z" fill="#CB1B1B"/>
<path d="M21.8345 31.3482C21.8754 31.3482 21.9061 31.4154 21.9265 31.55C21.9504 31.6845 21.9624 31.8142 21.9624 31.9392V31.992C21.9624 32.1234 21.9504 32.2579 21.9265 32.3957C21.9061 32.5302 21.8754 32.5975 21.8345 32.5975H20.5042C20.4633 32.5975 20.4326 32.5302 20.4121 32.3957C20.3882 32.2579 20.3763 32.1234 20.3763 31.992V31.9392C20.3763 31.8142 20.3882 31.6845 20.4121 31.55C20.4326 31.4154 20.4633 31.3482 20.5042 31.3482H21.8345Z" fill="#CB1B1B"/>
<path d="M23.1135 31.3482C23.1545 31.3482 23.1852 31.4154 23.2056 31.55C23.2295 31.6845 23.2415 31.8142 23.2415 31.9392V31.992C23.2415 32.1234 23.2295 32.2579 23.2056 32.3957C23.1852 32.5302 23.1545 32.5975 23.1135 32.5975H21.7833C21.7424 32.5975 21.7117 32.5302 21.6912 32.3957C21.6673 32.2579 21.6554 32.1234 21.6554 31.992V31.9392C21.6554 31.8142 21.6673 31.6845 21.6912 31.55C21.7117 31.4154 21.7424 31.3482 21.7833 31.3482H23.1135Z" fill="#CB1B1B"/>
<path d="M24.3926 31.3482C24.4336 31.3482 24.4643 31.4154 24.4847 31.55C24.5086 31.6845 24.5205 31.8142 24.5205 31.9392V31.992C24.5205 32.1234 24.5086 32.2579 24.4847 32.3957C24.4643 32.5302 24.4336 32.5975 24.3926 32.5975H23.0624C23.0214 32.5975 22.9908 32.5302 22.9703 32.3957C22.9464 32.2579 22.9345 32.1234 22.9345 31.992V31.9392C22.9345 31.8142 22.9464 31.6845 22.9703 31.55C22.9908 31.4154 23.0214 31.3482 23.0624 31.3482H24.3926Z" fill="#CB1B1B"/>
<path d="M25.6717 31.3482C25.7127 31.3482 25.7433 31.4154 25.7638 31.55C25.7877 31.6845 25.7996 31.8142 25.7996 31.9392V31.992C25.7996 32.1234 25.7877 32.2579 25.7638 32.3957C25.7433 32.5302 25.7127 32.5975 25.6717 32.5975H24.3415C24.3005 32.5975 24.2698 32.5302 24.2494 32.3957C24.2255 32.2579 24.2136 32.1234 24.2136 31.992V31.9392C24.2136 31.8142 24.2255 31.6845 24.2494 31.55C24.2698 31.4154 24.3005 31.3482 24.3415 31.3482H25.6717Z" fill="#CB1B1B"/>
<path d="M26.9508 31.3482C26.9917 31.3482 27.0224 31.4154 27.0429 31.55C27.0668 31.6845 27.0787 31.8142 27.0787 31.9392V31.992C27.0787 32.1234 27.0668 32.2579 27.0429 32.3957C27.0224 32.5302 26.9917 32.5975 26.9508 32.5975H25.6206C25.5796 32.5975 25.5489 32.5302 25.5285 32.3957C25.5046 32.2579 25.4926 32.1234 25.4926 31.992V31.9392C25.4926 31.8142 25.5046 31.6845 25.5285 31.55C25.5489 31.4154 25.5796 31.3482 25.6206 31.3482H26.9508Z" fill="#CB1B1B"/>
<path d="M28.2299 31.3482C28.2708 31.3482 28.3015 31.4154 28.322 31.55C28.3459 31.6845 28.3578 31.8142 28.3578 31.9392V31.992C28.3578 32.1234 28.3459 32.2579 28.322 32.3957C28.3015 32.5302 28.2708 32.5975 28.2299 32.5975H26.8996C26.8587 32.5975 26.828 32.5302 26.8076 32.3957C26.7837 32.2579 26.7717 32.1234 26.7717 31.992V31.9392C26.7717 31.8142 26.7837 31.6845 26.8076 31.55C26.828 31.4154 26.8587 31.3482 26.8996 31.3482H28.2299Z" fill="#CB1B1B"/>
<path d="M29.509 31.3482C29.5499 31.3482 29.5806 31.4154 29.6011 31.55C29.625 31.6845 29.6369 31.8142 29.6369 31.9392V31.992C29.6369 32.1234 29.625 32.2579 29.6011 32.3957C29.5806 32.5302 29.5499 32.5975 29.509 32.5975H28.1787C28.1378 32.5975 28.1071 32.5302 28.0866 32.3957C28.0628 32.2579 28.0508 32.1234 28.0508 31.992V31.9392C28.0508 31.8142 28.0628 31.6845 28.0866 31.55C28.1071 31.4154 28.1378 31.3482 28.1787 31.3482H29.509Z" fill="#CB1B1B"/>
<path d="M30.7881 31.3482C30.829 31.3482 30.8597 31.4154 30.8802 31.55C30.904 31.6845 30.916 31.8142 30.916 31.9392V31.992C30.916 32.1234 30.904 32.2579 30.8802 32.3957C30.8597 32.5302 30.829 32.5975 30.7881 32.5975H29.4578C29.4169 32.5975 29.3862 32.5302 29.3657 32.3957C29.3419 32.2579 29.3299 32.1234 29.3299 31.992V31.9392C29.3299 31.8142 29.3419 31.6845 29.3657 31.55C29.3862 31.4154 29.4169 31.3482 29.4578 31.3482H30.7881Z" fill="#CB1B1B"/>
<path d="M32.0672 31.3482C32.1081 31.3482 32.1388 31.4154 32.1593 31.55C32.1831 31.6845 32.1951 31.8142 32.1951 31.9392V31.992C32.1951 32.1234 32.1831 32.2579 32.1593 32.3957C32.1388 32.5302 32.1081 32.5975 32.0672 32.5975H30.7369C30.696 32.5975 30.6653 32.5302 30.6448 32.3957C30.6209 32.2579 30.609 32.1234 30.609 31.992V31.9392C30.609 31.8142 30.6209 31.6845 30.6448 31.55C30.6653 31.4154 30.696 31.3482 30.7369 31.3482H32.0672Z" fill="#CB1B1B"/>
<path d="M33.3463 31.3482C33.3872 31.3482 33.4179 31.4154 33.4383 31.55C33.4622 31.6845 33.4742 31.8142 33.4742 31.9392V31.992C33.4742 32.1234 33.4622 32.2579 33.4383 32.3957C33.4179 32.5302 33.3872 32.5975 33.3463 32.5975H32.016C31.9751 32.5975 31.9444 32.5302 31.9239 32.3957C31.9 32.2579 31.8881 32.1234 31.8881 31.992V31.9392C31.8881 31.8142 31.9 31.6845 31.9239 31.55C31.9444 31.4154 31.9751 31.3482 32.016 31.3482H33.3463Z" fill="#CB1B1B"/>
<path d="M34.6253 31.3482C34.6663 31.3482 34.697 31.4154 34.7174 31.55C34.7413 31.6845 34.7533 31.8142 34.7533 31.9392V31.992C34.7533 32.1234 34.7413 32.2579 34.7174 32.3957C34.697 32.5302 34.6663 32.5975 34.6253 32.5975H33.2951C33.2542 32.5975 33.2235 32.5302 33.203 32.3957C33.1791 32.2579 33.1672 32.1234 33.1672 31.992V31.9392C33.1672 31.8142 33.1791 31.6845 33.203 31.55C33.2235 31.4154 33.2542 31.3482 33.2951 31.3482H34.6253Z" fill="#CB1B1B"/>
<path d="M35.9044 31.3482C35.9454 31.3482 35.9761 31.4154 35.9965 31.55C36.0204 31.6845 36.0323 31.8142 36.0323 31.9392V31.992C36.0323 32.1234 36.0204 32.2579 35.9965 32.3957C35.9761 32.5302 35.9454 32.5975 35.9044 32.5975H34.5742C34.5332 32.5975 34.5026 32.5302 34.4821 32.3957C34.4582 32.2579 34.4463 32.1234 34.4463 31.992V31.9392C34.4463 31.8142 34.4582 31.6845 34.4821 31.55C34.5026 31.4154 34.5332 31.3482 34.5742 31.3482H35.9044Z" fill="#CB1B1B"/>
<path d="M37.1835 31.3482C37.2245 31.3482 37.2551 31.4154 37.2756 31.55C37.2995 31.6845 37.3114 31.8142 37.3114 31.9392V31.992C37.3114 32.1234 37.2995 32.2579 37.2756 32.3957C37.2551 32.5302 37.2245 32.5975 37.1835 32.5975H35.8533C35.8123 32.5975 35.7816 32.5302 35.7612 32.3957C35.7373 32.2579 35.7254 32.1234 35.7254 31.992V31.9392C35.7254 31.8142 35.7373 31.6845 35.7612 31.55C35.7816 31.4154 35.8123 31.3482 35.8533 31.3482H37.1835Z" fill="#CB1B1B"/>
<path d="M38.4626 31.3482C38.5035 31.3482 38.5342 31.4154 38.5547 31.55C38.5786 31.6845 38.5905 31.8142 38.5905 31.9392V31.992C38.5905 32.1234 38.5786 32.2579 38.5547 32.3957C38.5342 32.5302 38.5035 32.5975 38.4626 32.5975H37.1324C37.0914 32.5975 37.0607 32.5302 37.0403 32.3957C37.0164 32.2579 37.0044 32.1234 37.0044 31.992V31.9392C37.0044 31.8142 37.0164 31.6845 37.0403 31.55C37.0607 31.4154 37.0914 31.3482 37.1324 31.3482H38.4626Z" fill="#CB1B1B"/>
<path d="M39.7417 31.3482C39.7826 31.3482 39.8133 31.4154 39.8338 31.55C39.8577 31.6845 39.8696 31.8142 39.8696 31.9392V31.992C39.8696 32.1234 39.8577 32.2579 39.8338 32.3957C39.8133 32.5302 39.7826 32.5975 39.7417 32.5975H38.4114C38.3705 32.5975 38.3398 32.5302 38.3194 32.3957C38.2955 32.2579 38.2835 32.1234 38.2835 31.992V31.9392C38.2835 31.8142 38.2955 31.6845 38.3194 31.55C38.3398 31.4154 38.3705 31.3482 38.4114 31.3482H39.7417Z" fill="#CB1B1B"/>
<path d="M41.0208 31.3482C41.0617 31.3482 41.0924 31.4154 41.1129 31.55C41.1368 31.6845 41.1487 31.8142 41.1487 31.9392V31.992C41.1487 32.1234 41.1368 32.2579 41.1129 32.3957C41.0924 32.5302 41.0617 32.5975 41.0208 32.5975H39.6905C39.6496 32.5975 39.6189 32.5302 39.5984 32.3957C39.5746 32.2579 39.5626 32.1234 39.5626 31.992V31.9392C39.5626 31.8142 39.5746 31.6845 39.5984 31.55C39.6189 31.4154 39.6496 31.3482 39.6905 31.3482H41.0208Z" fill="#CB1B1B"/>
<path d="M42.2999 31.3482C42.3408 31.3482 42.3715 31.4154 42.392 31.55C42.4158 31.6845 42.4278 31.8142 42.4278 31.9392V31.992C42.4278 32.1234 42.4158 32.2579 42.392 32.3957C42.3715 32.5302 42.3408 32.5975 42.2999 32.5975H40.9696C40.9287 32.5975 40.898 32.5302 40.8775 32.3957C40.8537 32.2579 40.8417 32.1234 40.8417 31.992V31.9392C40.8417 31.8142 40.8537 31.6845 40.8775 31.55C40.898 31.4154 40.9287 31.3482 40.9696 31.3482H42.2999Z" fill="#CB1B1B"/>
<path d="M43.579 31.3482C43.6199 31.3482 43.6506 31.4154 43.6711 31.55C43.6949 31.6845 43.7069 31.8142 43.7069 31.9392V31.992C43.7069 32.1234 43.6949 32.2579 43.6711 32.3957C43.6506 32.5302 43.6199 32.5975 43.579 32.5975H42.2487C42.2078 32.5975 42.1771 32.5302 42.1566 32.3957C42.1327 32.2579 42.1208 32.1234 42.1208 31.992V31.9392C42.1208 31.8142 42.1327 31.6845 42.1566 31.55C42.1771 31.4154 42.2078 31.3482 42.2487 31.3482H43.579Z" fill="#CB1B1B"/>
<path d="M44.8581 31.3482C44.899 31.3482 44.9297 31.4154 44.9501 31.55C44.974 31.6845 44.986 31.8142 44.986 31.9392V31.992C44.986 32.1234 44.974 32.2579 44.9501 32.3957C44.9297 32.5302 44.899 32.5975 44.8581 32.5975H43.5278C43.4869 32.5975 43.4562 32.5302 43.4357 32.3957C43.4118 32.2579 43.3999 32.1234 43.3999 31.992V31.9392C43.3999 31.8142 43.4118 31.6845 43.4357 31.55C43.4562 31.4154 43.4869 31.3482 43.5278 31.3482H44.8581Z" fill="#CB1B1B"/>
<path d="M48.9818 32.5975H48.8795C48.2246 32.5975 47.73 32.4165 47.3958 32.0545C47.0069 32.4165 46.4356 32.5975 45.6818 32.5975H44.8069C44.766 32.5975 44.7353 32.5302 44.7148 32.3957C44.6909 32.2579 44.679 32.1234 44.679 31.992V31.9392C44.679 31.8142 44.6909 31.6845 44.7148 31.55C44.7387 31.4154 44.7694 31.3482 44.8069 31.3482H45.7074C46.0962 31.3482 46.364 31.2905 46.5106 31.1752C46.6607 31.0599 46.7358 30.8693 46.7358 30.6034V29.1715H48.02V30.6034C48.02 30.8821 48.0779 31.0759 48.1939 31.1848C48.3133 31.2937 48.5401 31.3482 48.8744 31.3482H48.9818C49.0194 31.3482 49.0501 31.4154 49.0739 31.55C49.0978 31.6845 49.1097 31.8142 49.1097 31.9392V31.992C49.1097 32.1234 49.0978 32.2579 49.0739 32.3957C49.0535 32.5302 49.0228 32.5975 48.9818 32.5975ZM46.2241 27.4753L47.1041 26.6488L47.9841 27.4753L47.1041 28.3018L46.2241 27.4753Z" fill="#CB1B1B"/>
<path d="M50.4093 34.1879L51.2688 33.3759L52.1335 34.1879C52.113 34.2072 52.0926 34.228 52.0721 34.2504C52.0278 34.2921 51.9084 34.4026 51.714 34.582C51.5196 34.7646 51.3712 34.9039 51.2688 35L50.4093 34.1879ZM48.5572 34.1879L49.4218 33.3759L50.2814 34.1879L49.4218 35L48.5572 34.1879ZM53.4842 32.5975H53.3768C52.7151 32.5975 52.2205 32.4181 51.893 32.0593C51.511 32.4181 50.9397 32.5975 50.1791 32.5975H48.946C48.9051 32.5975 48.8744 32.5302 48.8539 32.3957C48.8301 32.2579 48.8181 32.1234 48.8181 31.992V31.9392C48.8181 31.8142 48.8301 31.6845 48.8539 31.55C48.8778 31.4154 48.9085 31.3482 48.946 31.3482H50.2046C50.5935 31.3482 50.8612 31.2905 51.0079 31.1752C51.158 31.0599 51.233 30.8693 51.233 30.6034V29.1715H52.5172V30.6034C52.5172 30.8821 52.5752 31.0759 52.6912 31.1848C52.8106 31.2937 53.0374 31.3482 53.3717 31.3482H53.4842C53.5218 31.3482 53.5524 31.4154 53.5763 31.55C53.6002 31.6845 53.6121 31.8142 53.6121 31.9392V31.992C53.6121 32.1234 53.6002 32.2579 53.5763 32.3957C53.5559 32.5302 53.5252 32.5975 53.4842 32.5975Z" fill="#CB1B1B"/>
<path d="M55.2903 27.0765L56.1703 26.25L57.0503 27.0765L56.1703 27.9029L55.2903 27.0765ZM58.7131 32.5975H58.0173C57.7137 32.5975 57.4017 32.5686 57.081 32.511C56.7604 32.4501 56.4654 32.3572 56.1959 32.2323C55.6672 32.4757 55.0584 32.5975 54.3694 32.5975H53.4331C53.3921 32.5975 53.3614 32.5302 53.341 32.3957C53.3171 32.2579 53.3052 32.1234 53.3052 31.992V31.9392C53.3052 31.8142 53.3171 31.6845 53.341 31.55C53.3648 31.4154 53.3955 31.3482 53.4331 31.3482H54.5177C54.3063 31.047 54.2005 30.7091 54.2005 30.3343C54.2005 29.8025 54.3949 29.3541 54.7838 28.9889C55.1726 28.6205 55.6484 28.4363 56.2112 28.4363C56.7706 28.4363 57.2448 28.6189 57.6336 28.9841C58.0224 29.3461 58.2169 29.7945 58.2169 30.3295C58.2169 30.7075 58.1128 31.047 57.9048 31.3482H58.7131C58.7507 31.3482 58.7814 31.4154 58.8052 31.55C58.8291 31.6845 58.8411 31.8142 58.8411 31.9392V31.992C58.8411 32.1234 58.8291 32.2579 58.8052 32.3957C58.7848 32.5302 58.7541 32.5975 58.7131 32.5975ZM56.948 30.3391C56.948 30.1501 56.8781 29.9899 56.7382 29.8586C56.5984 29.7273 56.421 29.6616 56.2061 29.6616C55.9844 29.6616 55.8036 29.7257 55.6638 29.8538C55.5274 29.9787 55.4591 30.1405 55.4591 30.3391C55.4591 30.5217 55.5325 30.6803 55.6791 30.8148C55.8292 30.9493 56.0049 31.0166 56.2061 31.0166C56.4074 31.0166 56.5813 30.9509 56.728 30.8196C56.8747 30.6851 56.948 30.5249 56.948 30.3391Z" fill="#CB1B1B"/>
<path d="M63.9421 32.5975H63.2462C62.9427 32.5975 62.6306 32.5686 62.3099 32.511C61.9893 32.4501 61.6943 32.3572 61.4248 32.2323C60.8961 32.4757 60.2873 32.5975 59.5983 32.5975H58.662C58.6211 32.5975 58.5904 32.5302 58.5699 32.3957C58.546 32.2579 58.5341 32.1234 58.5341 31.992V31.9392C58.5341 31.8142 58.546 31.6845 58.5699 31.55C58.5938 31.4154 58.6245 31.3482 58.662 31.3482H59.7467C59.5352 31.047 59.4294 30.7091 59.4294 30.3343C59.4294 29.8025 59.6239 29.3541 60.0127 28.9889C60.4015 28.6205 60.8774 28.4363 61.4402 28.4363C61.9995 28.4363 62.4737 28.6189 62.8625 28.9841C63.2514 29.3461 63.4458 29.7945 63.4458 30.3295C63.4458 30.7075 63.3417 31.047 63.1337 31.3482H63.9421C63.9796 31.3482 64.0103 31.4154 64.0342 31.55C64.058 31.6845 64.07 31.8142 64.07 31.9392V31.992C64.07 32.1234 64.058 32.2579 64.0342 32.3957C64.0137 32.5302 63.983 32.5975 63.9421 32.5975ZM62.1769 30.3391C62.1769 30.1501 62.107 29.9899 61.9671 29.8586C61.8273 29.7273 61.6499 29.6616 61.435 29.6616C61.2133 29.6616 61.0326 29.7257 60.8927 29.8538C60.7563 29.9787 60.6881 30.1405 60.6881 30.3391C60.6881 30.5217 60.7614 30.6803 60.9081 30.8148C61.0581 30.9493 61.2338 31.0166 61.435 31.0166C61.6363 31.0166 61.8102 30.9509 61.9569 30.8196C62.1036 30.6851 62.1769 30.5249 62.1769 30.3391ZM61.4248 27.0717L62.2844 26.2596L63.149 27.0717C63.1286 27.0909 63.1081 27.1117 63.0876 27.1341C63.0433 27.1758 62.9239 27.2879 62.7295 27.4705C62.5351 27.6499 62.3867 27.7876 62.2844 27.8837L61.4248 27.0717ZM59.5727 27.0717L60.4374 26.2596L61.2969 27.0717L60.4374 27.8837L59.5727 27.0717Z" fill="#CB1B1B"/>
<path d="M63.8909 31.3482H64.3769C64.7351 31.3482 64.9926 31.2889 65.1495 31.1704C65.3064 31.0486 65.3849 30.8612 65.3849 30.6082V29.1667H66.6691V29.3589L66.6742 30.6178C66.6776 30.8805 66.7356 31.0679 66.8482 31.18C66.9641 31.2921 67.1568 31.3482 67.4263 31.3482C67.6753 31.3482 67.8561 31.2921 67.9686 31.18C68.0846 31.0647 68.1426 30.8757 68.1426 30.613L68.1477 29.3589V29.1667H69.4268V29.3589L69.4319 30.6034C69.4353 30.8725 69.4933 31.0631 69.6059 31.1752C69.7184 31.2873 69.9009 31.3434 70.1533 31.3434C70.3443 31.3434 70.4825 31.2905 70.5677 31.1848C70.653 31.0791 70.6956 30.8917 70.6956 30.6226V29.0129H72.0003V30.661C72.0003 31.2601 71.84 31.7326 71.5194 32.0785C71.1988 32.4245 70.7536 32.5975 70.184 32.5975C69.5939 32.5975 69.1386 32.4181 68.8179 32.0593C68.4939 32.4181 68.0232 32.5975 67.4058 32.5975C66.8362 32.5975 66.3826 32.4133 66.0449 32.0449C65.6799 32.4133 65.1222 32.5975 64.3718 32.5975H63.8909C63.85 32.5975 63.8193 32.5302 63.7988 32.3957C63.7749 32.2579 63.763 32.1234 63.763 31.992V31.9392C63.763 31.8142 63.7749 31.6845 63.7988 31.55C63.8227 31.4154 63.8534 31.3482 63.8909 31.3482Z" fill="#CB1B1B"/>
<path d="M42.2383 0H50.4738L27.5973 25.678H19.3618L42.2383 0Z" fill="#CB1B1B"/>
<path d="M51.4097 0.211864L46.5016 5.72034L63.7629 25.678H71.9985L51.4097 0.211864Z" fill="#CB1B1B"/>
<path d="M22.8765 0H31.112L8.23553 25.678H0L22.8765 0Z" fill="#CB1B1B"/>
<path d="M32.7549 0H40.9905L8.96341 35H0.727887L32.7549 0Z" fill="#9E1515"/>
</svg>
