<svg width="16" height="16" viewBox="0 0 16 16" fill="none" xmlns="http://www.w3.org/2000/svg">
<path d="M10.793 1.33325H5.20634C2.77967 1.33325 1.33301 2.77992 1.33301 5.20658V10.7866C1.33301 13.2199 2.77967 14.6666 5.20634 14.6666H10.7863C13.213 14.6666 14.6597 13.2199 14.6597 10.7933V5.20658C14.6663 2.77992 13.2197 1.33325 10.793 1.33325ZM7.99967 10.5866C6.57301 10.5866 5.41301 9.42659 5.41301 7.99992C5.41301 6.57325 6.57301 5.41325 7.99967 5.41325C9.42634 5.41325 10.5863 6.57325 10.5863 7.99992C10.5863 9.42659 9.42634 10.5866 7.99967 10.5866ZM11.9463 4.58659C11.913 4.66659 11.8663 4.73992 11.8063 4.80659C11.7397 4.86659 11.6663 4.91325 11.5863 4.94659C11.5063 4.97992 11.4197 4.99992 11.333 4.99992C11.153 4.99992 10.9863 4.93325 10.8597 4.80659C10.7997 4.73992 10.753 4.66659 10.7197 4.58659C10.6863 4.50659 10.6663 4.41992 10.6663 4.33325C10.6663 4.24659 10.6863 4.15992 10.7197 4.07992C10.753 3.99325 10.7997 3.92659 10.8597 3.85992C11.013 3.70659 11.2463 3.63325 11.4597 3.67992C11.5063 3.68659 11.5463 3.69992 11.5863 3.71992C11.6263 3.73325 11.6663 3.75325 11.7063 3.77992C11.7397 3.79992 11.773 3.83325 11.8063 3.85992C11.8663 3.92659 11.913 3.99325 11.9463 4.07992C11.9797 4.15992 11.9997 4.24659 11.9997 4.33325C11.9997 4.41992 11.9797 4.50659 11.9463 4.58659Z" fill="#CB1B1B"/>
</svg>
