<svg width="64" height="31" viewBox="0 0 64 31" fill="none" xmlns="http://www.w3.org/2000/svg">
<path d="M17.1345 28.872H16.6706C16.6281 29.4962 16.3613 29.9828 15.8702 30.3318C15.382 30.6836 14.7135 30.8596 13.8645 30.8596H13.3461V29.77H13.8373C14.8742 29.77 15.4366 29.4707 15.5245 28.872H14.9833C14.4133 28.872 13.9767 28.7344 13.6735 28.4592C13.3703 28.1812 13.2188 27.7811 13.2188 27.2591C13.2188 27.0037 13.2551 26.7682 13.3279 26.5526C13.4037 26.3341 13.5128 26.1426 13.6553 25.978C13.8009 25.8106 13.9858 25.6801 14.2102 25.5865C14.4376 25.4929 14.6938 25.446 14.9788 25.446C15.5094 25.446 15.9247 25.6078 16.2249 25.9312C16.5251 26.2547 16.6751 26.6845 16.6751 27.2208V27.7655H17.1345C17.1678 27.7655 17.1951 27.8251 17.2163 27.9443C17.2376 28.0634 17.2482 28.1783 17.2482 28.289V28.3358C17.2482 28.4521 17.2376 28.5713 17.2163 28.6933C17.1981 28.8125 17.1709 28.872 17.1345 28.872ZM14.3421 27.242C14.3421 27.4293 14.3891 27.5641 14.4831 27.6463C14.5801 27.7258 14.7453 27.7655 14.9788 27.7655H15.5427V27.2165C15.5427 26.7512 15.3487 26.5185 14.9606 26.5185C14.5482 26.5185 14.3421 26.7597 14.3421 27.242Z" fill="#CB1B1B"/>
<path d="M18.2714 27.7655C18.3078 27.7655 18.3351 27.8251 18.3533 27.9443C18.3745 28.0634 18.3851 28.1783 18.3851 28.289V28.3358C18.3851 28.4521 18.3745 28.5713 18.3533 28.6933C18.3351 28.8125 18.3078 28.872 18.2714 28.872H17.089C17.0526 28.872 17.0253 28.8125 17.0071 28.6933C16.9859 28.5713 16.9753 28.4521 16.9753 28.3358V28.289C16.9753 28.1783 16.9859 28.0634 17.0071 27.9443C17.0253 27.8251 17.0526 27.7655 17.089 27.7655H18.2714Z" fill="#CB1B1B"/>
<path d="M19.4084 27.7655C19.4448 27.7655 19.4721 27.8251 19.4903 27.9443C19.5115 28.0634 19.5221 28.1783 19.5221 28.289V28.3358C19.5221 28.4521 19.5115 28.5713 19.4903 28.6933C19.4721 28.8125 19.4448 28.872 19.4084 28.872H18.226C18.1896 28.872 18.1623 28.8125 18.1441 28.6933C18.1229 28.5713 18.1123 28.4521 18.1123 28.3358V28.289C18.1123 28.1783 18.1229 28.0634 18.1441 27.9443C18.1623 27.8251 18.1896 27.7655 18.226 27.7655H19.4084Z" fill="#CB1B1B"/>
<path d="M20.5454 27.7655C20.5818 27.7655 20.609 27.8251 20.6272 27.9443C20.6485 28.0634 20.6591 28.1783 20.6591 28.289V28.3358C20.6591 28.4521 20.6485 28.5713 20.6272 28.6933C20.609 28.8125 20.5818 28.872 20.5454 28.872H19.3629C19.3265 28.872 19.2993 28.8125 19.2811 28.6933C19.2598 28.5713 19.2492 28.4521 19.2492 28.3358V28.289C19.2492 28.1783 19.2598 28.0634 19.2811 27.9443C19.2993 27.8251 19.3265 27.7655 19.3629 27.7655H20.5454Z" fill="#CB1B1B"/>
<path d="M21.6823 27.7655C21.7187 27.7655 21.746 27.8251 21.7642 27.9443C21.7854 28.0634 21.796 28.1783 21.796 28.289V28.3358C21.796 28.4521 21.7854 28.5713 21.7642 28.6933C21.746 28.8125 21.7187 28.872 21.6823 28.872H20.4999C20.4635 28.872 20.4362 28.8125 20.418 28.6933C20.3968 28.5713 20.3862 28.4521 20.3862 28.3358V28.289C20.3862 28.1783 20.3968 28.0634 20.418 27.9443C20.4362 27.8251 20.4635 27.7655 20.4999 27.7655H21.6823Z" fill="#CB1B1B"/>
<path d="M22.8193 27.7655C22.8557 27.7655 22.883 27.8251 22.9012 27.9443C22.9224 28.0634 22.933 28.1783 22.933 28.289V28.3358C22.933 28.4521 22.9224 28.5713 22.9012 28.6933C22.883 28.8125 22.8557 28.872 22.8193 28.872H21.6369C21.6005 28.872 21.5732 28.8125 21.555 28.6933C21.5338 28.5713 21.5232 28.4521 21.5232 28.3358V28.289C21.5232 28.1783 21.5338 28.0634 21.555 27.9443C21.5732 27.8251 21.6005 27.7655 21.6369 27.7655H22.8193Z" fill="#CB1B1B"/>
<path d="M23.9563 27.7655C23.9927 27.7655 24.0199 27.8251 24.0381 27.9443C24.0594 28.0634 24.07 28.1783 24.07 28.289V28.3358C24.07 28.4521 24.0594 28.5713 24.0381 28.6933C24.0199 28.8125 23.9927 28.872 23.9563 28.872H22.7738C22.7374 28.872 22.7102 28.8125 22.692 28.6933C22.6707 28.5713 22.6601 28.4521 22.6601 28.3358V28.289C22.6601 28.1783 22.6707 28.0634 22.692 27.9443C22.7102 27.8251 22.7374 27.7655 22.7738 27.7655H23.9563Z" fill="#CB1B1B"/>
<path d="M25.0932 27.7655C25.1296 27.7655 25.1569 27.8251 25.1751 27.9443C25.1963 28.0634 25.2069 28.1783 25.2069 28.289V28.3358C25.2069 28.4521 25.1963 28.5713 25.1751 28.6933C25.1569 28.8125 25.1296 28.872 25.0932 28.872H23.9108C23.8744 28.872 23.8471 28.8125 23.8289 28.6933C23.8077 28.5713 23.7971 28.4521 23.7971 28.3358V28.289C23.7971 28.1783 23.8077 28.0634 23.8289 27.9443C23.8471 27.8251 23.8744 27.7655 23.9108 27.7655H25.0932Z" fill="#CB1B1B"/>
<path d="M26.2302 27.7655C26.2666 27.7655 26.2939 27.8251 26.3121 27.9443C26.3333 28.0634 26.3439 28.1783 26.3439 28.289V28.3358C26.3439 28.4521 26.3333 28.5713 26.3121 28.6933C26.2939 28.8125 26.2666 28.872 26.2302 28.872H25.0478C25.0114 28.872 24.9841 28.8125 24.9659 28.6933C24.9447 28.5713 24.9341 28.4521 24.9341 28.3358V28.289C24.9341 28.1783 24.9447 28.0634 24.9659 27.9443C24.9841 27.8251 25.0114 27.7655 25.0478 27.7655H26.2302Z" fill="#CB1B1B"/>
<path d="M27.3672 27.7655C27.4036 27.7655 27.4309 27.8251 27.449 27.9443C27.4703 28.0634 27.4809 28.1783 27.4809 28.289V28.3358C27.4809 28.4521 27.4703 28.5713 27.449 28.6933C27.4309 28.8125 27.4036 28.872 27.3672 28.872H26.1847C26.1483 28.872 26.1211 28.8125 26.1029 28.6933C26.0816 28.5713 26.071 28.4521 26.071 28.3358V28.289C26.071 28.1783 26.0816 28.0634 26.1029 27.9443C26.1211 27.8251 26.1483 27.7655 26.1847 27.7655H27.3672Z" fill="#CB1B1B"/>
<path d="M28.5041 27.7655C28.5405 27.7655 28.5678 27.8251 28.586 27.9443C28.6072 28.0634 28.6178 28.1783 28.6178 28.289V28.3358C28.6178 28.4521 28.6072 28.5713 28.586 28.6933C28.5678 28.8125 28.5405 28.872 28.5041 28.872H27.3217C27.2853 28.872 27.258 28.8125 27.2398 28.6933C27.2186 28.5713 27.208 28.4521 27.208 28.3358V28.289C27.208 28.1783 27.2186 28.0634 27.2398 27.9443C27.258 27.8251 27.2853 27.7655 27.3217 27.7655H28.5041Z" fill="#CB1B1B"/>
<path d="M29.6411 27.7655C29.6775 27.7655 29.7048 27.8251 29.723 27.9443C29.7442 28.0634 29.7548 28.1783 29.7548 28.289V28.3358C29.7548 28.4521 29.7442 28.5713 29.723 28.6933C29.7048 28.8125 29.6775 28.872 29.6411 28.872H28.4587C28.4223 28.872 28.395 28.8125 28.3768 28.6933C28.3556 28.5713 28.345 28.4521 28.345 28.3358V28.289C28.345 28.1783 28.3556 28.0634 28.3768 27.9443C28.395 27.8251 28.4223 27.7655 28.4587 27.7655H29.6411Z" fill="#CB1B1B"/>
<path d="M30.7781 27.7655C30.8145 27.7655 30.8418 27.8251 30.8599 27.9443C30.8812 28.0634 30.8918 28.1783 30.8918 28.289V28.3358C30.8918 28.4521 30.8812 28.5713 30.8599 28.6933C30.8418 28.8125 30.8145 28.872 30.7781 28.872H29.5956C29.5593 28.872 29.532 28.8125 29.5138 28.6933C29.4926 28.5713 29.4819 28.4521 29.4819 28.3358V28.289C29.4819 28.1783 29.4926 28.0634 29.5138 27.9443C29.532 27.8251 29.5593 27.7655 29.5956 27.7655H30.7781Z" fill="#CB1B1B"/>
<path d="M31.9151 27.7655C31.9514 27.7655 31.9787 27.8251 31.9969 27.9443C32.0181 28.0634 32.0287 28.1783 32.0287 28.289V28.3358C32.0287 28.4521 32.0181 28.5713 31.9969 28.6933C31.9787 28.8125 31.9514 28.872 31.9151 28.872H30.7326C30.6962 28.872 30.6689 28.8125 30.6507 28.6933C30.6295 28.5713 30.6189 28.4521 30.6189 28.3358V28.289C30.6189 28.1783 30.6295 28.0634 30.6507 27.9443C30.6689 27.8251 30.6962 27.7655 30.7326 27.7655H31.9151Z" fill="#CB1B1B"/>
<path d="M33.052 27.7655C33.0884 27.7655 33.1157 27.8251 33.1339 27.9443C33.1551 28.0634 33.1657 28.1783 33.1657 28.289V28.3358C33.1657 28.4521 33.1551 28.5713 33.1339 28.6933C33.1157 28.8125 33.0884 28.872 33.052 28.872H31.8696C31.8332 28.872 31.8059 28.8125 31.7877 28.6933C31.7665 28.5713 31.7559 28.4521 31.7559 28.3358V28.289C31.7559 28.1783 31.7665 28.0634 31.7877 27.9443C31.8059 27.8251 31.8332 27.7655 31.8696 27.7655H33.052Z" fill="#CB1B1B"/>
<path d="M34.189 27.7655C34.2254 27.7655 34.2527 27.8251 34.2708 27.9443C34.2921 28.0634 34.3027 28.1783 34.3027 28.289V28.3358C34.3027 28.4521 34.2921 28.5713 34.2708 28.6933C34.2527 28.8125 34.2254 28.872 34.189 28.872H33.0065C32.9702 28.872 32.9429 28.8125 32.9247 28.6933C32.9035 28.5713 32.8928 28.4521 32.8928 28.3358V28.289C32.8928 28.1783 32.9035 28.0634 32.9247 27.9443C32.9429 27.8251 32.9702 27.7655 33.0065 27.7655H34.189Z" fill="#CB1B1B"/>
<path d="M35.326 27.7655C35.3623 27.7655 35.3896 27.8251 35.4078 27.9443C35.429 28.0634 35.4397 28.1783 35.4397 28.289V28.3358C35.4397 28.4521 35.429 28.5713 35.4078 28.6933C35.3896 28.8125 35.3623 28.872 35.326 28.872H34.1435C34.1071 28.872 34.0798 28.8125 34.0616 28.6933C34.0404 28.5713 34.0298 28.4521 34.0298 28.3358V28.289C34.0298 28.1783 34.0404 28.0634 34.0616 27.9443C34.0798 27.8251 34.1071 27.7655 34.1435 27.7655H35.326Z" fill="#CB1B1B"/>
<path d="M36.4629 27.7655C36.4993 27.7655 36.5266 27.8251 36.5448 27.9443C36.566 28.0634 36.5766 28.1783 36.5766 28.289V28.3358C36.5766 28.4521 36.566 28.5713 36.5448 28.6933C36.5266 28.8125 36.4993 28.872 36.4629 28.872H35.2805C35.2441 28.872 35.2168 28.8125 35.1986 28.6933C35.1774 28.5713 35.1668 28.4521 35.1668 28.3358V28.289C35.1668 28.1783 35.1774 28.0634 35.1986 27.9443C35.2168 27.8251 35.2441 27.7655 35.2805 27.7655H36.4629Z" fill="#CB1B1B"/>
<path d="M37.5999 27.7655C37.6363 27.7655 37.6636 27.8251 37.6818 27.9443C37.703 28.0634 37.7136 28.1783 37.7136 28.289V28.3358C37.7136 28.4521 37.703 28.5713 37.6818 28.6933C37.6636 28.8125 37.6363 28.872 37.5999 28.872H36.4174C36.3811 28.872 36.3538 28.8125 36.3356 28.6933C36.3144 28.5713 36.3037 28.4521 36.3037 28.3358V28.289C36.3037 28.1783 36.3144 28.0634 36.3356 27.9443C36.3538 27.8251 36.3811 27.7655 36.4174 27.7655H37.5999Z" fill="#CB1B1B"/>
<path d="M38.7369 27.7655C38.7732 27.7655 38.8005 27.8251 38.8187 27.9443C38.8399 28.0634 38.8506 28.1783 38.8506 28.289V28.3358C38.8506 28.4521 38.8399 28.5713 38.8187 28.6933C38.8005 28.8125 38.7732 28.872 38.7369 28.872H37.5544C37.518 28.872 37.4907 28.8125 37.4726 28.6933C37.4513 28.5713 37.4407 28.4521 37.4407 28.3358V28.289C37.4407 28.1783 37.4513 28.0634 37.4726 27.9443C37.4907 27.8251 37.518 27.7655 37.5544 27.7655H38.7369Z" fill="#CB1B1B"/>
<path d="M39.8738 27.7655C39.9102 27.7655 39.9375 27.8251 39.9557 27.9443C39.9769 28.0634 39.9875 28.1783 39.9875 28.289V28.3358C39.9875 28.4521 39.9769 28.5713 39.9557 28.6933C39.9375 28.8125 39.9102 28.872 39.8738 28.872H38.6914C38.655 28.872 38.6277 28.8125 38.6095 28.6933C38.5883 28.5713 38.5777 28.4521 38.5777 28.3358V28.289C38.5777 28.1783 38.5883 28.0634 38.6095 27.9443C38.6277 27.8251 38.655 27.7655 38.6914 27.7655H39.8738Z" fill="#CB1B1B"/>
<path d="M43.5394 28.872H43.4485C42.8663 28.872 42.4267 28.7117 42.1296 28.3911C41.7839 28.7117 41.2761 28.872 40.606 28.872H39.8283C39.792 28.872 39.7647 28.8125 39.7465 28.6933C39.7253 28.5713 39.7147 28.4521 39.7147 28.3358V28.289C39.7147 28.1783 39.7253 28.0634 39.7465 27.9443C39.7677 27.8251 39.795 27.7655 39.8283 27.7655H40.6288C40.9744 27.7655 41.2124 27.7144 41.3428 27.6123C41.4762 27.5102 41.5429 27.3413 41.5429 27.1058V25.8376H42.6844V27.1058C42.6844 27.3527 42.736 27.5243 42.839 27.6208C42.9452 27.7173 43.1468 27.7655 43.4439 27.7655H43.5394C43.5728 27.7655 43.6 27.8251 43.6213 27.9443C43.6425 28.0634 43.6531 28.1783 43.6531 28.289V28.3358C43.6531 28.4521 43.6425 28.5713 43.6213 28.6933C43.6031 28.8125 43.5758 28.872 43.5394 28.872ZM41.0881 24.3353L41.8703 23.6032L42.6526 24.3353L41.8703 25.0673L41.0881 24.3353Z" fill="#CB1B1B"/>
<path d="M44.8083 30.2808L45.5723 29.5615L46.3409 30.2808C46.3227 30.2978 46.3045 30.3162 46.2863 30.3361C46.2469 30.373 46.1408 30.4708 45.968 30.6297C45.7952 30.7915 45.6633 30.9149 45.5723 31L44.8083 30.2808ZM43.1619 30.2808L43.9305 29.5615L44.6946 30.2808L43.9305 31L43.1619 30.2808ZM47.5415 28.872H47.446C46.8578 28.872 46.4182 28.7132 46.1272 28.3954C45.7876 28.7132 45.2797 28.872 44.6036 28.872H43.5076C43.4712 28.872 43.4439 28.8125 43.4257 28.6933C43.4045 28.5713 43.3939 28.4521 43.3939 28.3358V28.289C43.3939 28.1783 43.4045 28.0634 43.4257 27.9443C43.4469 27.8251 43.4742 27.7655 43.5076 27.7655H44.6264C44.972 27.7655 45.21 27.7144 45.3404 27.6123C45.4738 27.5102 45.5405 27.3413 45.5405 27.1058V25.8376H46.682V27.1058C46.682 27.3527 46.7335 27.5243 46.8366 27.6208C46.9427 27.7173 47.1444 27.7655 47.4415 27.7655H47.5415C47.5749 27.7655 47.6022 27.8251 47.6234 27.9443C47.6446 28.0634 47.6552 28.1783 47.6552 28.289V28.3358C47.6552 28.4521 47.6446 28.5713 47.6234 28.6933C47.6052 28.8125 47.5779 28.872 47.5415 28.872Z" fill="#CB1B1B"/>
<path d="M49.1469 23.982L49.9292 23.25L50.7114 23.982L49.9292 24.714L49.1469 23.982ZM52.1895 28.872H51.571C51.3011 28.872 51.0237 28.8465 50.7387 28.7954C50.4537 28.7415 50.1914 28.6593 49.9519 28.5486C49.482 28.7642 48.9408 28.872 48.3283 28.872H47.4961C47.4597 28.872 47.4324 28.8125 47.4142 28.6933C47.393 28.5713 47.3824 28.4521 47.3824 28.3358V28.289C47.3824 28.1783 47.393 28.0634 47.4142 27.9443C47.4354 27.8251 47.4627 27.7655 47.4961 27.7655H48.4602C48.2722 27.4988 48.1782 27.1995 48.1782 26.8675C48.1782 26.3965 48.3511 25.9993 48.6967 25.6759C49.0423 25.3496 49.4653 25.1864 49.9656 25.1864C50.4628 25.1864 50.8842 25.3482 51.2299 25.6716C51.5755 25.9922 51.7483 26.3894 51.7483 26.8633C51.7483 27.1981 51.6558 27.4988 51.4709 27.7655H52.1895C52.2228 27.7655 52.2501 27.8251 52.2713 27.9443C52.2925 28.0634 52.3032 28.1783 52.3032 28.289V28.3358C52.3032 28.4521 52.2925 28.5713 52.2713 28.6933C52.2531 28.8125 52.2258 28.872 52.1895 28.872ZM50.6204 26.8718C50.6204 26.7044 50.5583 26.5625 50.434 26.4462C50.3097 26.3299 50.152 26.2717 49.961 26.2717C49.7639 26.2717 49.6032 26.3284 49.4789 26.4419C49.3577 26.5526 49.297 26.6959 49.297 26.8718C49.297 27.0335 49.3622 27.1739 49.4926 27.2931C49.626 27.4123 49.7821 27.4719 49.961 27.4719C50.1399 27.4719 50.2945 27.4137 50.4249 27.2974C50.5553 27.1782 50.6204 27.0363 50.6204 26.8718Z" fill="#CB1B1B"/>
<path d="M56.8374 28.872H56.2189C55.949 28.872 55.6716 28.8465 55.3866 28.7954C55.1016 28.7415 54.8394 28.6593 54.5998 28.5486C54.1299 28.7642 53.5887 28.872 52.9762 28.872H52.144C52.1076 28.872 52.0803 28.8125 52.0621 28.6933C52.0409 28.5713 52.0303 28.4521 52.0303 28.3358V28.289C52.0303 28.1783 52.0409 28.0634 52.0621 27.9443C52.0833 27.8251 52.1106 27.7655 52.144 27.7655H53.1081C52.9202 27.4988 52.8262 27.1995 52.8262 26.8675C52.8262 26.3965 52.999 25.9993 53.3446 25.6759C53.6903 25.3496 54.1132 25.1864 54.6135 25.1864C55.1107 25.1864 55.5322 25.3482 55.8778 25.6716C56.2234 25.9922 56.3962 26.3894 56.3962 26.8633C56.3962 27.1981 56.3038 27.4988 56.1188 27.7655H56.8374C56.8707 27.7655 56.898 27.8251 56.9193 27.9443C56.9405 28.0634 56.9511 28.1783 56.9511 28.289V28.3358C56.9511 28.4521 56.9405 28.5713 56.9193 28.6933C56.9011 28.8125 56.8738 28.872 56.8374 28.872ZM55.2684 26.8718C55.2684 26.7044 55.2062 26.5625 55.0819 26.4462C54.9576 26.3299 54.7999 26.2717 54.6089 26.2717C54.4119 26.2717 54.2512 26.3284 54.1269 26.4419C54.0056 26.5526 53.9449 26.6959 53.9449 26.8718C53.9449 27.0335 54.0101 27.1739 54.1405 27.2931C54.2739 27.4123 54.43 27.4719 54.6089 27.4719C54.7878 27.4719 54.9424 27.4137 55.0728 27.2974C55.2032 27.1782 55.2684 27.0363 55.2684 26.8718ZM54.5998 23.9778L55.3639 23.2585L56.1325 23.9778C56.1143 23.9948 56.0961 24.0132 56.0779 24.0331C56.0385 24.07 55.9324 24.1693 55.7595 24.331C55.5867 24.4899 55.4548 24.6119 55.3639 24.697L54.5998 23.9778ZM52.9535 23.9778L53.7221 23.2585L54.4861 23.9778L53.7221 24.697L52.9535 23.9778Z" fill="#CB1B1B"/>
<path d="M56.7919 27.7655H57.224C57.5423 27.7655 57.7712 27.713 57.9107 27.608C58.0502 27.5002 58.1199 27.3342 58.1199 27.1101V25.8333H59.2614V26.0036L59.266 27.1186C59.269 27.3513 59.3205 27.5173 59.4206 27.6166C59.5237 27.7159 59.695 27.7655 59.9345 27.7655C60.1558 27.7655 60.3165 27.7159 60.4166 27.6166C60.5196 27.5144 60.5712 27.347 60.5712 27.1144L60.5757 26.0036V25.8333H61.7127V26.0036L61.7173 27.1058C61.7203 27.3442 61.7718 27.513 61.8719 27.6123C61.9719 27.7116 62.1341 27.7613 62.3585 27.7613C62.5283 27.7613 62.6511 27.7144 62.7269 27.6208C62.8027 27.5272 62.8406 27.3612 62.8406 27.1229V25.6971H64.0003V27.1569C64.0003 27.6875 63.8578 28.106 63.5728 28.4124C63.2878 28.7188 62.8921 28.872 62.3858 28.872C61.8613 28.872 61.4565 28.7132 61.1715 28.3954C60.8835 28.7132 60.4651 28.872 59.9163 28.872C59.41 28.872 59.0067 28.7089 58.7066 28.3826C58.3821 28.7089 57.8864 28.872 57.2194 28.872H56.7919C56.7555 28.872 56.7282 28.8125 56.71 28.6933C56.6888 28.5713 56.6782 28.4521 56.6782 28.3358V28.289C56.6782 28.1783 56.6888 28.0634 56.71 27.9443C56.7313 27.8251 56.7586 27.7655 56.7919 27.7655Z" fill="#CB1B1B"/>
<path d="M37.5451 0H44.8656L24.531 22.7433H17.2105L37.5451 0Z" fill="#CB1B1B"/>
<path d="M45.6975 0.187651L41.3348 5.06659L56.6782 22.7433H63.9986L45.6975 0.187651Z" fill="#CB1B1B"/>
<path d="M20.3346 0H27.6551L7.32047 22.7433H0L20.3346 0Z" fill="#CB1B1B"/>
<path d="M29.1155 0H36.436L7.96748 31H0.647011L29.1155 0Z" fill="#9E1515"/>
</svg>
