<svg width="20" height="20" viewBox="0 0 20 20" fill="none" xmlns="http://www.w3.org/2000/svg">
<path d="M10.0003 18.9584C9.35033 18.9584 8.71699 18.625 8.28366 18.0417L7.44199 16.9167C7.26699 16.6834 7.03366 16.55 6.78366 16.5334C6.53366 16.525 6.28366 16.6334 6.08366 16.8417L5.60866 16.4167L6.06699 16.8417C4.86699 18.125 3.94199 18.025 3.50033 17.85C3.05033 17.675 2.29199 17.1 2.29199 15.25V5.86669C2.29199 2.16669 3.35866 1.04169 6.85033 1.04169H13.1503C16.642 1.04169 17.7087 2.16669 17.7087 5.86669V15.25C17.7087 17.0917 16.9503 17.6667 16.5003 17.85C16.0587 18.025 15.142 18.125 13.9337 16.8417C13.7337 16.625 13.4837 16.5084 13.2253 16.5334C12.9753 16.55 12.7337 16.6834 12.5587 16.9167L11.717 18.0417C11.2837 18.625 10.6503 18.9584 10.0003 18.9584ZM6.73366 15.275C6.76699 15.275 6.80866 15.275 6.84199 15.275C7.45866 15.3084 8.04199 15.6334 8.43366 16.1584L9.27533 17.2834C9.68366 17.825 10.3087 17.825 10.717 17.2834L11.5587 16.1584C11.9587 15.6334 12.5337 15.3084 13.1587 15.275C13.7753 15.2417 14.392 15.5 14.842 15.9834C15.4753 16.6584 15.8837 16.7417 16.0337 16.6834C16.2337 16.6 16.4503 16.1167 16.4503 15.25V5.86669C16.4503 2.85835 15.9253 2.29169 13.142 2.29169H6.85033C4.06699 2.29169 3.54199 2.85835 3.54199 5.86669V15.25C3.54199 16.125 3.75866 16.6084 3.95866 16.6834C4.10033 16.7417 4.51699 16.6584 5.15033 15.9834C5.60033 15.525 6.15866 15.275 6.73366 15.275Z" fill="#505050"/>
<path d="M13.5247 9.79169H8.94141C8.59974 9.79169 8.31641 9.50835 8.31641 9.16669C8.31641 8.82502 8.59974 8.54169 8.94141 8.54169H13.5247C13.8664 8.54169 14.1497 8.82502 14.1497 9.16669C14.1497 9.50835 13.8664 9.79169 13.5247 9.79169Z" fill="#505050"/>
<path d="M13.5247 6.45831H8.94141C8.59974 6.45831 8.31641 6.17498 8.31641 5.83331C8.31641 5.49165 8.59974 5.20831 8.94141 5.20831H13.5247C13.8664 5.20831 14.1497 5.49165 14.1497 5.83331C14.1497 6.17498 13.8664 6.45831 13.5247 6.45831Z" fill="#505050"/>
<path d="M6.48372 6.66667C6.02539 6.66667 5.65039 6.29167 5.65039 5.83333C5.65039 5.375 6.02539 5 6.48372 5C6.94206 5 7.31706 5.375 7.31706 5.83333C7.31706 6.29167 6.94206 6.66667 6.48372 6.66667Z" fill="#505050"/>
<path d="M6.48372 9.99998C6.02539 9.99998 5.65039 9.62498 5.65039 9.16665C5.65039 8.70831 6.02539 8.33331 6.48372 8.33331C6.94206 8.33331 7.31706 8.70831 7.31706 9.16665C7.31706 9.62498 6.94206 9.99998 6.48372 9.99998Z" fill="#505050"/>
</svg>
