<svg width="20" height="20" viewBox="0 0 20 20" fill="none" xmlns="http://www.w3.org/2000/svg">
<path d="M14.9999 6.59169C14.9749 6.59169 14.9583 6.59169 14.9333 6.59169H14.8916C13.3166 6.54169 12.1416 5.32502 12.1416 3.82502C12.1416 2.29169 13.3916 1.05002 14.9166 1.05002C16.4416 1.05002 17.6916 2.30002 17.6916 3.82502C17.6833 5.33335 16.5083 6.55002 15.0083 6.60002C15.0083 6.59169 15.0083 6.59169 14.9999 6.59169ZM14.9166 2.29169C14.0749 2.29169 13.3916 2.97502 13.3916 3.81669C13.3916 4.64169 14.0333 5.30836 14.8583 5.34169C14.8666 5.33336 14.9333 5.33336 15.0083 5.34169C15.8166 5.30003 16.4416 4.63336 16.4499 3.81669C16.4499 2.97502 15.7666 2.29169 14.9166 2.29169Z" fill="#505050"/>
<path d="M15.0087 12.7333C14.6837 12.7333 14.3587 12.7083 14.0337 12.65C13.6921 12.5917 13.4671 12.2667 13.5254 11.925C13.5837 11.5833 13.9087 11.3583 14.2504 11.4167C15.2754 11.5917 16.3587 11.4 17.0837 10.9167C17.4754 10.6584 17.6837 10.3333 17.6837 10.0083C17.6837 9.68334 17.4671 9.36667 17.0837 9.10834C16.3587 8.62501 15.2587 8.43334 14.2254 8.61668C13.8837 8.68334 13.5587 8.45001 13.5004 8.10834C13.4421 7.76668 13.6671 7.44168 14.0087 7.38335C15.3671 7.14168 16.7754 7.40001 17.7754 8.06667C18.5087 8.55834 18.9337 9.25834 18.9337 10.0083C18.9337 10.75 18.5171 11.4584 17.7754 11.9584C17.0171 12.4584 16.0337 12.7333 15.0087 12.7333Z" fill="#505050"/>
<path d="M4.97539 6.59166C4.96706 6.59166 4.95873 6.59166 4.95873 6.59166C3.45873 6.54166 2.28372 5.32499 2.27539 3.82499C2.27539 2.29165 3.52539 1.04166 5.05039 1.04166C6.57539 1.04166 7.82539 2.29166 7.82539 3.81666C7.82539 5.32499 6.65039 6.54166 5.15039 6.59166L4.97539 5.96666L5.03373 6.59166C5.01706 6.59166 4.99206 6.59166 4.97539 6.59166ZM5.05872 5.34166C5.10872 5.34166 5.15039 5.34165 5.20039 5.34999C5.94206 5.31665 6.59206 4.64999 6.59206 3.82499C6.59206 2.98332 5.90873 2.29999 5.06706 2.29999C4.22539 2.29999 3.54206 2.98332 3.54206 3.82499C3.54206 4.64165 4.17539 5.29999 4.98372 5.34999C4.99206 5.34165 5.02539 5.34166 5.05872 5.34166Z" fill="#505050"/>
<path d="M4.96699 12.7333C3.94199 12.7333 2.95866 12.4584 2.20033 11.9584C1.46699 11.4667 1.04199 10.7583 1.04199 10.0083C1.04199 9.26668 1.46699 8.55834 2.20033 8.06667C3.20033 7.40001 4.60866 7.14168 5.96699 7.38335C6.30866 7.44168 6.53366 7.76668 6.47533 8.10834C6.41699 8.45001 6.09199 8.68334 5.75033 8.61668C4.71699 8.43334 3.62533 8.62501 2.89199 9.10834C2.50033 9.36667 2.29199 9.68334 2.29199 10.0083C2.29199 10.3333 2.50866 10.6584 2.89199 10.9167C3.61699 11.4 4.70032 11.5917 5.72532 11.4167C6.06699 11.3583 6.39199 11.5917 6.45033 11.925C6.50866 12.2667 6.28366 12.5917 5.94199 12.65C5.61699 12.7083 5.29199 12.7333 4.96699 12.7333Z" fill="#505050"/>
<path d="M9.99994 12.8167C9.97494 12.8167 9.95827 12.8167 9.93327 12.8167H9.8916C8.3166 12.7667 7.1416 11.55 7.1416 10.05C7.1416 8.51666 8.3916 7.27499 9.9166 7.27499C11.4416 7.27499 12.6916 8.525 12.6916 10.05C12.6833 11.5583 11.5083 12.775 10.0083 12.825C10.0083 12.8167 10.0083 12.8167 9.99994 12.8167ZM9.9166 8.51666C9.07494 8.51666 8.3916 9.2 8.3916 10.0417C8.3916 10.8667 9.03327 11.5333 9.85827 11.5667C9.8666 11.5583 9.93327 11.5583 10.0083 11.5667C10.8166 11.525 11.4416 10.8583 11.4499 10.0417C11.4499 9.20833 10.7666 8.51666 9.9166 8.51666Z" fill="#505050"/>
<path d="M9.99974 18.9667C8.99974 18.9667 7.99974 18.7083 7.22474 18.1833C6.49141 17.6917 6.06641 16.9917 6.06641 16.2417C6.06641 15.5 6.48307 14.7833 7.22474 14.2917C8.78307 13.2583 11.2247 13.2583 12.7747 14.2917C13.5081 14.7833 13.9331 15.4833 13.9331 16.2333C13.9331 16.975 13.5164 17.6917 12.7747 18.1833C11.9997 18.7 10.9997 18.9667 9.99974 18.9667ZM7.91641 15.3417C7.52474 15.6 7.31641 15.925 7.31641 16.25C7.31641 16.575 7.53307 16.8917 7.91641 17.15C9.04141 17.9083 10.9497 17.9083 12.0747 17.15C12.4664 16.8917 12.6747 16.5667 12.6747 16.2417C12.6747 15.9167 12.4581 15.6 12.0747 15.3417C10.9581 14.5833 9.04974 14.5917 7.91641 15.3417Z" fill="#505050"/>
</svg>
