<svg width="20" height="20" viewBox="0 0 20 20" fill="none" xmlns="http://www.w3.org/2000/svg">
<path d="M18.3337 18.9583H1.66699C1.32533 18.9583 1.04199 18.675 1.04199 18.3333C1.04199 17.9917 1.32533 17.7083 1.66699 17.7083H18.3337C18.6753 17.7083 18.9587 17.9917 18.9587 18.3333C18.9587 18.675 18.6753 18.9583 18.3337 18.9583Z" fill="#505050"/>
<path d="M3.08398 18.3333H1.83398L1.87565 8.30829C1.87565 7.59995 2.20065 6.94164 2.75898 6.50831L8.59232 1.96663C9.41732 1.32497 10.5756 1.32497 11.409 1.96663L17.2423 6.49997C17.7923 6.9333 18.1257 7.60829 18.1257 8.30829V18.3333H16.8757V8.31663C16.8757 7.99996 16.7257 7.69164 16.4757 7.49164L10.6423 2.9583C10.2673 2.66663 9.74232 2.66663 9.35898 2.9583L3.52565 7.49998C3.27565 7.69164 3.12565 7.99996 3.12565 8.31663L3.08398 18.3333Z" fill="#505050"/>
<path d="M12.0837 18.9583H7.91699C7.57533 18.9583 7.29199 18.675 7.29199 18.3333V15.4167C7.29199 14.3833 8.13366 13.5417 9.16699 13.5417H10.8337C11.867 13.5417 12.7087 14.3833 12.7087 15.4167V18.3333C12.7087 18.675 12.4253 18.9583 12.0837 18.9583ZM8.54199 17.7083H11.4587V15.4167C11.4587 15.075 11.1753 14.7917 10.8337 14.7917H9.16699C8.82533 14.7917 8.54199 15.075 8.54199 15.4167V17.7083Z" fill="#505050"/>
<path d="M7.91699 12.0833H6.25033C5.45033 12.0833 4.79199 11.425 4.79199 10.625V9.37499C4.79199 8.57499 5.45033 7.91666 6.25033 7.91666H7.91699C8.71699 7.91666 9.37533 8.57499 9.37533 9.37499V10.625C9.37533 11.425 8.71699 12.0833 7.91699 12.0833ZM6.25033 9.16666C6.13366 9.16666 6.04199 9.25832 6.04199 9.37499V10.625C6.04199 10.7417 6.13366 10.8333 6.25033 10.8333H7.91699C8.03366 10.8333 8.12533 10.7417 8.12533 10.625V9.37499C8.12533 9.25832 8.03366 9.16666 7.91699 9.16666H6.25033Z" fill="#505050"/>
<path d="M13.75 12.0833H12.0833C11.2833 12.0833 10.625 11.425 10.625 10.625V9.37499C10.625 8.57499 11.2833 7.91666 12.0833 7.91666H13.75C14.55 7.91666 15.2083 8.57499 15.2083 9.37499V10.625C15.2083 11.425 14.55 12.0833 13.75 12.0833ZM12.0833 9.16666C11.9667 9.16666 11.875 9.25832 11.875 9.37499V10.625C11.875 10.7417 11.9667 10.8333 12.0833 10.8333H13.75C13.8667 10.8333 13.9583 10.7417 13.9583 10.625V9.37499C13.9583 9.25832 13.8667 9.16666 13.75 9.16666H12.0833Z" fill="#505050"/>
<path d="M15.8337 6.45834C15.4921 6.45834 15.2087 6.18335 15.2087 5.84169L15.1921 3.95834H12.1504C11.8087 3.95834 11.5254 3.67501 11.5254 3.33334C11.5254 2.99168 11.8087 2.70834 12.1504 2.70834H15.8171C16.1587 2.70834 16.4421 2.98334 16.4421 3.325L16.4671 5.825C16.4587 6.175 16.1837 6.45834 15.8337 6.45834C15.8421 6.45834 15.8337 6.45834 15.8337 6.45834Z" fill="#505050"/>
</svg>
