<svg width="183" height="87" viewBox="0 0 183 87" fill="none" xmlns="http://www.w3.org/2000/svg">
<path d="M48.9934 81.028H47.667C47.5456 82.7798 46.7827 84.1454 45.3782 85.1248C43.9825 86.1122 42.0709 86.6058 39.6435 86.6058H38.161V83.5482H39.5654C42.5304 83.5482 44.1385 82.7081 44.3899 81.028H42.8425C41.2126 81.028 39.9642 80.6418 39.0973 79.8694C38.2303 79.0891 37.7969 77.9664 37.7969 76.5012C37.7969 75.7846 37.9009 75.1237 38.109 74.5185C38.3257 73.9054 38.6378 73.3679 39.0453 72.9061C39.4614 72.4363 39.9902 72.07 40.6318 71.8072C41.282 71.5445 42.0145 71.4131 42.8295 71.4131C44.3466 71.4131 45.5343 71.867 46.3926 72.7747C47.2508 73.6825 47.68 74.8888 47.68 76.3937V77.9226H48.9934C49.0887 77.9226 49.1668 78.0898 49.2275 78.4242C49.2881 78.7586 49.3185 79.0811 49.3185 79.3917V79.5231C49.3185 79.8495 49.2881 80.184 49.2275 80.5264C49.1754 80.8608 49.0974 81.028 48.9934 81.028ZM41.0089 76.4535C41.0089 76.979 41.1433 77.3572 41.412 77.5881C41.6894 77.8111 42.1619 77.9226 42.8295 77.9226H44.442V76.3818C44.442 75.0759 43.8871 74.423 42.7774 74.423C41.5984 74.423 41.0089 75.0998 41.0089 76.4535Z" fill="#CB1B1B"/>
<path d="M52.2444 77.9226C52.3484 77.9226 52.4265 78.0898 52.4785 78.4242C52.5392 78.7586 52.5695 79.0811 52.5695 79.3917V79.5231C52.5695 79.8495 52.5392 80.184 52.4785 80.5264C52.4265 80.8608 52.3484 81.028 52.2444 81.028H48.8633C48.7593 81.028 48.6813 80.8608 48.6293 80.5264C48.5686 80.184 48.5382 79.8495 48.5382 79.5231V79.3917C48.5382 79.0811 48.5686 78.7586 48.6293 78.4242C48.6813 78.0898 48.7593 77.9226 48.8633 77.9226H52.2444Z" fill="#CB1B1B"/>
<path d="M55.4954 77.9226C55.5994 77.9226 55.6775 78.0898 55.7295 78.4242C55.7902 78.7586 55.8205 79.0811 55.8205 79.3917V79.5231C55.8205 79.8495 55.7902 80.184 55.7295 80.5264C55.6775 80.8608 55.5994 81.028 55.4954 81.028H52.1144C52.0103 81.028 51.9323 80.8608 51.8803 80.5264C51.8196 80.184 51.7893 79.8495 51.7893 79.5231V79.3917C51.7893 79.0811 51.8196 78.7586 51.8803 78.4242C51.9323 78.0898 52.0103 77.9226 52.1144 77.9226H55.4954Z" fill="#CB1B1B"/>
<path d="M58.7464 77.9226C58.8505 77.9226 58.9285 78.0898 58.9805 78.4242C59.0412 78.7586 59.0715 79.0811 59.0715 79.3917V79.5231C59.0715 79.8495 59.0412 80.184 58.9805 80.5264C58.9285 80.8608 58.8505 81.028 58.7464 81.028H55.3654C55.2613 81.028 55.1833 80.8608 55.1313 80.5264C55.0706 80.184 55.0403 79.8495 55.0403 79.5231V79.3917C55.0403 79.0811 55.0706 78.7586 55.1313 78.4242C55.1833 78.0898 55.2613 77.9226 55.3654 77.9226H58.7464Z" fill="#CB1B1B"/>
<path d="M61.9974 77.9226C62.1015 77.9226 62.1795 78.0898 62.2315 78.4242C62.2922 78.7586 62.3225 79.0811 62.3225 79.3917V79.5231C62.3225 79.8495 62.2922 80.184 62.2315 80.5264C62.1795 80.8608 62.1015 81.028 61.9974 81.028H58.6164C58.5124 81.028 58.4343 80.8608 58.3823 80.5264C58.3216 80.184 58.2913 79.8495 58.2913 79.5231V79.3917C58.2913 79.0811 58.3216 78.7586 58.3823 78.4242C58.4343 78.0898 58.5124 77.9226 58.6164 77.9226H61.9974Z" fill="#CB1B1B"/>
<path d="M65.2485 77.9226C65.3525 77.9226 65.4305 78.0898 65.4825 78.4242C65.5432 78.7586 65.5736 79.0811 65.5736 79.3917V79.5231C65.5736 79.8495 65.5432 80.184 65.4825 80.5264C65.4305 80.8608 65.3525 81.028 65.2485 81.028H61.8674C61.7634 81.028 61.6854 80.8608 61.6333 80.5264C61.5726 80.184 61.5423 79.8495 61.5423 79.5231V79.3917C61.5423 79.0811 61.5726 78.7586 61.6333 78.4242C61.6854 78.0898 61.7634 77.9226 61.8674 77.9226H65.2485Z" fill="#CB1B1B"/>
<path d="M68.4995 77.9226C68.6035 77.9226 68.6815 78.0898 68.7336 78.4242C68.7942 78.7586 68.8246 79.0811 68.8246 79.3917V79.5231C68.8246 79.8495 68.7942 80.184 68.7336 80.5264C68.6815 80.8608 68.6035 81.028 68.4995 81.028H65.1184C65.0144 81.028 64.9364 80.8608 64.8844 80.5264C64.8237 80.184 64.7933 79.8495 64.7933 79.5231V79.3917C64.7933 79.0811 64.8237 78.7586 64.8844 78.4242C64.9364 78.0898 65.0144 77.9226 65.1184 77.9226H68.4995Z" fill="#CB1B1B"/>
<path d="M71.7505 77.9226C71.8545 77.9226 71.9326 78.0898 71.9846 78.4242C72.0453 78.7586 72.0756 79.0811 72.0756 79.3917V79.5231C72.0756 79.8495 72.0453 80.184 71.9846 80.5264C71.9326 80.8608 71.8545 81.028 71.7505 81.028H68.3694C68.2654 81.028 68.1874 80.8608 68.1354 80.5264C68.0747 80.184 68.0443 79.8495 68.0443 79.5231V79.3917C68.0443 79.0811 68.0747 78.7586 68.1354 78.4242C68.1874 78.0898 68.2654 77.9226 68.3694 77.9226H71.7505Z" fill="#CB1B1B"/>
<path d="M75.0015 77.9226C75.1056 77.9226 75.1836 78.0898 75.2356 78.4242C75.2963 78.7586 75.3266 79.0811 75.3266 79.3917V79.5231C75.3266 79.8495 75.2963 80.184 75.2356 80.5264C75.1836 80.8608 75.1056 81.028 75.0015 81.028H71.6205C71.5164 81.028 71.4384 80.8608 71.3864 80.5264C71.3257 80.184 71.2954 79.8495 71.2954 79.5231V79.3917C71.2954 79.0811 71.3257 78.7586 71.3864 78.4242C71.4384 78.0898 71.5164 77.9226 71.6205 77.9226H75.0015Z" fill="#CB1B1B"/>
<path d="M78.2525 77.9226C78.3566 77.9226 78.4346 78.0898 78.4866 78.4242C78.5473 78.7586 78.5776 79.0811 78.5776 79.3917V79.5231C78.5776 79.8495 78.5473 80.184 78.4866 80.5264C78.4346 80.8608 78.3566 81.028 78.2525 81.028H74.8715C74.7674 81.028 74.6894 80.8608 74.6374 80.5264C74.5767 80.184 74.5464 79.8495 74.5464 79.5231V79.3917C74.5464 79.0811 74.5767 78.7586 74.6374 78.4242C74.6894 78.0898 74.7674 77.9226 74.8715 77.9226H78.2525Z" fill="#CB1B1B"/>
<path d="M81.5036 77.9226C81.6076 77.9226 81.6856 78.0898 81.7376 78.4242C81.7983 78.7586 81.8287 79.0811 81.8287 79.3917V79.5231C81.8287 79.8495 81.7983 80.184 81.7376 80.5264C81.6856 80.8608 81.6076 81.028 81.5036 81.028H78.1225C78.0185 81.028 77.9404 80.8608 77.8884 80.5264C77.8277 80.184 77.7974 79.8495 77.7974 79.5231V79.3917C77.7974 79.0811 77.8277 78.7586 77.8884 78.4242C77.9404 78.0898 78.0185 77.9226 78.1225 77.9226H81.5036Z" fill="#CB1B1B"/>
<path d="M84.7546 77.9226C84.8586 77.9226 84.9366 78.0898 84.9886 78.4242C85.0493 78.7586 85.0797 79.0811 85.0797 79.3917V79.5231C85.0797 79.8495 85.0493 80.184 84.9886 80.5264C84.9366 80.8608 84.8586 81.028 84.7546 81.028H81.3735C81.2695 81.028 81.1915 80.8608 81.1394 80.5264C81.0788 80.184 81.0484 79.8495 81.0484 79.5231V79.3917C81.0484 79.0811 81.0788 78.7586 81.1394 78.4242C81.1915 78.0898 81.2695 77.9226 81.3735 77.9226H84.7546Z" fill="#CB1B1B"/>
<path d="M88.0056 77.9226C88.1096 77.9226 88.1876 78.0898 88.2397 78.4242C88.3003 78.7586 88.3307 79.0811 88.3307 79.3917V79.5231C88.3307 79.8495 88.3003 80.184 88.2397 80.5264C88.1876 80.8608 88.1096 81.028 88.0056 81.028H84.6245C84.5205 81.028 84.4425 80.8608 84.3905 80.5264C84.3298 80.184 84.2994 79.8495 84.2994 79.5231V79.3917C84.2994 79.0811 84.3298 78.7586 84.3905 78.4242C84.4425 78.0898 84.5205 77.9226 84.6245 77.9226H88.0056Z" fill="#CB1B1B"/>
<path d="M91.2566 77.9226C91.3606 77.9226 91.4387 78.0898 91.4907 78.4242C91.5514 78.7586 91.5817 79.0811 91.5817 79.3917V79.5231C91.5817 79.8495 91.5514 80.184 91.4907 80.5264C91.4387 80.8608 91.3606 81.028 91.2566 81.028H87.8755C87.7715 81.028 87.6935 80.8608 87.6415 80.5264C87.5808 80.184 87.5504 79.8495 87.5504 79.5231V79.3917C87.5504 79.0811 87.5808 78.7586 87.6415 78.4242C87.6935 78.0898 87.7715 77.9226 87.8755 77.9226H91.2566Z" fill="#CB1B1B"/>
<path d="M94.5076 77.9226C94.6117 77.9226 94.6897 78.0898 94.7417 78.4242C94.8024 78.7586 94.8327 79.0811 94.8327 79.3917V79.5231C94.8327 79.8495 94.8024 80.184 94.7417 80.5264C94.6897 80.8608 94.6117 81.028 94.5076 81.028H91.1266C91.0225 81.028 90.9445 80.8608 90.8925 80.5264C90.8318 80.184 90.8015 79.8495 90.8015 79.5231V79.3917C90.8015 79.0811 90.8318 78.7586 90.8925 78.4242C90.9445 78.0898 91.0225 77.9226 91.1266 77.9226H94.5076Z" fill="#CB1B1B"/>
<path d="M97.7586 77.9226C97.8627 77.9226 97.9407 78.0898 97.9927 78.4242C98.0534 78.7586 98.0837 79.0811 98.0837 79.3917V79.5231C98.0837 79.8495 98.0534 80.184 97.9927 80.5264C97.9407 80.8608 97.8627 81.028 97.7586 81.028H94.3776C94.2736 81.028 94.1955 80.8608 94.1435 80.5264C94.0828 80.184 94.0525 79.8495 94.0525 79.5231V79.3917C94.0525 79.0811 94.0828 78.7586 94.1435 78.4242C94.1955 78.0898 94.2736 77.9226 94.3776 77.9226H97.7586Z" fill="#CB1B1B"/>
<path d="M101.01 77.9226C101.114 77.9226 101.192 78.0898 101.244 78.4242C101.304 78.7586 101.335 79.0811 101.335 79.3917V79.5231C101.335 79.8495 101.304 80.184 101.244 80.5264C101.192 80.8608 101.114 81.028 101.01 81.028H97.6286C97.5246 81.028 97.4465 80.8608 97.3945 80.5264C97.3338 80.184 97.3035 79.8495 97.3035 79.5231V79.3917C97.3035 79.0811 97.3338 78.7586 97.3945 78.4242C97.4465 78.0898 97.5246 77.9226 97.6286 77.9226H101.01Z" fill="#CB1B1B"/>
<path d="M104.261 77.9226C104.365 77.9226 104.443 78.0898 104.495 78.4242C104.555 78.7586 104.586 79.0811 104.586 79.3917V79.5231C104.586 79.8495 104.555 80.184 104.495 80.5264C104.443 80.8608 104.365 81.028 104.261 81.028H100.88C100.776 81.028 100.698 80.8608 100.646 80.5264C100.585 80.184 100.555 79.8495 100.555 79.5231V79.3917C100.555 79.0811 100.585 78.7586 100.646 78.4242C100.698 78.0898 100.776 77.9226 100.88 77.9226H104.261Z" fill="#CB1B1B"/>
<path d="M107.512 77.9226C107.616 77.9226 107.694 78.0898 107.746 78.4242C107.806 78.7586 107.837 79.0811 107.837 79.3917V79.5231C107.837 79.8495 107.806 80.184 107.746 80.5264C107.694 80.8608 107.616 81.028 107.512 81.028H104.131C104.027 81.028 103.949 80.8608 103.897 80.5264C103.836 80.184 103.806 79.8495 103.806 79.5231V79.3917C103.806 79.0811 103.836 78.7586 103.897 78.4242C103.949 78.0898 104.027 77.9226 104.131 77.9226H107.512Z" fill="#CB1B1B"/>
<path d="M110.763 77.9226C110.867 77.9226 110.945 78.0898 110.997 78.4242C111.057 78.7586 111.088 79.0811 111.088 79.3917V79.5231C111.088 79.8495 111.057 80.184 110.997 80.5264C110.945 80.8608 110.867 81.028 110.763 81.028H107.382C107.278 81.028 107.2 80.8608 107.148 80.5264C107.087 80.184 107.057 79.8495 107.057 79.5231V79.3917C107.057 79.0811 107.087 78.7586 107.148 78.4242C107.2 78.0898 107.278 77.9226 107.382 77.9226H110.763Z" fill="#CB1B1B"/>
<path d="M114.014 77.9226C114.118 77.9226 114.196 78.0898 114.248 78.4242C114.308 78.7586 114.339 79.0811 114.339 79.3917V79.5231C114.339 79.8495 114.308 80.184 114.248 80.5264C114.196 80.8608 114.118 81.028 114.014 81.028H110.633C110.529 81.028 110.451 80.8608 110.399 80.5264C110.338 80.184 110.308 79.8495 110.308 79.5231V79.3917C110.308 79.0811 110.338 78.7586 110.399 78.4242C110.451 78.0898 110.529 77.9226 110.633 77.9226H114.014Z" fill="#CB1B1B"/>
<path d="M124.495 81.028H124.235C122.57 81.028 121.313 80.5781 120.464 79.6783C119.475 80.5781 118.023 81.028 116.107 81.028H113.884C113.78 81.028 113.702 80.8608 113.65 80.5264C113.589 80.184 113.559 79.8495 113.559 79.5231V79.3917C113.559 79.0811 113.589 78.7586 113.65 78.4242C113.71 78.0898 113.788 77.9226 113.884 77.9226H116.172C117.161 77.9226 117.841 77.7792 118.214 77.4926C118.595 77.2059 118.786 76.7322 118.786 76.0713V72.5119H122.05V76.0713C122.05 76.764 122.198 77.2457 122.492 77.5165C122.796 77.7872 123.372 77.9226 124.222 77.9226H124.495C124.59 77.9226 124.668 78.0898 124.729 78.4242C124.79 78.7586 124.82 79.0811 124.82 79.3917V79.5231C124.82 79.8495 124.79 80.184 124.729 80.5264C124.677 80.8608 124.599 81.028 124.495 81.028ZM117.486 68.2957L119.723 66.2414L121.959 68.2957L119.723 70.3501L117.486 68.2957Z" fill="#CB1B1B"/>
<path d="M128.123 84.9815L130.308 82.9629L132.506 84.9815C132.453 85.0292 132.401 85.081 132.349 85.1367C132.237 85.2403 131.933 85.515 131.439 85.9609C130.945 86.4147 130.568 86.7611 130.308 87L128.123 84.9815ZM123.416 84.9815L125.613 82.9629L127.798 84.9815L125.613 87L123.416 84.9815ZM135.939 81.028H135.666C133.984 81.028 132.727 80.5821 131.894 79.6903C130.923 80.5821 129.471 81.028 127.538 81.028H124.404C124.3 81.028 124.222 80.8608 124.17 80.5264C124.109 80.184 124.079 79.8495 124.079 79.5231V79.3917C124.079 79.0811 124.109 78.7586 124.17 78.4242C124.231 78.0898 124.309 77.9226 124.404 77.9226H127.603C128.591 77.9226 129.272 77.7792 129.645 77.4926C130.026 77.2059 130.217 76.7322 130.217 76.0713V72.5119H133.481V76.0713C133.481 76.764 133.628 77.2457 133.923 77.5165C134.226 77.7872 134.803 77.9226 135.653 77.9226H135.939C136.034 77.9226 136.112 78.0898 136.173 78.4242C136.233 78.7586 136.264 79.0811 136.264 79.3917V79.5231C136.264 79.8495 136.233 80.184 136.173 80.5264C136.121 80.8608 136.043 81.028 135.939 81.028Z" fill="#CB1B1B"/>
<path d="M140.529 67.3044L142.766 65.25L145.002 67.3044L142.766 69.3587L140.529 67.3044ZM149.229 81.028H147.46C146.689 81.028 145.895 80.9563 145.08 80.813C144.266 80.6617 143.516 80.4308 142.831 80.1203C141.487 80.7254 139.94 81.028 138.188 81.028H135.809C135.705 81.028 135.626 80.8608 135.574 80.5264C135.514 80.184 135.483 79.8495 135.483 79.5231V79.3917C135.483 79.0811 135.514 78.7586 135.574 78.4242C135.635 78.0898 135.713 77.9226 135.809 77.9226H138.565C138.028 77.1741 137.759 76.334 137.759 75.4024C137.759 74.0806 138.253 72.9658 139.242 72.0581C140.23 71.1424 141.439 70.6845 142.87 70.6845C144.292 70.6845 145.497 71.1384 146.485 72.0461C147.473 72.9459 147.967 74.0607 147.967 75.3904C147.967 76.33 147.703 77.1741 147.174 77.9226H149.229C149.324 77.9226 149.402 78.0898 149.463 78.4242C149.524 78.7586 149.554 79.0811 149.554 79.3917V79.5231C149.554 79.8495 149.524 80.184 149.463 80.5264C149.411 80.8608 149.333 81.028 149.229 81.028ZM144.742 75.4143C144.742 74.9445 144.565 74.5464 144.209 74.2199C143.854 73.8935 143.403 73.7302 142.857 73.7302C142.293 73.7302 141.834 73.8895 141.478 74.208C141.132 74.5185 140.958 74.9206 140.958 75.4143C140.958 75.8682 141.145 76.2624 141.517 76.5968C141.899 76.9312 142.345 77.0984 142.857 77.0984C143.368 77.0984 143.81 76.9352 144.183 76.6087C144.556 76.2743 144.742 75.8762 144.742 75.4143Z" fill="#CB1B1B"/>
<path d="M162.519 81.028H160.75C159.979 81.028 159.186 80.9563 158.371 80.813C157.556 80.6617 156.806 80.4308 156.121 80.1203C154.777 80.7254 153.23 81.028 151.478 81.028H149.099C148.995 81.028 148.917 80.8608 148.865 80.5264C148.804 80.184 148.774 79.8495 148.774 79.5231V79.3917C148.774 79.0811 148.804 78.7586 148.865 78.4242C148.925 78.0898 149.003 77.9226 149.099 77.9226H151.856C151.318 77.1741 151.049 76.334 151.049 75.4024C151.049 74.0806 151.543 72.9658 152.532 72.0581C153.52 71.1424 154.729 70.6845 156.16 70.6845C157.582 70.6845 158.787 71.1384 159.775 72.0461C160.763 72.9459 161.258 74.0607 161.258 75.3904C161.258 76.33 160.993 77.1741 160.464 77.9226H162.519C162.614 77.9226 162.692 78.0898 162.753 78.4242C162.814 78.7586 162.844 79.0811 162.844 79.3917V79.5231C162.844 79.8495 162.814 80.184 162.753 80.5264C162.701 80.8608 162.623 81.028 162.519 81.028ZM158.033 75.4143C158.033 74.9445 157.855 74.5464 157.499 74.2199C157.144 73.8935 156.693 73.7302 156.147 73.7302C155.583 73.7302 155.124 73.8895 154.768 74.208C154.422 74.5185 154.248 74.9206 154.248 75.4143C154.248 75.8682 154.435 76.2624 154.807 76.5968C155.189 76.9312 155.635 77.0984 156.147 77.0984C156.658 77.0984 157.101 76.9352 157.473 76.6087C157.846 76.2743 158.033 75.8762 158.033 75.4143ZM156.121 67.2924L158.306 65.2739L160.503 67.2924C160.451 67.3402 160.399 67.392 160.347 67.4477C160.235 67.5512 159.931 67.8299 159.437 68.2838C158.943 68.7297 158.566 69.0721 158.306 69.311L156.121 67.2924ZM151.413 67.2924L153.611 65.2739L155.796 67.2924L153.611 69.311L151.413 67.2924Z" fill="#CB1B1B"/>
<path d="M162.389 77.9226H163.624C164.535 77.9226 165.189 77.7753 165.588 77.4806C165.987 77.1781 166.186 76.7122 166.186 76.0832V72.5H169.45V72.9778L169.463 76.1071C169.472 76.76 169.619 77.2258 169.905 77.5045C170.2 77.7832 170.69 77.9226 171.375 77.9226C172.008 77.9226 172.467 77.7832 172.753 77.5045C173.048 77.2179 173.195 76.7481 173.195 76.0951L173.208 72.9778V72.5H176.459V72.9778L176.472 76.0713C176.481 76.7401 176.628 77.2139 176.914 77.4926C177.201 77.7713 177.664 77.9106 178.306 77.9106C178.791 77.9106 179.142 77.7792 179.359 77.5165C179.576 77.2537 179.684 76.7879 179.684 76.119V72.1178H183V76.2146C183 77.7036 182.593 78.8781 181.778 79.7381C180.963 80.598 179.832 81.028 178.384 81.028C176.884 81.028 175.727 80.5821 174.912 79.6903C174.088 80.5821 172.892 81.028 171.323 81.028C169.875 81.028 168.722 80.5702 167.864 79.6544C166.936 80.5702 165.519 81.028 163.611 81.028H162.389C162.285 81.028 162.207 80.8608 162.155 80.5264C162.094 80.184 162.064 79.8495 162.064 79.5231V79.3917C162.064 79.0811 162.094 78.7586 162.155 78.4242C162.215 78.0898 162.294 77.9226 162.389 77.9226Z" fill="#CB1B1B"/>
<path d="M107.356 0H128.288L70.1432 63.8281H49.2113L107.356 0Z" fill="#CB1B1B"/>
<path d="M130.666 0.526634L118.192 14.2191L162.064 63.8281H182.996L130.666 0.526634Z" fill="#CB1B1B"/>
<path d="M58.1443 0H79.0763L20.932 63.8281H0L58.1443 0Z" fill="#CB1B1B"/>
<path d="M83.2521 0H104.184L22.782 87H1.85005L83.2521 0Z" fill="#9E1515"/>
</svg>
