<svg width="20" height="20" viewBox="0 0 20 20" fill="none" xmlns="http://www.w3.org/2000/svg">
<path d="M10.0003 18.9583C5.05866 18.9583 1.04199 14.9417 1.04199 9.99999C1.04199 5.05832 5.05866 1.04166 10.0003 1.04166C14.942 1.04166 18.9587 5.05832 18.9587 9.99999C18.9587 14.9417 14.942 18.9583 10.0003 18.9583ZM10.0003 2.29166C5.75033 2.29166 2.29199 5.74999 2.29199 9.99999C2.29199 14.25 5.75033 17.7083 10.0003 17.7083C14.2503 17.7083 17.7087 14.25 17.7087 9.99999C17.7087 5.74999 14.2503 2.29166 10.0003 2.29166Z" fill="#505050"/>
<path d="M13.3337 10.625H6.66699C6.32533 10.625 6.04199 10.3417 6.04199 10C6.04199 9.65833 6.32533 9.375 6.66699 9.375H13.3337C13.6753 9.375 13.9587 9.65833 13.9587 10C13.9587 10.3417 13.6753 10.625 13.3337 10.625Z" fill="#505050"/>
<path d="M10 13.9583C9.65833 13.9583 9.375 13.675 9.375 13.3333V6.66666C9.375 6.32499 9.65833 6.04166 10 6.04166C10.3417 6.04166 10.625 6.32499 10.625 6.66666V13.3333C10.625 13.675 10.3417 13.9583 10 13.9583Z" fill="#505050"/>
</svg>
