<svg width="182" height="93" viewBox="0 0 182 93" fill="none" xmlns="http://www.w3.org/2000/svg">
<path d="M156.638 55.1199L135.632 54.9543L135.453 74.3076L156.458 74.4731L156.638 55.1199Z" fill="#F6BBBB"/>
<path d="M156.626 57.4231C156.626 57.4231 153.257 59.54 149.078 62.1286C144.898 64.717 141.529 66.8054 141.508 66.797C141.487 66.788 144.876 64.6798 149.056 62.0894C153.236 59.4988 156.61 57.4123 156.626 57.4231Z" fill="#E1E1E1"/>
<path d="M156.423 61.8829C156.423 61.8937 153.055 63.9997 148.875 66.588C144.694 69.1766 141.314 71.2656 141.305 71.2566C141.296 71.2483 144.673 69.1401 148.854 66.5515C153.034 63.9628 156.416 61.872 156.423 61.8829Z" fill="#E1E1E1"/>
<path d="M156.547 66.1903C156.547 66.2012 153.627 68.0291 150.01 70.2746C146.394 72.5194 143.452 74.33 143.445 74.3191C143.438 74.3082 146.363 72.4803 149.982 70.2355C153.601 67.99 156.54 66.1755 156.547 66.1903Z" fill="#E1E1E1"/>
<path d="M152.168 55.0779C152.168 55.0779 149.774 56.5993 146.804 58.4315C143.834 60.2636 141.421 61.7611 141.414 61.7502C141.407 61.7394 143.806 60.2289 146.778 58.3945C149.751 56.5602 152.161 55.067 152.168 55.0779Z" fill="#E1E1E1"/>
<path d="M156.43 70.818C156.43 70.818 155.21 71.6441 153.691 72.6369C152.172 73.6304 150.932 74.4322 150.922 74.4219C150.913 74.411 152.141 73.5977 153.663 72.6004C155.185 71.603 156.423 70.8071 156.43 70.818Z" fill="#E1E1E1"/>
<path d="M141.661 55.0017L120.656 54.8362L120.477 74.1896L141.482 74.3551L141.661 55.0017Z" fill="#FCE8E8"/>
<path d="M42.9545 92.6081L24.7812 92.6408L24.9369 75.7231L43.1078 75.8642L42.9545 92.6081Z" fill="#E1E1E1"/>
<path d="M42.9748 78.0635C42.9748 78.0635 40.0615 79.8934 36.4523 82.1343C32.8432 84.3753 29.9133 86.1814 29.9063 86.1705C29.8992 86.1596 32.8196 84.3381 36.4288 82.0997C40.0379 79.8613 42.9701 78.0552 42.9748 78.0635Z" fill="#E1E1E1"/>
<path d="M42.8185 81.9214C42.8185 81.9214 39.9052 83.7538 36.296 85.9923C32.6869 88.2307 29.7547 90.0394 29.75 90.0304C29.7453 90.0214 32.6633 88.198 36.2724 85.9595C39.8816 83.7211 42.8138 81.9131 42.8185 81.9214Z" fill="#E1E1E1"/>
<path d="M42.905 85.6492C42.905 85.6492 40.3786 87.2398 37.2435 89.1806C34.1085 91.1215 31.5774 92.6909 31.5703 92.6909C31.5633 92.6909 34.0967 91.0996 37.2318 89.1588C40.3668 87.218 42.8979 85.6402 42.905 85.6492Z" fill="#E1E1E1"/>
<path d="M39.1318 76.0335C39.1318 76.0335 37.0607 77.3374 34.4917 78.937C31.9229 80.5366 29.8328 81.8149 29.8281 81.8059C29.8234 81.7976 31.8969 80.502 34.4681 78.9049C37.0394 77.3073 39.1247 76.0251 39.1318 76.0335Z" fill="#E1E1E1"/>
<path d="M42.8276 89.6482C42.8276 89.6482 41.7732 90.3633 40.4569 91.2234C39.1406 92.0841 38.0697 92.7756 38.0625 92.7666C38.0555 92.7582 39.117 92.0514 40.4333 91.1913C41.7496 90.3306 42.8205 89.6482 42.8276 89.6482Z" fill="#E1E1E1"/>
<path d="M30.0444 75.9624L11.8741 75.8193L11.7188 92.56L29.889 92.703L30.0444 75.9624Z" fill="white"/>
<path d="M45.9002 7.57642V23.5269H21.037L20.1406 7.68949L45.9002 7.57642Z" fill="#E1E1E1"/>
<path d="M20.1406 7.68945V23.4943H45.0061V7.68945H20.1406Z" fill="white"/>
<path d="M45.1171 23.6028H20.0156V7.58057H45.1171V23.6028ZM20.2515 23.3854H44.8811V7.79793H20.2515V23.3854Z" fill="#E1E1E1"/>
<path d="M42.3137 9.65186H22.8359V21.5294H42.3137V9.65186Z" fill="white"/>
<path d="M42.315 9.65203H42.223H41.947H40.8761L36.8659 9.66505L22.8444 9.69115L22.8986 9.63901C22.8986 13.2686 22.8986 17.2893 22.8986 21.5166L22.8372 21.4601L42.315 21.4709L42.2655 21.5166C42.2655 17.9022 42.2867 14.9377 42.2914 12.8751C42.2914 11.8428 42.2914 11.0364 42.3032 10.4844C42.3032 10.2128 42.3032 10.002 42.3032 9.8563C42.3032 9.71071 42.3032 9.63901 42.3032 9.63901C42.3032 9.63901 42.3032 9.70853 42.3032 9.8563C42.3032 10.0041 42.3032 10.2062 42.3032 10.4757C42.3032 11.0256 42.3032 11.8276 42.315 12.8665C42.315 14.9377 42.3292 17.9109 42.3409 21.5361V21.5817H42.2914H22.8137H22.75V21.5252C22.75 17.298 22.75 13.2772 22.75 9.64766V9.59552H22.8066L36.8635 9.62162L40.8737 9.63464H41.9305H42.2018L42.315 9.65203Z" fill="#E1E1E1"/>
<path d="M20.1406 7.6438C20.2932 7.71294 20.4365 7.79831 20.5676 7.89811C20.8224 8.06762 21.1691 8.30885 21.5418 8.58489C21.9145 8.86088 22.2495 9.12173 22.4854 9.31735C22.6186 9.41497 22.7382 9.5274 22.8416 9.65202C22.3639 9.34705 21.9033 9.01988 21.4616 8.6718C20.9977 8.35573 20.5565 8.01234 20.1406 7.6438Z" fill="#E1E1E1"/>
<path d="M45.0064 7.68945C44.5962 8.05876 44.1587 8.40151 43.6972 8.71527C43.2601 9.05719 42.7974 9.37019 42.3125 9.65201C42.7214 9.28129 43.1589 8.93847 43.6217 8.62619C44.0573 8.28254 44.5201 7.96948 45.0064 7.68945Z" fill="#E1E1E1"/>
<path d="M42.2266 21.4253C42.7225 21.7254 43.1954 22.0565 43.6419 22.4164C44.1179 22.7492 44.568 23.1123 44.9889 23.503C44.4935 23.2024 44.0207 22.8712 43.5735 22.512C43.0982 22.1785 42.6482 21.8154 42.2266 21.4253Z" fill="#E1E1E1"/>
<path d="M20.1406 23.4943C20.5446 23.1264 20.9774 22.7864 21.4357 22.4771C21.8684 22.1392 22.3263 21.8298 22.8062 21.5513C22.4011 21.9173 21.9683 22.2565 21.5111 22.5662C21.0789 22.9052 20.6208 23.2153 20.1406 23.4943Z" fill="#E1E1E1"/>
<path d="M26.7891 13.353V17.3303H39.0461V13.353H26.7891Z" fill="#E1E1E1"/>
<path d="M158.337 7.15918H133.555V40.2534H158.337V7.15918Z" fill="#E1E1E1"/>
<path d="M157.095 7.15918H132.312V40.2534H157.095V7.15918Z" fill="white"/>
<path d="M154.007 10.7454H135.383V36.6717H154.007V10.7454Z" fill="white"/>
<path d="M154.002 36.6713C154.002 36.6713 154.002 36.6257 154.002 36.5431C154.002 36.4605 154.002 36.3366 154.002 36.1758C154.002 35.8498 154.002 35.3738 154.002 34.7544C154.002 33.5112 154.002 31.7008 153.985 29.4122C153.985 24.8481 153.968 18.367 153.954 10.7449L154.018 10.8015H135.394L135.462 10.7406C135.462 20.5208 135.462 29.5383 135.448 36.667L135.394 36.617L148.951 36.6431L152.697 36.6561H153.678H154.02H153.69H152.718H148.984L135.394 36.6822H135.342V36.6343C135.342 29.5057 135.342 20.4883 135.328 10.708V10.645H135.39H154.013H154.074V10.7537C154.06 18.391 154.051 24.8807 154.044 29.46C154.044 31.7421 154.03 33.5482 154.028 34.787C154.028 35.4021 154.028 35.8737 154.028 36.1975C154.028 36.354 154.028 36.4757 154.028 36.5583C154.028 36.6409 154.002 36.6713 154.002 36.6713Z" fill="#E1E1E1"/>
<path d="M157.163 7.15918C157.035 7.36885 156.888 7.56742 156.721 7.75252C156.434 8.10675 156.014 8.58926 155.558 9.1109C155.103 9.63253 154.658 10.0932 154.334 10.4149C154.17 10.6005 153.987 10.7722 153.789 10.9279C153.929 10.7262 154.087 10.5357 154.261 10.3584L155.455 9.03047L156.634 7.69601C156.795 7.50475 156.972 7.32523 157.163 7.15918Z" fill="#E1E1E1"/>
<path d="M154.109 36.5867C155.034 37.9436 156.124 39.1991 157.357 40.3292L154.109 36.5867Z" fill="white"/>
<path d="M157.357 40.3292C157.151 40.1903 156.961 40.0315 156.791 39.8555C156.359 39.4503 155.95 39.0252 155.565 38.5818C155.18 38.1384 154.82 37.677 154.487 37.1996C154.338 37.0079 154.212 36.8025 154.109 36.5867C154.276 36.7643 154.428 36.9532 154.565 37.1517C154.838 37.5038 155.222 37.9885 155.671 38.5036C156.119 39.0187 156.546 39.4729 156.85 39.7946C157.033 39.9612 157.203 40.1398 157.357 40.3292Z" fill="#E1E1E1"/>
<path d="M135.551 36.5388C135.063 37.1915 134.539 37.8204 133.98 38.4232C133.456 39.0515 132.897 39.6543 132.305 40.2293C132.792 39.576 133.317 38.947 133.876 38.3449C134.4 37.7166 134.959 37.1138 135.551 36.5388Z" fill="#E1E1E1"/>
<path d="M132.312 7.15918C132.872 7.71147 133.398 8.29198 133.888 8.89789C134.415 9.4761 134.906 10.0813 135.358 10.7105C134.799 10.1574 134.273 9.57705 133.782 8.97178C133.257 8.39274 132.766 7.7876 132.312 7.15918Z" fill="#E1E1E1"/>
<path d="M148.214 16.0093H141.977V32.3228H148.214V16.0093Z" fill="#E1E1E1"/>
<path d="M126.08 2.24512H112.57V20.2864H126.08V2.24512Z" fill="#E1E1E1"/>
<path d="M125.408 2.24512H111.898V20.2864H125.408V2.24512Z" fill="white"/>
<path d="M123.731 4.19897H113.578V18.3325H123.731V4.19897Z" fill="white"/>
<path d="M123.731 18.3323C123.731 18.3323 123.731 18.3084 123.731 18.2627C123.731 18.2171 123.731 18.1497 123.731 18.0628C123.731 17.8846 123.731 17.6282 123.731 17.2869C123.731 16.611 123.731 15.6221 123.731 14.3767C123.731 11.8839 123.731 8.35426 123.715 4.19877L123.75 4.2292H113.606L113.644 4.1966C113.644 9.52792 113.644 14.4441 113.644 18.3236L113.613 18.2976L121.004 18.3106H123.047H123.583H123.052H121.016L113.606 18.3258H113.578V18.2976C113.578 14.4115 113.578 9.49534 113.578 4.17052V4.13574H113.616H123.76H123.792V4.16617C123.792 8.3304 123.792 11.8665 123.776 14.3637C123.776 15.6069 123.776 16.5936 123.776 17.2695C123.776 17.6042 123.776 17.8607 123.776 18.0367C123.776 18.1237 123.776 18.1889 123.776 18.2345L123.731 18.3323Z" fill="#E1E1E1"/>
<path d="M123.781 18.2866C124.285 19.0265 124.879 19.7111 125.551 20.3274L123.781 18.2866Z" fill="white"/>
<path d="M125.551 20.3274C125.438 20.2519 125.334 20.1652 125.242 20.0688C125.007 19.8483 124.783 19.6168 124.574 19.3755C124.338 19.0908 124.126 18.8213 123.987 18.6213C123.905 18.5173 123.836 18.405 123.781 18.2866C123.867 18.3849 123.946 18.488 124.017 18.5953C124.166 18.7865 124.376 19.0517 124.621 19.332C124.866 19.6124 125.093 19.8601 125.268 20.0362C125.371 20.1258 125.466 20.2232 125.551 20.3274Z" fill="#E1E1E1"/>
<path d="M113.66 18.261C113.394 18.617 113.108 18.9601 112.804 19.289C112.518 19.6313 112.213 19.9599 111.891 20.2736C112.156 19.9172 112.442 19.574 112.747 19.2456C113.033 18.9033 113.338 18.5747 113.66 18.261Z" fill="#E1E1E1"/>
<path d="M120.571 7.06787H117.172V15.9614H120.571V7.06787Z" fill="#E1E1E1"/>
<path d="M171.053 92.5826C171.053 92.6127 134.598 92.639 89.6365 92.639C44.6753 92.639 8.21094 92.6127 8.21094 92.5826C8.21094 92.5518 44.6589 92.5261 89.6365 92.5261C134.615 92.5261 171.053 92.5499 171.053 92.5826Z" fill="#353535"/>
<path d="M153.598 92.5843L133.719 92.5907L133.889 74.2781L153.765 74.4346L153.598 92.5843Z" fill="#E43434"/>
<path d="M139.6 74.3281L119.725 74.1716L119.555 92.4837L139.431 92.6408L139.6 74.3281Z" fill="#E43434"/>
<path opacity="0.2" d="M139.6 74.3281L119.725 74.1716L119.555 92.4837L139.431 92.6408L139.6 74.3281Z" fill="white"/>
<path d="M173.095 74.568L153.536 74.4141L153.367 92.5459L172.927 92.6998L173.095 74.568Z" fill="#F6BBBB"/>
<path d="M158.974 92.6081L139.414 92.5824L139.581 74.2974L159.141 74.4519L158.974 92.6081Z" fill="#E43434"/>
<path d="M173.076 76.7122C173.076 76.7122 169.941 78.6857 166.056 81.096C162.171 83.5063 159.015 85.4427 159.008 85.4427C159.001 85.4427 162.142 83.4691 166.028 81.0588C169.913 78.6485 173.069 76.7013 173.076 76.7122Z" fill="#909090"/>
<path d="M172.897 80.8658C172.897 80.8767 169.762 82.8393 165.876 85.247C161.992 87.6554 158.838 89.6046 158.828 89.5937C158.819 89.5828 161.965 87.6201 165.851 85.2098C169.736 82.8002 172.883 80.8549 172.897 80.8658Z" fill="#909090"/>
<path d="M172.997 84.8775C172.997 84.8884 170.28 86.59 166.911 88.6809C163.543 90.7718 160.806 92.456 160.797 92.4451C160.787 92.4342 163.514 90.7326 166.883 88.6418C170.251 86.5509 172.99 84.8666 172.997 84.8775Z" fill="#909090"/>
<path d="M168.923 74.5277C168.923 74.5386 166.693 75.938 163.928 77.6531C161.164 79.3675 158.913 80.7522 158.906 80.7368C158.899 80.7215 161.136 79.3284 163.9 77.6114C166.665 75.8944 168.916 74.5167 168.923 74.5277Z" fill="#909090"/>
<path d="M172.894 89.1849C172.894 89.1958 171.76 89.9546 170.344 90.8801C168.929 91.8063 167.773 92.5515 167.766 92.5406C167.759 92.5297 168.9 91.771 170.316 90.8455C171.731 89.9193 172.894 89.174 172.894 89.1849Z" fill="#909090"/>
<path d="M57.4766 37.2373V56.6131H75.5604C75.5392 55.3292 75.7957 54.0543 76.3145 52.8626C76.8333 51.6709 77.604 50.5861 78.5825 49.6714C79.5603 48.7567 80.7257 48.0303 82.0115 47.5345C83.2972 47.0387 84.6767 46.7834 86.0705 46.7834C87.4642 46.7834 88.8438 47.0387 90.1295 47.5345C91.4145 48.0303 92.5807 48.7567 93.5585 49.6714C94.5369 50.5861 95.3077 51.6709 95.8265 52.8626C96.3453 54.0543 96.6017 55.3292 96.5805 56.6131H114.509V37.2373H57.4766Z" fill="#E43434"/>
<path opacity="0.4" d="M57.4766 37.2373V56.6131H75.5604C75.5392 55.3292 75.7957 54.0543 76.3145 52.8626C76.8333 51.6709 77.604 50.5861 78.5825 49.6714C79.5603 48.7567 80.7257 48.0303 82.0115 47.5345C83.2972 47.0387 84.6767 46.7834 86.0705 46.7834C87.4642 46.7834 88.8438 47.0387 90.1295 47.5345C91.4145 48.0303 92.5807 48.7567 93.5585 49.6714C94.5369 50.5861 95.3077 51.6709 95.8265 52.8626C96.3453 54.0543 96.6017 55.3292 96.5805 56.6131H114.509V37.2373H57.4766Z" fill="#353535"/>
<path d="M44.4766 37.2371V56.6128H62.5601C62.5392 55.329 62.7957 54.0541 63.3145 52.8623C63.8333 51.6706 64.6042 50.5859 65.5821 49.6712C66.5606 48.7564 67.7261 48.0301 69.0118 47.5343C70.2969 47.0384 71.6771 46.7831 73.0701 46.7831C74.4639 46.7831 75.8434 47.0384 77.1291 47.5343C78.4149 48.0301 79.5804 48.7564 80.5588 49.6712C81.5366 50.5859 82.3074 51.6706 82.8261 52.8623C83.3449 54.0541 83.6014 55.329 83.5809 56.6128H101.508V37.2371H44.4766Z" fill="#E43434"/>
<path d="M114.526 38.2798C114.526 38.2798 111.646 40.1272 108.076 42.381C104.507 44.6348 101.611 46.4561 101.602 46.4452C101.592 46.4344 104.482 44.6 108.051 42.3441C111.62 40.0881 114.517 38.2689 114.526 38.2798Z" fill="#E43434"/>
<path d="M114.633 41.9793C114.633 41.9901 111.752 43.8245 108.186 46.0805C104.619 48.3365 101.718 50.1556 101.711 50.1447C101.704 50.1339 104.588 48.2973 108.158 46.0435C111.727 43.7897 114.633 41.9684 114.633 41.9793Z" fill="#E43434"/>
<path d="M114.501 45.8174C114.501 45.8174 111.623 47.6626 108.054 49.9186C104.485 52.1746 101.585 53.9916 101.578 53.9828C101.571 53.9741 104.456 52.1355 108.023 49.8751C111.59 47.6148 114.494 45.8065 114.501 45.8174Z" fill="#E43434"/>
<path d="M114.398 49.5232C114.398 49.5341 111.902 51.1272 108.807 53.081C105.712 55.0349 103.205 56.6128 103.195 56.6128C103.186 56.6128 105.691 55.0088 108.786 53.0528C111.881 51.0967 114.398 49.5123 114.398 49.5232Z" fill="#E43434"/>
<path d="M109.181 37.2373L109.105 37.2894L108.886 37.4351L108.07 37.9589L105.371 39.6715L102.663 41.3754L101.84 41.8862L101.604 42.0231C101.578 42.0398 101.551 42.055 101.523 42.0688C101.548 42.05 101.573 42.0326 101.599 42.0166L101.819 41.8709L102.632 41.3494L105.333 39.6345L108.051 37.9219L108.874 37.4112L109.11 37.2742L109.181 37.2373Z" fill="#E43434"/>
<path d="M78.0886 48.0584C78.0886 48.0584 75.0742 49.9884 71.3398 52.3486C67.6055 54.709 64.5719 56.6129 64.5625 56.6129C64.5531 56.6129 67.5772 54.6807 71.3116 52.3204C75.0459 49.9602 78.0718 48.0476 78.0886 48.0584Z" fill="#E43434"/>
<path d="M76.3664 52.918L76.3098 52.9593L76.1427 53.0701L75.5197 53.4722L73.4581 54.7762L71.3894 56.0802L70.7594 56.4649L70.5871 56.5693L70.5234 56.6127L70.58 56.5715L70.7472 56.4606L71.3701 56.0585L73.4317 54.7545L75.5004 53.4504L76.1304 53.0614L76.3027 52.9571L76.3664 52.918Z" fill="#E43434"/>
<path d="M72.7513 47.0127C72.7513 47.0127 70.6588 48.3624 68.0617 50.0055C65.4645 51.6486 63.3438 52.97 63.3438 52.9591C63.3438 52.9483 65.4363 51.6094 68.036 49.9685C70.635 48.3276 72.7443 47.004 72.7513 47.0127Z" fill="#E43434"/>
<path d="M114.586 53.5023C114.586 53.5132 113.545 54.2239 112.246 55.0889C110.946 55.9539 109.887 56.6516 109.875 56.6407C109.863 56.6298 110.915 55.9191 112.215 55.0541C113.515 54.1891 114.576 53.4914 114.586 53.5023Z" fill="#E43434"/>
<path d="M117.486 56.6038H99.4141V73.2538H117.486V56.6038Z" fill="#871212"/>
<path d="M104.611 56.6038H86.5391V73.2538H104.611V56.6038Z" fill="#700F0F"/>
<path d="M117.492 58.5901C117.492 58.5901 114.612 60.4375 111.045 62.6913C107.479 64.9448 104.577 66.7663 104.57 66.7554C104.563 66.7445 107.448 64.9102 111.017 62.6544C114.586 60.3984 117.485 58.5792 117.492 58.5901Z" fill="#909090"/>
<path d="M117.36 62.4285C117.36 62.4394 114.482 64.2758 110.912 66.5296C107.343 68.7834 104.445 70.6049 104.438 70.594C104.43 70.5831 107.315 68.7488 110.884 66.4924C114.453 64.2367 117.353 62.4176 117.36 62.4285Z" fill="#909090"/>
<path d="M117.486 66.1338C117.486 66.1447 114.991 67.7379 111.898 69.6941C108.805 71.6504 106.288 73.2256 106.281 73.2153C106.274 73.2044 108.775 71.6087 111.87 69.6531C114.964 67.6969 117.479 66.1229 117.486 66.1338Z" fill="#909090"/>
<path d="M113.637 56.6125C113.637 56.6125 111.592 57.9318 109.051 59.5379C106.511 61.1441 104.445 62.435 104.438 62.4242C104.43 62.4134 106.482 61.1049 109.023 59.4988C111.564 57.8927 113.63 56.593 113.637 56.6125Z" fill="#909090"/>
<path d="M117.438 70.1136C117.438 70.1245 116.397 70.8351 115.098 71.7023C113.798 72.5694 112.739 73.2628 112.727 73.2519C112.715 73.241 113.767 72.5329 115.067 71.6657C116.367 70.7986 117.429 70.1053 117.438 70.1136Z" fill="#909090"/>
<path d="M77.6578 56.6038H59.5859V73.2538H77.6578V56.6038Z" fill="#871212"/>
<path d="M64.7671 56.6038H46.6953V73.2538H64.7671V56.6038Z" fill="#700F0F"/>
<path d="M77.651 58.5901C77.651 58.5901 74.7685 60.4375 71.2019 62.6979C67.6353 64.9583 64.736 66.7727 64.7266 66.7618C64.7171 66.7509 67.607 64.9166 71.1762 62.6608C74.7447 60.4049 77.642 58.5792 77.651 58.5901Z" fill="#909090"/>
<path d="M77.5236 62.4285C77.5236 62.4394 74.6436 64.2758 71.0771 66.5296C67.5099 68.7834 64.6086 70.6049 64.6016 70.594C64.5944 70.5831 67.4796 68.7488 71.0488 66.4924C74.6173 64.2367 77.5166 62.4176 77.5236 62.4285Z" fill="#909090"/>
<path d="M77.6529 66.1338C77.6529 66.1447 75.1567 67.7379 72.062 69.6941C68.9673 71.6504 66.4524 73.2256 66.4453 73.2153C66.4383 73.2044 68.9409 71.6087 72.0363 69.6531C75.131 67.6969 77.6433 66.1229 77.6529 66.1338Z" fill="#909090"/>
<path d="M73.8015 56.6125C73.8015 56.6125 71.7566 57.9318 69.216 59.5379C66.6755 61.1441 64.6229 62.4264 64.6017 62.4155C64.5805 62.4046 66.6472 61.0962 69.1897 59.4901C71.7328 57.884 73.7945 56.593 73.8015 56.6125Z" fill="#909090"/>
<path d="M77.5977 70.1136C77.5977 70.1245 76.5569 70.8351 75.2571 71.7023C73.9579 72.5694 72.8984 73.2628 72.8984 73.2519C72.8984 73.241 73.9386 72.5329 75.2384 71.6657C76.5383 70.7986 77.5977 70.1053 77.5977 70.1136Z" fill="#909090"/>
<path d="M114.273 73.252H101.523V92.619H114.273V73.252Z" fill="#E43434"/>
<path opacity="0.4" d="M114.273 73.252H101.523V92.619H114.273V73.252Z" fill="#353535"/>
<path d="M101.518 73.252H44.4766V92.619H101.518V73.252Z" fill="#E43434"/>
<path d="M114.161 74.3584C114.161 74.3584 111.356 76.1947 107.884 78.4376C104.411 80.6805 101.585 82.4886 101.578 82.4783C101.571 82.4674 104.378 80.644 107.856 78.3985C111.333 76.1537 114.161 74.3475 114.161 74.3584Z" fill="#E43434"/>
<path d="M114.27 78.0359C114.27 78.0468 111.468 79.8722 107.993 82.1151C104.519 84.358 101.695 86.1686 101.688 86.1577C101.68 86.1468 104.49 84.3214 107.965 82.0785C111.44 79.8356 114.263 78.0269 114.27 78.0359Z" fill="#E43434"/>
<path d="M114.153 81.8541C114.153 81.8541 111.348 83.691 107.875 85.9339C104.403 88.1768 101.577 89.9848 101.57 89.9739C101.563 89.963 104.373 88.1396 107.847 85.8947C111.322 83.6493 114.143 81.8431 114.153 81.8541Z" fill="#E43434"/>
<path d="M114.043 85.5401C114.043 85.5401 111.616 87.1358 108.604 89.0786C105.591 91.022 103.14 92.5933 103.133 92.5824C103.126 92.5715 105.56 90.9867 108.575 89.042C111.59 87.0967 114.036 85.5298 114.043 85.5401Z" fill="#E43434"/>
<path d="M108.973 73.3193L108.902 73.3719L108.687 73.515L107.892 74.0364L105.26 75.7386L102.623 77.4338L101.82 77.9424L101.601 78.079C101.576 78.095 101.55 78.1098 101.523 78.1226L101.596 78.0707L101.811 77.927L102.603 77.4075L105.231 75.7014L107.868 74.0082L108.671 73.4996L108.89 73.363L108.973 73.3193Z" fill="#E43434"/>
<path d="M114.218 89.4982C114.218 89.5091 113.207 90.2152 111.939 91.076C110.673 91.9367 109.642 92.63 109.633 92.6191C109.623 92.6082 110.645 91.9021 111.911 91.0413C113.178 90.1806 114.211 89.4873 114.218 89.4982Z" fill="#E43434"/>
<path d="M56.3047 37.2541L120.699 37.1672L88.4548 7.7373L73.9847 7.75687L56.3047 37.2541Z" fill="#E43434"/>
<path d="M41.8359 37.2736L106.23 37.1867L73.9859 7.75684L41.8359 37.2736Z" fill="#E43434"/>
<path d="M107.398 25.0266L107.313 25.0831L107.077 25.2439L106.171 25.8286L103.166 27.7412L100.154 29.6429L99.2385 30.2145L98.9859 30.3688C98.9293 30.4036 98.8984 30.4188 98.8984 30.4188C98.9248 30.3978 98.9524 30.3783 98.9814 30.3601L99.2173 30.1993L100.126 29.6168L103.128 27.7042L106.143 25.8025L107.061 25.2309L107.311 25.0766C107.339 25.0585 107.368 25.0418 107.398 25.0266Z" fill="white"/>
<path d="M110.484 27.895L110.401 27.9537L110.165 28.1145L109.257 28.697L106.252 30.6096L103.24 32.5113L102.324 33.0829L102.074 33.2372L101.984 33.2893L102.067 33.2307L102.303 33.0699L103.211 32.4852L106.216 30.5727L109.22 28.6709L110.135 28.0993L110.385 27.945L110.484 27.895Z" fill="white"/>
<path d="M113.468 30.6489L113.386 30.7076L113.15 30.8684L112.241 31.4531C111.456 31.953 110.402 32.6224 109.239 33.3657L106.224 35.2652L105.308 35.839L105.058 35.9911L104.969 36.0432L105.051 35.9846L105.287 35.8238L106.195 35.2391L109.201 33.3266L112.213 31.427L113.129 30.8532L113.379 30.7011L113.468 30.6489Z" fill="white"/>
<path d="M116.694 33.5005C116.694 33.5005 116.675 33.5158 116.639 33.5418L116.475 33.6504L115.866 34.046L113.849 35.3327L111.815 36.6171L111.2 36.9997L111.03 37.1018L110.969 37.1344L111.025 37.0931L111.188 36.9845L111.797 36.591L113.813 35.3023C114.594 34.8133 115.298 34.3677 115.84 34.0265L116.458 33.644C116.519 33.607 116.576 33.5744 116.625 33.5418L116.694 33.5005Z" fill="white"/>
<path d="M104.263 22.1553L104.178 22.214L103.943 22.3748L103.037 22.9594L100.017 24.8807L97.0049 26.7824C96.6301 27.0171 96.3209 27.2171 96.0901 27.3562L95.8374 27.5083L95.75 27.5605C95.7764 27.5395 95.804 27.52 95.8329 27.5018L96.0688 27.341L96.9766 26.7563L99.98 24.8437L103.009 22.9246L103.926 22.353L104.177 22.2009L104.263 22.1553Z" fill="white"/>
<path d="M101.122 19.2864L101.037 19.3451L100.801 19.5059L99.8835 20.0993L96.8801 22.0118L93.8799 23.9026L92.9644 24.4742L92.7118 24.6286C92.6552 24.6633 92.625 24.6786 92.625 24.6786C92.6514 24.6577 92.679 24.638 92.7073 24.6199L92.9432 24.459L93.8516 23.8766L96.8544 21.964L99.8668 20.0623L100.784 19.4907L101.034 19.3363C101.063 19.3183 101.091 19.3016 101.122 19.2864Z" fill="white"/>
<path d="M97.9836 16.4158C97.9836 16.4158 97.9553 16.4375 97.8987 16.4745L97.6628 16.6353L96.7551 17.2199L93.7517 19.1325L90.7392 21.0342L89.8244 21.6058L89.5718 21.7579L89.4844 21.8101C89.5107 21.7892 89.5384 21.7696 89.5673 21.7514L89.8032 21.5906L90.7109 21.0059L93.7144 19.0934L96.7262 17.1938L97.6557 16.6222L97.9058 16.4701L97.9836 16.4158Z" fill="white"/>
<path d="M94.843 13.5466L94.7581 13.6053L94.5222 13.7661L93.6145 14.3486L90.611 16.2612L87.5986 18.1629L86.6838 18.7345L86.4312 18.8888C86.3746 18.9236 86.3438 18.9388 86.3438 18.9388L86.4267 18.8823L86.6626 18.7215L87.5703 18.1369L90.5737 16.2243L93.5855 14.3225L94.5035 13.7509L94.7536 13.5966C94.7825 13.5784 94.8121 13.5618 94.843 13.5466Z" fill="white"/>
<path d="M91.7112 10.6775L91.6264 10.734L91.3905 10.8949L90.4821 11.4795L87.4793 13.3921L84.4527 15.2938L83.5373 15.8654L83.2847 16.0197C83.2564 16.0379 83.2262 16.0546 83.1953 16.0697L83.2802 16.011L83.5161 15.8502L84.4245 15.2677L87.4414 13.3616L90.4538 11.4599L91.3712 10.8883L91.6212 10.734C91.6502 10.7136 91.6797 10.6947 91.7112 10.6775Z" fill="white"/>
<path d="M88.5643 7.80664L88.4788 7.86533L88.2429 8.02618L87.3351 8.6108L84.3324 10.5212L81.3199 12.423C80.9445 12.6576 80.6353 12.8576 80.4045 12.9967L80.1519 13.1488L80.0625 13.201C80.0625 13.201 80.0908 13.1793 80.1474 13.1423L80.3833 12.9815L81.2916 12.3969L84.2944 10.4843L87.3069 8.5804L88.2197 8.01098L88.4698 7.85885L88.5643 7.80664Z" fill="white"/>
<path d="M80.8323 7.84794C80.8323 7.84794 79.969 8.42172 78.889 9.10851C77.8083 9.79529 76.9238 10.3408 76.9141 10.3299C76.9051 10.319 77.7781 9.75617 78.8607 9.06938C79.9433 8.38259 80.8253 7.83704 80.8323 7.84794Z" fill="white"/>
<path opacity="0.2" d="M41.8359 37.2736L106.23 37.1867L73.9859 7.75684L41.8359 37.2736Z" fill="white"/>
<path d="M131.816 91.6045L131.769 89.738L127.969 89.7945L128.007 92.5287L128.243 92.5389C129.292 92.5761 133.581 92.6634 134.276 92.4568C135.055 92.2304 131.816 91.6045 131.816 91.6045Z" fill="#E43434"/>
<path d="M127.953 92.4522C127.975 92.4548 127.997 92.4548 128.019 92.4522H128.208L128.899 92.4695C129.481 92.4804 130.288 92.4849 131.178 92.4695C132.067 92.4548 132.876 92.4304 133.459 92.4048L134.148 92.3676L134.336 92.3547H134.148L133.456 92.3785C132.874 92.3977 132.069 92.4195 131.178 92.433C130.286 92.4458 129.481 92.4439 128.899 92.433H128.208H127.953V92.4522Z" fill="#353535"/>
<path d="M133.083 92.4741C133.11 92.3682 133.151 92.265 133.206 92.1681C133.275 92.0777 133.354 91.995 133.441 91.9199C133.327 91.9616 133.232 92.0386 133.172 92.1374C133.097 92.2355 133.065 92.3554 133.083 92.4741Z" fill="#353535"/>
<path d="M131.955 91.9674C131.955 91.9674 132.019 91.9129 132.074 91.8308C132.112 91.7846 132.139 91.7308 132.152 91.6743C132.152 91.6743 132.088 91.7282 132.034 91.809C131.979 91.8892 131.944 91.961 131.955 91.9674Z" fill="#353535"/>
<path d="M131.633 91.8218C131.633 91.8218 131.702 91.7936 131.768 91.7371C131.834 91.6807 131.876 91.6306 131.867 91.6217C131.858 91.6133 131.801 91.6524 131.735 91.707C131.669 91.7608 131.633 91.8218 131.633 91.8218Z" fill="#353535"/>
<path d="M131.445 91.4941C131.445 91.5069 131.532 91.5159 131.643 91.5159C131.71 91.5216 131.778 91.5146 131.841 91.4941C131.841 91.4806 131.752 91.4723 131.643 91.4723C131.576 91.4658 131.508 91.4729 131.445 91.4941Z" fill="#353535"/>
<path d="M131.359 91.2631C131.426 91.3015 131.503 91.3201 131.581 91.3182C131.662 91.3323 131.744 91.3214 131.817 91.2874C131.743 91.2765 131.668 91.2727 131.593 91.2765C131.516 91.2637 131.438 91.2592 131.359 91.2631Z" fill="#353535"/>
<path d="M132.07 91.6609C132.149 91.6731 132.228 91.6731 132.306 91.6609C132.397 91.6506 132.486 91.632 132.573 91.6045C132.624 91.591 132.673 91.5711 132.719 91.5461C132.734 91.5384 132.746 91.5288 132.756 91.5166C132.767 91.5044 132.774 91.4909 132.778 91.4762C132.782 91.4595 132.781 91.4422 132.774 91.4268C132.767 91.4108 132.756 91.3973 132.74 91.387C132.646 91.346 132.54 91.3364 132.439 91.3594C132.338 91.3832 132.25 91.4383 132.189 91.5153C132.152 91.5596 132.126 91.6109 132.113 91.6654C132.108 91.6853 132.108 91.7064 132.113 91.7263C132.138 91.6571 132.175 91.5923 132.221 91.5326C132.276 91.473 132.348 91.4294 132.429 91.4069C132.476 91.3909 132.525 91.3832 132.576 91.3857C132.625 91.3877 132.674 91.3992 132.719 91.4197C132.759 91.446 132.745 91.4871 132.7 91.5134C132.658 91.5365 132.613 91.5544 132.566 91.5679C132.484 91.5948 132.401 91.6166 132.316 91.6327C132.165 91.6526 132.07 91.6526 132.07 91.6609Z" fill="#353535"/>
<path d="M132.137 91.6699C132.167 91.6224 132.177 91.5666 132.163 91.5134C132.154 91.455 132.13 91.3998 132.095 91.3505C132.074 91.3171 132.045 91.2889 132.009 91.2696C131.973 91.2498 131.932 91.2395 131.89 91.2395C131.865 91.244 131.843 91.2581 131.829 91.2773C131.815 91.2972 131.81 91.321 131.814 91.344C131.822 91.38 131.837 91.414 131.859 91.4441C131.892 91.4935 131.932 91.539 131.977 91.5788C132.015 91.6179 132.063 91.6487 132.116 91.6679C132.116 91.6679 132.069 91.6288 132.001 91.557C131.959 91.5166 131.924 91.4723 131.894 91.4242C131.862 91.3768 131.835 91.2915 131.894 91.2812C131.954 91.2703 132.02 91.3286 132.057 91.3742C132.093 91.4172 132.118 91.4672 132.128 91.5198C132.137 91.5692 132.141 91.6198 132.137 91.6699Z" fill="#353535"/>
<path d="M128.023 91.4939C128.023 91.4939 128.132 91.483 128.304 91.4939C128.529 91.5132 128.743 91.5902 128.922 91.7172C129.1 91.8435 129.236 92.0141 129.314 92.2091C129.373 92.3585 129.38 92.4586 129.39 92.4586C129.395 92.4349 129.395 92.4105 129.39 92.3868C129.382 92.3233 129.368 92.261 129.347 92.2001C129.274 91.9955 129.137 91.8153 128.953 91.6825C128.767 91.553 128.544 91.4773 128.311 91.4657C128.241 91.458 128.171 91.458 128.101 91.4657C128.074 91.4709 128.048 91.4805 128.023 91.4939Z" fill="#353535"/>
<path d="M128.385 90.031C128.361 90.2702 128.354 90.5101 128.364 90.75C128.356 90.9905 128.365 91.2304 128.39 91.4696C128.422 90.9905 128.422 90.5101 128.39 90.031H128.385Z" fill="#353535"/>
<path d="M129.859 92.1373C130.042 92.1725 130.228 92.1867 130.414 92.179C130.6 92.1854 130.786 92.1693 130.968 92.1302C130.968 92.1174 130.721 92.1302 130.414 92.1302C130.108 92.1302 129.859 92.1238 129.859 92.1373Z" fill="#353535"/>
<path d="M129.125 92.1463C129.125 92.1463 129.146 92.1938 129.173 92.2457C129.199 92.2983 129.213 92.3458 129.227 92.3439C129.241 92.342 129.247 92.2894 129.227 92.2284C129.208 92.1675 129.132 92.1374 129.125 92.1463Z" fill="#353535"/>
<path d="M128.836 91.8218C128.836 91.8218 128.852 91.8654 128.892 91.9019C128.933 91.9385 128.97 91.9603 128.98 91.9513C128.989 91.943 128.963 91.9084 128.923 91.8718C128.883 91.8352 128.845 91.8218 128.836 91.8218Z" fill="#353535"/>
<path d="M128.422 91.6876C128.422 91.7005 128.477 91.6985 128.533 91.7159C128.59 91.7332 128.63 91.7595 128.64 91.7531C128.649 91.7467 128.616 91.696 128.547 91.6742C128.479 91.6524 128.42 91.6761 128.422 91.6876Z" fill="#353535"/>
<path d="M128.141 91.6217C128.141 91.6327 128.157 91.6508 128.19 91.6619C128.223 91.6729 128.251 91.6729 128.254 91.6619C128.256 91.6508 128.237 91.6327 128.207 91.6217C128.176 91.6107 128.145 91.6042 128.141 91.6217Z" fill="#353535"/>
<path d="M135.352 91.2221L135.997 89.4487L132.402 88.3167L131.43 90.8982L131.646 90.9829C132.621 91.3459 136.624 92.7672 137.356 92.7916C138.171 92.8198 135.352 91.2221 135.352 91.2221Z" fill="#E43434"/>
<path d="M131.406 90.8071L131.467 90.8334L131.64 90.8982L132.284 91.131C132.829 91.3247 133.586 91.5806 134.428 91.8481C135.27 92.1155 136.039 92.3413 136.596 92.5004L137.259 92.6806L137.44 92.7261L137.504 92.7415C137.484 92.7326 137.464 92.7249 137.443 92.7197L137.263 92.6652L136.608 92.4741C136.051 92.3092 135.284 92.0783 134.442 91.8115C133.6 91.5441 132.843 91.2939 132.295 91.1073L131.647 90.8899L131.47 90.8309C131.45 90.8206 131.429 90.8123 131.406 90.8071Z" fill="#353535"/>
<path d="M136.211 92.4286C136.279 92.3369 136.358 92.2528 136.447 92.1784C136.543 92.1156 136.646 92.0624 136.754 92.02C136.63 92.029 136.512 92.0733 136.416 92.1464C136.32 92.2195 136.251 92.3183 136.218 92.4286H136.211Z" fill="#353535"/>
<path d="M135.337 91.6042C135.337 91.6042 135.417 91.5722 135.497 91.5132C135.577 91.4548 135.639 91.3977 135.629 91.3874C135.619 91.3765 135.549 91.4195 135.468 91.4785C135.389 91.5369 135.329 91.5869 135.337 91.6042Z" fill="#353535"/>
<path d="M135.102 91.3638C135.102 91.3741 135.178 91.3632 135.257 91.3266C135.338 91.2894 135.401 91.2593 135.397 91.2484C135.392 91.2375 135.321 91.2484 135.241 91.2875C135.161 91.3266 135.097 91.3529 135.102 91.3638Z" fill="#353535"/>
<path d="M135.023 90.9937C135.023 91.0046 135.099 91.0392 135.203 91.0738C135.263 91.102 135.329 91.1162 135.396 91.1155C135.396 91.1046 135.32 91.0674 135.217 91.0347C135.157 91.0078 135.09 90.9937 135.023 90.9937Z" fill="#353535"/>
<path d="M135.062 90.7532C135.062 90.7532 135.131 90.8289 135.249 90.8744C135.321 90.9116 135.404 90.9257 135.485 90.9161C135.418 90.884 135.349 90.8571 135.277 90.8353C135.209 90.8019 135.137 90.7743 135.062 90.7532Z" fill="#353535"/>
<path d="M135.57 91.3464C135.644 91.3836 135.723 91.408 135.806 91.4176C135.893 91.4349 135.982 91.4445 136.07 91.4458C136.124 91.4522 136.178 91.4522 136.231 91.4458C136.247 91.4432 136.263 91.4381 136.277 91.4298C136.292 91.4214 136.304 91.4105 136.313 91.3984C136.324 91.3842 136.329 91.3676 136.329 91.3502C136.329 91.3336 136.324 91.3169 136.313 91.3028C136.24 91.2348 136.144 91.1925 136.041 91.1835C135.937 91.1739 135.834 91.1976 135.748 91.2502C135.696 91.2803 135.653 91.3201 135.62 91.3676C135.606 91.3842 135.597 91.4035 135.592 91.4247C135.64 91.3669 135.698 91.3169 135.764 91.2765C135.836 91.238 135.917 91.2188 136 91.2201C136.101 91.2213 136.197 91.2585 136.269 91.3246C136.295 91.3612 136.269 91.3958 136.217 91.4067C136.168 91.4112 136.118 91.4112 136.069 91.4067C135.982 91.4073 135.895 91.4016 135.809 91.3894C135.66 91.3676 135.573 91.3393 135.57 91.3464Z" fill="#353535"/>
<path d="M135.623 91.3875C135.623 91.3875 135.679 91.3484 135.706 91.2484C135.721 91.1906 135.721 91.1303 135.706 91.072C135.697 91.0341 135.679 90.9989 135.652 90.9694C135.625 90.9399 135.591 90.9168 135.552 90.9027C135.527 90.9001 135.502 90.9065 135.482 90.9213C135.462 90.9354 135.448 90.9559 135.445 90.979C135.435 91.0143 135.435 91.0521 135.445 91.0874C135.458 91.1438 135.479 91.199 135.507 91.2503C135.529 91.2997 135.564 91.3433 135.608 91.3786C135.608 91.3786 135.575 91.324 135.537 91.2375C135.515 91.1861 135.499 91.1329 135.488 91.079C135.473 91.0245 135.488 90.9373 135.542 90.9463C135.597 90.9546 135.641 91.0309 135.661 91.0829C135.679 91.1342 135.684 91.1887 135.675 91.2419C135.662 91.292 135.645 91.3407 135.623 91.3875Z" fill="#353535"/>
<path d="M131.812 89.9247C131.812 89.9247 131.919 89.9484 132.077 90.0158C132.279 90.1056 132.451 90.2454 132.572 90.4205C132.693 90.5949 132.758 90.7976 132.761 91.0048C132.761 91.1658 132.732 91.2613 132.739 91.2633C132.752 91.2427 132.761 91.2196 132.765 91.1959C132.781 91.1343 132.79 91.0708 132.791 91.0067C132.8 90.7912 132.737 90.5783 132.61 90.3961C132.484 90.2146 132.3 90.0729 132.084 89.9901C132.02 89.9638 131.953 89.9439 131.885 89.9311C131.861 89.9253 131.837 89.9228 131.812 89.9247Z" fill="#353535"/>
<path d="M132.709 88.6643C132.6 88.8817 132.504 89.1056 132.423 89.3333C132.332 89.5577 132.252 89.7861 132.188 90.0183C132.296 89.8002 132.392 89.577 132.473 89.3487C132.566 89.1248 132.644 88.8965 132.709 88.6643Z" fill="#353535"/>
<path d="M133.32 91.1049C133.479 91.1966 133.649 91.2697 133.828 91.3223C134.001 91.3864 134.182 91.4294 134.368 91.4506C134.368 91.4377 134.132 91.3768 133.844 91.2832C133.556 91.1895 133.327 91.094 133.32 91.1049Z" fill="#353535"/>
<path d="M132.609 90.8808C132.609 90.8808 132.609 90.9327 132.609 90.9898C132.609 91.0462 132.609 91.0963 132.624 91.0982C132.638 91.1001 132.662 91.0526 132.655 90.9853C132.648 90.9179 132.619 90.8743 132.609 90.8808Z" fill="#353535"/>
<path d="M132.461 90.4915C132.461 90.4915 132.461 90.5396 132.484 90.5851C132.508 90.6307 132.539 90.666 132.549 90.6615C132.559 90.657 132.549 90.6134 132.528 90.5678C132.506 90.5223 132.473 90.4877 132.461 90.4915Z" fill="#353535"/>
<path d="M132.133 90.233C132.133 90.2465 132.18 90.2593 132.225 90.294C132.27 90.3292 132.301 90.3658 132.312 90.3613C132.324 90.3575 132.312 90.3004 132.253 90.2613C132.194 90.2221 132.133 90.2221 132.133 90.233Z" fill="#353535"/>
<path d="M131.891 90.083C131.891 90.083 131.891 90.1161 131.921 90.1362C131.952 90.1556 131.975 90.1647 131.984 90.1556C131.994 90.1465 131.984 90.1226 131.952 90.1031C131.919 90.083 131.898 90.083 131.891 90.083Z" fill="#353535"/>
<path d="M138.066 56.6284L133.584 56.8067L126.727 56.6284L127.51 91.2568L133.034 91.0875C133.034 91.0875 133.034 90.7052 133.034 90.0266L135.952 90.7225C135.952 90.7225 141.451 80.3181 142.635 75.8849C143.633 72.1854 138.066 56.6284 138.066 56.6284ZM133.025 84.7365C132.933 76.7456 133.32 63.1529 133.447 61.4816C133.447 61.4816 136.83 73.4483 136.861 74.3917C136.882 74.9741 134.506 80.499 133.025 84.7365Z" fill="#353535"/>
<path d="M132.995 82.4761C133.011 82.587 133.018 82.6986 133.016 82.8109C133.016 83.0431 133.016 83.3522 133.036 83.7281C133.05 84.4996 133.057 85.5688 133.062 86.7489C133.066 87.9291 133.062 88.9963 133.062 89.7698C133.062 90.1438 133.062 90.4523 133.047 90.6851C133.051 90.7967 133.044 90.9089 133.029 91.0199C133.013 90.9089 133.005 90.7967 133.007 90.6851C133.007 90.4523 133.007 90.1438 132.985 89.7679C132.974 88.9963 132.964 87.9272 132.962 86.747C132.96 85.5669 132.962 84.4996 132.962 83.7281C132.962 83.3522 132.962 83.0431 132.976 82.8109C132.973 82.6993 132.98 82.587 132.995 82.4761Z" fill="#909090"/>
<path d="M130.329 57.0979C130.34 57.1568 130.34 57.2172 130.329 57.2761C130.312 57.4388 130.276 57.5992 130.221 57.7543C130.037 58.2739 129.659 58.7172 129.156 59.0062C128.653 59.2951 128.055 59.4114 127.467 59.3343C127.291 59.3137 127.119 59.2737 126.953 59.2148C126.891 59.1976 126.833 59.1712 126.781 59.1366C127.009 59.1931 127.241 59.2366 127.474 59.267C128.043 59.323 128.615 59.2021 129.099 58.9237C129.584 58.6451 129.954 58.2251 130.149 57.7304C130.224 57.5235 130.284 57.3122 130.329 57.0979Z" fill="#909090"/>
<path d="M133.938 57.1497C133.954 57.2087 133.961 57.2693 133.96 57.33C133.96 57.4474 133.974 57.6169 133.981 57.8255C133.981 58.2429 134.003 58.821 134.007 59.46V60.3598C134.024 60.6128 133.961 60.8651 133.825 61.0857C133.774 61.1585 133.707 61.2209 133.63 61.2688C133.551 61.3166 133.463 61.349 133.37 61.3638C133.236 61.3769 133.169 61.3421 133.172 61.3378C133.236 61.3393 133.3 61.335 133.363 61.3247C133.527 61.2828 133.667 61.1828 133.752 61.0465C133.869 60.8337 133.921 60.5954 133.901 60.3576C133.901 60.0794 133.901 59.7773 133.901 59.46C133.901 58.821 133.901 58.245 133.901 57.8255C133.901 57.6082 133.901 57.4474 133.913 57.3322C133.913 57.2706 133.921 57.2092 133.938 57.1497Z" fill="#909090"/>
<path d="M138.477 59.3059C138.428 59.3139 138.376 59.3139 138.326 59.3059C138.188 59.2965 138.05 59.2762 137.916 59.245C137.47 59.1442 137.051 58.9608 136.685 58.7061C136.316 58.4534 136.008 58.133 135.781 57.765C135.71 57.6546 135.651 57.5381 135.604 57.4172C135.571 57.3325 135.557 57.2847 135.564 57.2825C135.571 57.2803 135.661 57.4607 135.845 57.7281C136.33 58.4283 137.072 58.9439 137.937 59.1799C138.265 59.269 138.477 59.2885 138.477 59.3059Z" fill="#909090"/>
<path d="M132.936 57.4957C132.936 57.5109 132.809 57.5304 132.736 57.6847C132.715 57.7259 132.704 57.7708 132.704 57.8162C132.704 57.8617 132.715 57.9066 132.736 57.9477C132.769 57.9906 132.815 58.0239 132.868 58.0441C132.92 58.0643 132.978 58.0703 133.035 58.0617C133.091 58.0532 133.144 58.0302 133.187 57.9954C133.23 57.9607 133.262 57.9156 133.278 57.8652C133.284 57.8201 133.28 57.7745 133.265 57.7312C133.25 57.6881 133.224 57.6484 133.191 57.6152C133.071 57.4913 132.936 57.513 132.938 57.4957C132.941 57.4783 132.965 57.4739 133.024 57.4761C133.107 57.4804 133.187 57.512 133.248 57.5652C133.295 57.6044 133.332 57.6534 133.355 57.7082C133.378 57.7629 133.386 57.8219 133.38 57.8804C133.361 57.9519 133.32 58.0167 133.262 58.0667C133.203 58.1167 133.13 58.1496 133.052 58.1613C132.972 58.1729 132.891 58.1628 132.819 58.1321C132.747 58.1015 132.686 58.0516 132.644 57.989C132.618 57.9355 132.607 57.877 132.61 57.8185C132.613 57.76 132.631 57.703 132.663 57.6522C132.701 57.5843 132.765 57.5312 132.842 57.5022C132.903 57.4826 132.936 57.4826 132.936 57.4957Z" fill="#909090"/>
<path d="M126.444 57.6517C126.284 56.3477 126.508 51.3858 126.508 51.3858C126.307 49.0234 125.447 46.4523 125.296 44.7353C124.779 38.928 129.731 39.0975 129.731 39.0975L131.332 38.9302C132.984 40.0299 134.701 40.7602 134.982 42.375L138.475 57.0975L126.444 57.6517Z" fill="#909090"/>
<path d="M127.367 39.4542C127.594 39.5019 127.826 39.5266 128.058 39.5281L129.726 39.6259C130.377 39.6629 130.965 39.702 131.391 39.7389C131.62 39.7683 131.851 39.7821 132.083 39.7802C131.863 39.7074 131.635 39.6613 131.403 39.6433C130.979 39.5824 130.389 39.5281 129.735 39.4912C129.082 39.4542 128.49 39.439 128.061 39.4325C127.829 39.4188 127.597 39.4261 127.367 39.4542Z" fill="#353535"/>
<path d="M126.992 45.438L134.05 50.3912L133.291 46.8812L126.992 45.438Z" fill="#353535"/>
<path d="M138.214 55.9895C138.214 56.0221 135.56 56.1329 132.286 56.2394C129.012 56.3459 126.353 56.4068 126.352 56.3763C126.349 56.3459 129.005 56.2329 132.282 56.1264C135.559 56.0199 138.212 55.9613 138.214 55.9895Z" fill="white"/>
<path d="M138.089 55.4416C138.089 55.4742 135.461 55.5851 132.215 55.6894C128.968 55.7937 126.339 55.8567 126.336 55.8241C126.334 55.7915 128.964 55.6828 132.21 55.5763C135.456 55.4699 138.086 55.4112 138.089 55.4416Z" fill="white"/>
<path d="M130.662 30.7499C130.836 30.524 130.959 30.2687 131.026 29.9986C131.092 29.7285 131.099 29.449 131.047 29.1764C130.99 28.9044 130.863 28.6492 130.676 28.4323C130.489 28.2155 130.248 28.0434 129.974 27.931C129.696 27.8253 129.391 27.7946 129.094 27.8427C128.798 27.8908 128.523 28.0157 128.301 28.2027C127.924 28.5396 127.735 29.072 127.249 29.2633C126.798 29.4372 126.19 29.2633 125.853 29.5893C125.662 29.7741 125.64 30.061 125.48 30.2718C125.277 30.5412 124.897 30.6347 124.605 30.8238C124.4 30.9597 124.238 31.143 124.134 31.3551C124.031 31.5673 123.99 31.8008 124.015 32.0322C124.076 32.5255 124.43 32.9363 124.744 33.3362C125.057 33.7361 125.35 34.2056 125.263 34.7012" fill="#353535"/>
<path d="M127.547 39.8933L124.539 32.4886L124.733 32.243C126.039 30.5869 126.62 29.6871 128.816 29.9305C129.322 30.0178 129.795 30.2236 130.189 30.5281C130.584 30.8326 130.887 31.2256 131.069 31.6692C131.508 32.7364 132.069 34.1425 132.336 35.0228C132.807 36.5854 131.201 37.2874 131.201 37.2874L131.868 39.7868L127.547 39.8933Z" fill="#FFF8E1"/>
<path d="M130.822 32.747C130.777 32.7265 130.739 32.6942 130.714 32.6541C130.689 32.614 130.677 32.5679 130.68 32.5216C130.683 32.4754 130.701 32.4311 130.732 32.3942C130.762 32.3573 130.804 32.3296 130.851 32.3145C130.899 32.2993 130.95 32.2975 130.999 32.3093C131.047 32.321 131.091 32.3458 131.124 32.3804C131.158 32.415 131.18 32.458 131.187 32.5039C131.194 32.5498 131.185 32.5966 131.164 32.6383C131.134 32.6942 131.081 32.7371 131.017 32.7574C130.953 32.7777 130.883 32.774 130.822 32.747Z" fill="#353535"/>
<path d="M131.16 32.2384C131.14 32.2732 130.938 32.1993 130.704 32.2624C130.47 32.3254 130.339 32.4797 130.303 32.4601C130.268 32.4405 130.303 32.3949 130.355 32.3232C130.433 32.2307 130.542 32.1637 130.665 32.132C130.787 32.1003 130.918 32.1056 131.037 32.1472C131.119 32.1798 131.16 32.2232 131.16 32.2384Z" fill="#353535"/>
<path d="M128.606 33.1406C128.654 33.1533 128.697 33.1789 128.73 33.2141C128.762 33.2493 128.783 33.2925 128.789 33.3384C128.795 33.3844 128.786 33.4309 128.764 33.4722C128.741 33.5135 128.705 33.5477 128.661 33.5705C128.618 33.5933 128.568 33.6037 128.518 33.6004C128.468 33.5972 128.42 33.5803 128.381 33.552C128.341 33.5238 128.311 33.4853 128.295 33.4415C128.278 33.3977 128.277 33.3504 128.29 33.3058C128.308 33.2453 128.352 33.1939 128.411 33.1629C128.47 33.132 128.541 33.1239 128.606 33.1406Z" fill="#353535"/>
<path d="M128.753 33.062C128.737 33.0967 128.532 33.0228 128.298 33.0858C128.064 33.1489 127.932 33.3032 127.897 33.2836C127.862 33.2641 127.897 33.2206 127.949 33.1489C128.027 33.0558 128.135 32.9881 128.258 32.9554C128.381 32.9241 128.513 32.9294 128.633 32.9707C128.723 33.0054 128.762 33.0468 128.753 33.062Z" fill="#353535"/>
<path d="M130.218 34.6615C130.325 34.5866 130.444 34.5279 130.571 34.4877C130.631 34.4637 130.676 34.4377 130.669 34.4072C130.652 34.3503 130.62 34.2985 130.574 34.2573C130.468 34.1334 130.362 34.0052 130.251 33.8726C129.958 33.551 129.701 33.2029 129.484 32.8337C129.81 33.1253 130.103 33.4464 130.359 33.7922L130.673 34.1856C130.734 34.2449 130.773 34.3214 130.782 34.4029C130.78 34.4267 130.771 34.4498 130.758 34.4702C130.744 34.4906 130.726 34.5077 130.704 34.5203C130.674 34.539 130.64 34.553 130.605 34.5616C130.483 34.6158 130.352 34.6497 130.218 34.6615Z" fill="#353535"/>
<path d="M131.204 37.2698C130.421 37.4823 129.588 37.4823 128.805 37.2698C128.805 37.2698 129.658 38.2587 131.3 37.661L131.204 37.2698Z" fill="#F6BBBB"/>
<path d="M130.216 32.0409C130.271 32.0778 130.336 32.0992 130.403 32.1023C130.471 32.1054 130.538 32.0901 130.596 32.0583C130.735 32.004 130.853 31.9061 130.846 31.7931C130.839 31.6801 130.644 31.5997 130.424 31.6845C130.204 31.7693 130.127 31.9605 130.216 32.0409Z" fill="#353535"/>
<path d="M127.879 32.7903C127.982 32.8533 128.141 32.8055 128.299 32.7555C128.457 32.7055 128.605 32.636 128.636 32.5251C128.636 32.4708 128.608 32.4099 128.513 32.373C128.393 32.3328 128.261 32.3337 128.142 32.3756C128.022 32.4175 127.923 32.4975 127.862 32.6012C127.82 32.686 127.831 32.7555 127.879 32.7903Z" fill="#353535"/>
<path d="M129.24 34.9115C129.205 34.9245 129.339 35.1745 129.667 35.2919C129.995 35.4092 130.273 35.3158 130.259 35.281C130.245 35.2462 129.997 35.281 129.718 35.1658C129.44 35.0506 129.273 34.8789 129.24 34.9115Z" fill="#353535"/>
<path d="M130.671 30.7497C130.235 31.2104 129.287 31.3604 128.638 31.23C128.18 31.1365 127.708 30.8866 127.272 31.0431C126.835 31.1995 126.72 31.5255 126.708 31.9276C126.692 32.1452 126.585 32.3484 126.408 32.4938C126.232 32.6392 126.001 32.7153 125.764 32.7057C126.021 33.4621 126.288 34.0097 126.218 34.7726C126.203 34.9095 126.036 35.0486 125.951 35.1595C125.911 35.2169 125.852 35.2607 125.782 35.2839C125.713 35.3071 125.637 35.3085 125.566 35.2877C125.504 35.2523 125.451 35.2051 125.41 35.1493C125.37 35.0934 125.343 35.0302 125.33 34.9639C125.094 34.2097 124.715 33.4273 124.472 32.6731C124.399 32.3959 124.406 32.1058 124.493 31.832C124.61 31.5153 124.826 31.2373 125.113 31.0322C125.611 30.5593 126.17 30.144 126.776 29.7956C127.391 29.4469 128.122 29.3157 128.833 29.4261C129.541 29.563 130.416 29.9238 130.522 30.5758" fill="#353535"/>
<path d="M125.705 34.2683C125.672 34.2683 124.428 34.3422 124.83 35.3985C125.179 36.3113 126.221 35.844 126.214 35.8136C126.207 35.7832 125.705 34.2683 125.705 34.2683Z" fill="#FFF8E1"/>
<path d="M125.708 35.4683C125.708 35.4683 125.693 35.4835 125.667 35.5031C125.63 35.5292 125.584 35.5416 125.538 35.5378C125.422 35.527 125.302 35.3922 125.238 35.2271C125.214 35.1486 125.209 35.0662 125.224 34.9858C125.225 34.9549 125.235 34.9247 125.252 34.8979C125.269 34.8711 125.292 34.8484 125.321 34.8315C125.339 34.8222 125.361 34.8191 125.382 34.8227C125.403 34.8262 125.422 34.8362 125.436 34.851C125.458 34.875 125.455 34.8945 125.46 34.8945C125.465 34.8945 125.479 34.875 125.46 34.838C125.448 34.8164 125.427 34.7994 125.403 34.7902C125.371 34.7783 125.334 34.7783 125.302 34.7902C125.263 34.8079 125.229 34.8343 125.204 34.867C125.179 34.8995 125.163 34.9374 125.158 34.9771C125.135 35.0664 125.135 35.1596 125.158 35.2488C125.217 35.4314 125.368 35.5813 125.524 35.5857C125.552 35.5864 125.58 35.5813 125.607 35.5708C125.632 35.5603 125.656 35.5446 125.674 35.5248C125.712 35.4922 125.712 35.4705 125.708 35.4683Z" fill="#F6BBBB"/>
<path d="M159.29 42.2382L160.262 42.1491C160.827 42.0513 161.644 41.8166 162.078 41.4971C162.314 41.321 162.46 41.1624 162.413 40.995C162.39 40.9126 162.335 40.8411 162.257 40.7952C162.179 40.7492 162.086 40.7321 161.995 40.7473C161.995 40.7473 162.578 40.6147 162.391 40.2365C162.264 39.9822 161.823 40.1148 161.823 40.1148C161.823 40.1148 162.55 39.7975 162.455 39.491C162.44 39.4286 162.403 39.3725 162.35 39.3312C162.296 39.29 162.23 39.266 162.161 39.2628C162.524 39.0107 162.496 38.8282 162.368 38.6934C162.208 38.5174 161.896 38.563 161.661 38.6456L160.865 38.9282C160.372 39.1042 160.014 39.3802 160.46 38.6347C160.905 37.8893 160.932 37.159 160.802 36.9569C160.765 36.9126 160.714 36.8801 160.656 36.864C160.599 36.8478 160.537 36.8488 160.48 36.8668C160.422 36.8849 160.373 36.919 160.338 36.9645C160.303 37.0099 160.285 37.0643 160.285 37.1199C160.231 37.4032 160.136 37.6783 159.999 37.9371C159.901 38.1493 159.763 38.3443 159.591 38.513C159.391 38.7108 159.212 38.8695 159.056 39.0021L158.266 39.8432L159.29 42.2382Z" fill="#FFF8E1"/>
<path d="M135.25 54.0148L151.546 51.2572L148.553 36.2434L132.258 39.001L135.25 54.0148Z" fill="#E43434"/>
<path opacity="0.4" d="M135.25 54.0148L151.546 51.2572L148.553 36.2434L132.258 39.001L135.25 54.0148Z" fill="#353535"/>
<path d="M132.094 40.5018C132.094 40.4909 135.05 41.6972 138.682 43.1946C142.315 44.6921 145.259 45.9157 145.254 45.9287C145.25 45.9418 142.298 44.7334 138.664 43.2359C135.028 41.7384 132.087 40.5149 132.094 40.5018Z" fill="#E43434"/>
<path d="M132.891 43.9571C132.891 43.9463 135.846 45.1503 139.482 46.6478C143.117 48.1452 146.056 49.3711 146.051 49.3819C146.047 49.3927 143.095 48.1887 139.461 46.6891C135.825 45.1894 132.886 43.968 132.891 43.9571Z" fill="#E43434"/>
<path d="M133.438 47.3308C133.438 47.3308 136.002 48.3545 139.153 49.6585C142.304 50.9625 144.855 52.021 144.85 52.0319C144.845 52.0427 142.286 50.9995 139.132 49.6998C135.978 48.4001 133.43 47.3438 133.438 47.3308Z" fill="#E43434"/>
<path d="M135.219 38.1178C135.219 38.1069 137.327 38.9632 139.915 40.0304C142.503 41.0975 144.595 41.9691 144.588 41.9864C144.581 42.0038 142.482 41.141 139.894 40.076C137.306 39.011 135.214 38.1395 135.219 38.1178Z" fill="#E43434"/>
<path d="M134.195 50.9278C134.195 50.9147 135.285 51.382 136.618 51.9688C137.951 52.5556 139.024 53.0403 139.019 53.0555C139.015 53.0707 137.93 52.6012 136.596 52.0144C135.264 51.4276 134.188 50.9386 134.195 50.9278Z" fill="#E43434"/>
<path d="M146.954 52.0534L163.25 49.2958L160.257 34.282L143.961 37.0396L146.954 52.0534Z" fill="#E43434"/>
<path d="M161.728 38.6414L160.747 39.0087C160.623 39.0448 160.509 39.1032 160.41 39.1804C160.36 39.2189 160.323 39.2696 160.304 39.3266C160.285 39.3836 160.284 39.4445 160.301 39.502C160.329 39.5568 160.373 39.6032 160.428 39.6359C160.483 39.6686 160.547 39.6862 160.613 39.6867C160.743 39.6849 160.872 39.6598 160.992 39.6129L162.059 39.2716" fill="#FFF8E1"/>
<path d="M161.575 39.4062L160.528 39.7866C160.395 39.825 160.273 39.8871 160.167 39.9692C160.114 40.0104 160.075 40.0651 160.055 40.1265C160.034 40.1878 160.034 40.2533 160.053 40.3148C160.083 40.3729 160.129 40.4222 160.188 40.4568C160.246 40.4915 160.314 40.5101 160.384 40.5104C160.523 40.5083 160.66 40.4817 160.788 40.4321L161.924 40.067" fill="#FFF8E1"/>
<path d="M161.585 40.1477L160.705 40.4672C160.593 40.5002 160.49 40.5526 160.401 40.6215C160.352 40.654 160.318 40.7 160.3 40.7525C160.284 40.8051 160.286 40.8612 160.306 40.9126C160.327 40.9639 160.365 41.0076 160.415 41.037C160.466 41.0665 160.525 41.0801 160.584 41.0757C160.701 41.0735 160.816 41.0514 160.924 41.0106L161.879 40.7041" fill="#FFF8E1"/>
<path d="M161.936 40.6843L161.054 41.0038C160.943 41.0366 160.841 41.0882 160.752 41.1559C160.704 41.1884 160.669 41.2342 160.652 41.2865C160.635 41.3387 160.637 41.3947 160.658 41.4458C160.678 41.497 160.716 41.5408 160.766 41.5704C160.815 41.6 160.874 41.614 160.933 41.6102C161.051 41.6102 161.167 41.588 161.275 41.545L162.231 41.2385" fill="#FFF8E1"/>
<path d="M162.239 39.1956C162.022 39.327 161.783 39.4253 161.531 39.4868C161.293 39.5828 161.04 39.6444 160.781 39.6693C160.999 39.538 161.238 39.4397 161.489 39.3782C161.728 39.2821 161.981 39.2206 162.239 39.1956Z" fill="#F6BBBB"/>
<path d="M161.943 40.0586C161.756 40.1901 161.54 40.2848 161.312 40.3368C161.094 40.4221 160.861 40.4672 160.625 40.4693C160.828 40.36 161.046 40.2787 161.274 40.2281C161.486 40.1412 161.713 40.0841 161.943 40.0586Z" fill="#F6BBBB"/>
<path d="M162.034 40.7084C162.045 40.7388 161.833 40.8236 161.562 40.9019C161.402 40.9647 161.228 40.9937 161.055 40.9866C161.055 40.9562 161.255 40.8692 161.527 40.7932C161.686 40.7291 161.86 40.7 162.034 40.7084Z" fill="#F6BBBB"/>
<path d="M152.464 37.2176C152.111 36.8459 150.358 38.1282 150.202 38.226C150.046 38.3238 149.886 38.1195 150.032 38.0369C150.243 37.9196 152.427 36.6329 152.085 36.2656C151.893 36.0613 151.528 36.4112 151.528 36.4112C151.528 36.4112 149.58 37.7522 149.424 37.574C149.268 37.3958 150.381 36.5699 150.778 36.3156C151.174 36.0613 151.2 35.7918 150.936 35.7245C150.757 35.6788 149.521 36.4264 149.134 36.685C148.747 36.9437 147.702 37.6718 147.9 36.9263C148.098 36.1809 147.947 35.5397 147.775 35.3919C147.603 35.2441 147.319 35.4115 147.367 35.6462C147.393 35.9039 147.378 36.1637 147.325 36.4177C147.292 36.6237 147.22 36.823 147.114 37.0068C147.06 37.1002 147.008 37.1828 146.959 37.2632C145.557 37.9652 137.759 41.8686 136.942 42.2337C136.039 42.6358 129.104 40.8971 129.104 40.8971L128.023 44.8918C128.023 44.8918 134.902 46.9674 136.671 47.0652C138.112 47.1456 145.534 42.1533 148.218 40.3103C149.265 39.9352 150.288 39.5086 151.285 39.0323C152.368 38.4738 152.316 38.3803 152.228 38.2803C151.993 37.9978 150.285 39.1932 150.487 38.7411C150.691 38.289 152.736 37.5023 152.464 37.2176Z" fill="#FFF8E1"/>
<path d="M127.708 45.603L133.886 47.559L135.084 42.1495C135.084 42.1495 132.648 41.3432 130.338 40.6976C128.666 40.2304 126.123 40.6976 125.91 42.2973C125.257 44.0534 126.46 45.1639 127.708 45.603Z" fill="#909090"/>
<path d="M133.5 47.4306C133.583 47.1719 133.647 46.9083 133.691 46.6416C133.8 46.1526 133.962 45.481 134.163 44.7399C134.363 43.9987 134.53 43.3294 134.646 42.8403C134.721 42.5789 134.772 42.3121 134.797 42.0427C134.692 42.2946 134.608 42.5532 134.545 42.8164C134.406 43.2989 134.214 43.9662 134.021 44.7095C133.828 45.4527 133.681 46.1309 133.599 46.6242C133.537 46.8892 133.503 47.1594 133.5 47.4306Z" fill="#353535"/>
<path d="M126.371 44.8767C126.371 44.8767 126.281 44.755 126.135 44.5268C125.944 44.202 125.824 43.8462 125.781 43.4792C125.71 42.937 125.821 42.3876 126.1 41.9056C126.448 41.3185 127.014 40.867 127.694 40.6342C128.048 40.5197 128.419 40.4623 128.793 40.4647C129.143 40.463 129.492 40.4943 129.834 40.5582C130.417 40.6793 130.99 40.8384 131.549 41.0341C132.032 41.1928 132.424 41.3188 132.697 41.3971C132.834 41.4362 132.933 41.4623 133.016 41.4819C133.052 41.4941 133.091 41.5007 133.129 41.5014C132.996 41.4415 132.858 41.3907 132.717 41.3492L131.584 40.9472C131.025 40.738 130.448 40.5694 129.86 40.443C129.129 40.28 128.364 40.3048 127.647 40.5147C126.939 40.7594 126.352 41.2339 125.996 41.8491C125.762 42.2701 125.648 42.7392 125.666 43.2121C125.684 43.6848 125.832 44.1456 126.097 44.5507C126.155 44.6381 126.22 44.7216 126.291 44.8006C126.314 44.8289 126.341 44.8544 126.371 44.8767Z" fill="#353535"/>
<path d="M134.275 41.8885C134.308 41.8885 133.963 43.0752 133.503 44.5183C133.044 45.9614 132.645 47.1264 132.612 47.1264C132.579 47.1264 132.925 45.9397 133.386 44.4966C133.845 43.0534 134.244 41.8798 134.275 41.8885Z" fill="white"/>
<path d="M133.68 41.7425C133.711 41.7425 133.347 42.9096 132.869 44.3288C132.39 45.748 131.97 46.889 131.939 46.8804C131.908 46.8717 132.269 45.7133 132.751 44.294C133.232 42.8748 133.647 41.7338 133.68 41.7425Z" fill="white"/>
<path d="M41.1471 46.0048C33.7329 47.4327 26.156 47.3523 17.0859 46.3135L21.2471 30.4673C29.9752 31.4431 36.3443 31.6692 44.3647 30.6455L41.1471 46.0048Z" fill="#E1E1E1"/>
<path d="M35.6169 35.9246C35.6169 35.9246 35.6169 35.9746 35.591 36.0724C35.565 36.1702 35.539 36.318 35.5013 36.5071C35.4164 36.8875 35.2961 37.4373 35.1404 38.1349L33.817 44.0031V44.0401H33.7746L31.0406 44.0618H30.9745L30.9863 44.0009C31.2528 42.6078 31.5477 41.0777 31.8544 39.4781C31.8643 39.2175 31.8037 38.9587 31.6781 38.725C31.5525 38.4914 31.3659 38.2901 31.1349 38.1393C30.613 37.8749 30.0065 37.7887 29.4223 37.8959C29.0961 37.9513 28.7878 38.0747 28.5212 38.2567C28.2602 38.4409 28.042 38.6715 27.8796 38.9348C27.7986 39.065 27.7307 39.2017 27.6767 39.3434C27.6225 39.4825 27.5942 39.6324 27.554 39.778L27.3347 40.6474C27.0445 41.808 26.7615 42.9273 26.4949 43.9945V44.0335H26.4501H23.1051H23.0391L23.0556 43.9749C23.7632 41.5189 24.3435 39.4825 24.754 38.0524L25.2258 36.4028C25.2801 36.218 25.3249 36.0746 25.3555 35.9681C25.3862 35.8616 25.4051 35.8225 25.4051 35.8225C25.4051 35.8225 25.4051 35.8725 25.3697 35.9725C25.3343 36.0724 25.3037 36.2224 25.2541 36.4071L24.8012 38.0611C24.4002 39.4933 23.8293 41.5385 23.15 43.9945L23.1004 43.9336H26.4454L26.3887 43.9749C26.6553 42.9077 26.9337 41.7884 27.2214 40.6257C27.2946 40.3366 27.3677 40.0432 27.4408 39.7563C27.4742 39.6052 27.5159 39.4558 27.5659 39.3086C27.6231 39.1584 27.6941 39.013 27.7781 38.8739C27.9474 38.5967 28.1762 38.3542 28.4504 38.161C28.7298 37.9698 29.0523 37.8391 29.394 37.7785C30.0083 37.6643 30.6466 37.756 31.1939 38.0372C31.4535 38.1929 31.6604 38.4128 31.7907 38.6718C31.9175 38.9244 31.9819 39.1998 31.9794 39.4781L31.0948 44.0075L31.0406 43.9488L33.7746 43.9358L33.725 43.9727C34.2936 41.5428 34.763 39.5324 35.0909 38.1241C35.256 37.4286 35.3881 36.8809 35.4777 36.5006C35.5217 36.318 35.5572 36.1732 35.5839 36.0659C35.6169 35.9659 35.6169 35.9246 35.6169 35.9246Z" fill="#353535"/>
<path d="M25.135 35.8812C25.1537 35.8784 25.1729 35.8784 25.1916 35.8812H25.3567L25.996 35.8703L28.3549 35.8529L31.8934 35.8399C33.2261 35.8399 34.6981 35.829 36.2526 35.8399L36.2243 35.9464L35.4081 35.5639L30.8931 33.4361H30.9403L26.338 35.3139L25.0265 35.8356L24.6773 35.9703C24.6375 35.9865 24.5965 36.0003 24.5547 36.0116C24.5909 35.9889 24.6296 35.97 24.6703 35.955L25.0123 35.8051L26.3121 35.2574L30.8931 33.3448L30.9167 33.334L30.9403 33.3448L35.4482 35.4595L36.2645 35.8442L36.5003 35.955H36.2385C34.6839 35.9334 33.212 35.9398 31.8791 35.9355L28.3408 35.9225L25.9818 35.9051H25.3426H25.1774L25.135 35.8812Z" fill="#353535"/>
<path d="M35.6158 35.9246C35.6651 35.9127 35.7158 35.9062 35.7667 35.9051L36.2008 35.8725L37.7907 35.7769H37.852L37.8379 35.8312L36.8707 39.852L35.8517 44.0075V44.0401H35.8163L34.3184 44.0075L33.915 43.9923C33.8674 43.9934 33.8199 43.989 33.7734 43.9792C33.8206 43.9755 33.8679 43.9755 33.915 43.9792H34.3184H35.8021L35.7597 44.0118C36.0191 42.9252 36.3706 41.4646 36.7575 39.8541C37.142 38.3067 37.4935 36.8983 37.7577 35.8377L37.8025 35.8899L36.2103 35.9486H35.7762C35.7218 35.9473 35.6678 35.9393 35.6158 35.9246Z" fill="#353535"/>
<path d="M38.0286 35.8201C37.931 35.7925 37.8369 35.7553 37.7479 35.7093L37.0001 35.3724C36.3726 35.0834 35.5069 34.6769 34.5562 34.2227L32.9263 33.4359H32.9499C32.3412 33.4359 31.8317 33.4359 31.4755 33.4164C31.2878 33.4202 31.1 33.41 30.9141 33.386C31.1002 33.3635 31.2878 33.354 31.4755 33.3577C31.8317 33.3577 32.3412 33.3425 32.9499 33.3381H32.964H32.9758L34.6129 34.114C35.5565 34.5683 36.4222 34.9834 37.0402 35.292L37.7691 35.6615C37.8623 35.7045 37.9494 35.7578 38.0286 35.8201Z" fill="#353535"/>
<path d="M36.4434 41.7186C36.4434 41.749 35.3395 41.7685 33.9783 41.7599C33.1566 41.7743 32.3347 41.7503 31.5156 41.6882C31.5156 41.6577 32.6196 41.6381 33.9807 41.6469C34.8024 41.6325 35.6244 41.6565 36.4434 41.7186Z" fill="#353535"/>
<path d="M36.9079 39.4823C36.0775 39.5379 35.2444 39.5546 34.4121 39.5323C33.0322 39.5323 31.9141 39.5019 31.9141 39.4715C31.9141 39.4411 33.0322 39.4171 34.4121 39.4193C35.7922 39.4215 36.9079 39.4432 36.9079 39.4823Z" fill="#353535"/>
<path d="M29.1002 41.712C29.1002 41.7424 27.8972 41.7619 26.4134 41.7533C24.9296 41.7446 23.7266 41.712 23.7266 41.6815C23.7266 41.6511 24.9296 41.6315 26.4134 41.6403C27.8972 41.6489 29.1026 41.6794 29.1002 41.712Z" fill="#353535"/>
<path d="M29.6337 39.476C29.6337 39.5086 28.433 39.5304 26.9516 39.5282C25.4702 39.526 24.2812 39.4955 24.2812 39.4651C24.2812 39.4347 25.482 39.4108 26.9634 39.413C28.4448 39.4152 29.6337 39.4434 29.6337 39.476Z" fill="#353535"/>
<path d="M31.2278 38.1392C31.1966 38.1487 31.1639 38.1531 31.1311 38.1523H31.0155C30.9706 38.1523 30.9188 38.1697 30.8598 38.1783C30.7205 38.2083 30.5875 38.2589 30.4659 38.3283C30.3089 38.4252 30.1723 38.5474 30.0625 38.6891C29.9313 38.8634 29.8288 39.0545 29.7581 39.2563C29.6803 39.4736 29.6402 39.7193 29.5765 39.9757C29.4539 40.4886 29.3218 41.0516 29.1826 41.6427C28.9703 42.5121 28.7745 43.3162 28.6094 43.9965V44.0335H28.5669L27.0148 44.0139L26.5807 44.0008C26.5298 44.0022 26.479 43.9972 26.4297 43.9856C26.4793 43.9757 26.53 43.9714 26.5807 43.9726L27.0148 43.9595L28.5669 43.9378L28.5174 43.9748C28.6778 43.2945 28.8665 42.486 29.0717 41.6188C29.2133 41.0298 29.3501 40.4669 29.4751 39.954C29.5435 39.6997 29.5836 39.452 29.6709 39.2259C29.749 39.0166 29.8611 38.8195 30.0035 38.6413C30.1227 38.4947 30.2708 38.3701 30.4399 38.2739C30.5697 38.2047 30.7119 38.1576 30.8598 38.1349C30.9137 38.1272 30.9681 38.1221 31.0226 38.1196H31.1405C31.1702 38.1235 31.1995 38.13 31.2278 38.1392Z" fill="#353535"/>
<path d="M40.2917 33.3902C40.3246 33.3902 39.7373 35.7939 38.98 38.7389C38.2228 41.6838 37.5812 44.068 37.5482 44.0615C37.5152 44.0549 38.1025 41.6599 38.8598 38.7128C39.617 35.7656 40.2586 33.3836 40.2917 33.3902Z" fill="#353535"/>
<path d="M39.6241 44.0767C38.9804 44.121 38.3343 44.1269 37.6897 44.094C37.0442 44.098 36.399 44.0653 35.7578 43.9963C36.4016 43.9534 37.0476 43.9484 37.6921 43.981C38.3376 43.9759 38.9829 44.0078 39.6241 44.0767Z" fill="#353535"/>
<path d="M37.8693 44.3879C37.8386 44.4031 37.7301 44.2531 37.5909 44.0771C37.4517 43.9011 37.3291 43.7598 37.3551 43.7359C37.381 43.712 37.5437 43.8229 37.6924 44.0097C37.841 44.1966 37.8999 44.3749 37.8693 44.3879Z" fill="#353535"/>
<path d="M40.6592 39.4432C40.0402 39.5025 39.4177 39.5242 38.7956 39.5084C38.1732 39.5307 37.5499 39.5154 36.9297 39.4628C37.5493 39.4022 38.1727 39.3797 38.7956 39.3954C39.4172 39.3744 40.0397 39.3904 40.6592 39.4432Z" fill="#353535"/>
<path d="M39.011 39.2607C39.0323 39.2847 38.9167 39.402 38.7515 39.5215C38.5864 39.6411 38.4378 39.7171 38.4166 39.691C38.3953 39.665 38.5109 39.552 38.676 39.4324C38.8412 39.3129 38.9898 39.2368 39.011 39.2607Z" fill="#353535"/>
<path d="M41.1999 36.018C40.6144 36.0498 40.0272 36.0447 39.4425 36.0028C38.855 35.9974 38.2686 35.9545 37.6875 35.8745C38.2737 35.8428 38.8617 35.8479 39.4473 35.8897C40.0341 35.8938 40.6198 35.9366 41.1999 36.018Z" fill="#353535"/>
<path d="M40.1309 35.7592C40.1473 35.7874 40.0011 35.8831 39.8053 35.9765C39.6095 36.07 39.4397 36.1156 39.4231 36.0874C39.4066 36.0591 39.5552 35.9635 39.7487 35.8701C39.9421 35.7766 40.1166 35.7309 40.1309 35.7592Z" fill="#353535"/>
<path d="M41.0929 33.6274C41.0929 33.6578 39.2718 33.6274 37.0285 33.5666C34.7851 33.5057 32.9688 33.4231 32.9688 33.3905C32.9688 33.3579 34.7898 33.3905 37.0332 33.4536C39.2765 33.5165 41.0929 33.597 41.0929 33.6274Z" fill="#353535"/>
<path d="M40.8077 33.3142C40.8266 33.3403 40.6166 33.5011 40.3359 33.675C40.1772 33.795 39.9945 33.8851 39.798 33.9401C39.7792 33.9141 39.9892 33.7532 40.2698 33.5794C40.4288 33.4598 40.6115 33.3698 40.8077 33.3142Z" fill="#353535"/>
<path d="M22.9302 38.3803C22.1541 37.1719 21.9301 35.5548 21.7342 34.1683C21.6423 33.5162 21.4795 32.5795 21.9701 32.1688C22.508 31.734 22.5575 31.0538 23.1755 30.7147C23.4809 30.5392 23.8343 30.4478 24.1941 30.4513C24.554 30.4547 24.9053 30.5529 25.2066 30.7343" fill="#353535"/>
<path d="M27.5934 35.0203C27.4667 34.8498 27.2742 34.7301 27.055 34.6857C26.8359 34.6413 26.6067 34.6755 26.414 34.7813C26.2192 34.9051 26.0784 35.0886 26.0166 35.2992C25.9548 35.5097 25.9761 35.7335 26.0767 35.931C26.1652 36.0774 26.2858 36.2054 26.4307 36.3068C26.5757 36.4082 26.7418 36.4807 26.9188 36.52C27.0766 36.5513 27.2163 36.6351 27.3111 36.7554C27.406 36.8757 27.4494 37.0241 27.433 37.172C27.3835 37.5697 26.664 37.7153 26.3408 38.0413C25.8337 38.5521 24.7273 38.7651 23.9819 38.8455C23.2365 38.9259 23.3379 38.9302 22.9133 38.3738C22.6277 37.9975 22.4821 37.5461 22.4981 37.0872C22.4777 35.9194 22.4557 34.7523 22.4321 33.5859C22.4039 33.1646 22.434 32.7418 22.5217 32.3275C22.6121 31.91 22.8708 31.5395 23.2459 31.2908C23.6634 31.0387 24.1895 31.0191 24.6613 30.8778C25.2557 30.7018 25.7629 30.3388 26.3125 30.078C26.8622 29.8173 27.5533 29.6629 28.1124 29.9237C28.5134 30.1084 28.7823 30.4801 29.1716 30.6844C29.7259 30.9778 30.4831 30.9126 30.7497 31.6668C30.8402 31.9297 30.836 32.2126 30.7379 32.4731C30.3581 33.4946 28.9805 33.9053 27.9898 33.4598C27.9685 33.6337 28.1525 34.0184 27.9544 34.5661C27.8883 34.7422 27.8671 35.0008 27.5698 35.0138" fill="#353535"/>
<path d="M22.3431 33.9683C22.1991 33.703 21.9919 33.4713 21.737 33.2903C21.4821 33.1092 21.1861 32.9836 20.8711 32.9229C20.5553 32.8686 20.2295 32.8932 19.9276 32.9941C19.6256 33.095 19.3584 33.2685 19.1538 33.4967C18.9576 33.7309 18.8446 34.015 18.8298 34.3106C18.815 34.606 18.8993 34.8986 19.0712 35.1485C19.4864 35.707 20.2814 35.883 21.0079 35.9721C20.7411 36.2521 20.4153 36.4794 20.0504 36.64C19.6855 36.8007 19.289 36.8913 18.8849 36.9067C19.1733 37.0831 19.508 37.1847 19.8538 37.2007C20.1996 37.2168 20.5436 37.1468 20.8499 36.998L19.6704 37.9238C20.2657 38.061 20.8943 38.0027 21.448 37.7588C22.0016 37.515 22.4457 37.1008 22.7035 36.5878C22.9614 36.0747 23.017 35.4949 22.8608 34.9481C22.7046 34.4013 22.3463 33.9219 21.8477 33.5923" fill="#353535"/>
<path d="M21.2501 35.9051C21.4463 35.9182 21.6432 35.8869 21.8232 35.8138C22.0314 35.7122 22.2099 35.566 22.3438 35.3874C22.4777 35.2089 22.5629 35.0032 22.5923 34.7879C22.6264 34.5724 22.6076 34.3526 22.5374 34.1446C22.4672 33.9366 22.3473 33.7457 22.1865 33.586C22.0458 33.4567 21.8918 33.3402 21.7266 33.2383C21.7266 33.2383 21.7879 33.2383 21.8823 33.2883C22.0171 33.3505 22.1405 33.4319 22.2479 33.5295C22.4321 33.6911 22.5712 33.8913 22.6533 34.1131C22.7355 34.3348 22.7582 34.5715 22.7196 34.8031C22.6898 35.0364 22.5957 35.2587 22.4462 35.4489C22.2967 35.6391 22.0969 35.7909 21.8657 35.8899C21.7238 35.9459 21.5689 35.9683 21.4152 35.955C21.302 35.9377 21.2477 35.9115 21.2501 35.9051Z" fill="#E43434"/>
<path d="M18.7669 34.3071C18.7527 34.3071 18.8565 34.0898 19.2174 33.9311C19.6849 33.7686 20.1952 33.7413 20.6799 33.8529C21.1664 33.9438 21.6234 34.1372 22.0151 34.418C22.1329 34.5019 22.2426 34.595 22.343 34.6962C22.4114 34.7701 22.4445 34.8136 22.4397 34.8179C22.435 34.8223 22.2675 34.6744 21.968 34.4832C21.5745 34.231 21.1301 34.0544 20.6611 33.9637C20.1942 33.8571 19.7044 33.8714 19.2457 34.005C19.0652 34.0742 18.9021 34.1771 18.7669 34.3071Z" fill="#909090"/>
<path d="M19.2812 35.3702C19.2812 35.3528 19.444 35.3876 19.7011 35.3919C20.037 35.4 20.3704 35.3367 20.6755 35.207C20.9807 35.0774 21.2494 34.8849 21.4609 34.6443C21.6236 34.4596 21.6968 34.327 21.7156 34.3335C21.6875 34.4657 21.6234 34.589 21.5293 34.6921C21.3269 34.9585 21.0515 35.1707 20.7313 35.3074C20.4111 35.4441 20.0572 35.5002 19.7059 35.4702C19.5573 35.4713 19.411 35.4368 19.2812 35.3702Z" fill="#909090"/>
<path d="M21.8984 37.5021C21.8984 37.4869 22.0589 37.3891 22.2782 37.1761C22.5681 36.9029 22.7756 36.5647 22.8802 36.195C22.9849 35.8253 22.9831 35.4368 22.8751 35.068C22.7948 34.7833 22.6958 34.6224 22.7147 34.6116C22.8287 34.7377 22.9095 34.8865 22.9505 35.0462C23.0864 35.4272 23.1005 35.8362 22.9908 36.2243C22.8812 36.6124 22.6527 36.9632 22.3325 37.2348C22.2113 37.3527 22.063 37.444 21.8984 37.5021Z" fill="#909090"/>
<path d="M25.51 31.2278C25.3049 31.0883 25.0619 31.0039 24.8079 30.984C24.5539 30.964 24.2989 31.0092 24.0711 31.1147C23.7826 31.2508 23.5385 31.4547 23.3634 31.7059C23.0587 32.1784 22.8695 32.7065 22.809 33.2534C22.7854 33.4834 22.7396 33.7111 22.6722 33.9336C22.6692 33.7024 22.6857 33.4713 22.7217 33.2425C22.761 32.6772 22.9462 32.1288 23.2619 31.6429C23.4477 31.3742 23.7106 31.1582 24.0215 31.0191C24.2782 30.911 24.5627 30.8719 24.8425 30.906C25.0304 30.9288 25.2095 30.9937 25.3638 31.0952C25.4652 31.1669 25.5148 31.2256 25.51 31.2278Z" fill="#909090"/>
<path d="M30.3527 32.8602C30.4252 32.8288 30.4947 32.7917 30.5602 32.7493C30.6432 32.6894 30.706 32.6089 30.7411 32.5173C30.7762 32.4256 30.7822 32.3267 30.7584 32.2321C30.7237 32.1059 30.6397 31.996 30.5225 31.9234C30.3718 31.8556 30.2029 31.8299 30.0366 31.8495C29.9302 31.856 29.8234 31.8516 29.7181 31.8365C29.6107 31.8168 29.5098 31.7744 29.4232 31.7126C29.2632 31.5807 29.117 31.4352 28.9869 31.278C28.7153 31.0113 28.3666 30.8221 27.9819 30.7324C27.6677 30.6533 27.3388 30.637 27.0171 30.6846C26.7241 30.7392 26.4417 30.8344 26.1797 30.9671C26.2366 30.9106 26.3036 30.8636 26.3778 30.828C26.5741 30.7224 26.7889 30.6489 27.0124 30.6107C27.3458 30.5487 27.6901 30.5569 28.0197 30.6346C28.4284 30.7243 28.7993 30.9231 29.0859 31.2062C29.2132 31.3563 29.3537 31.4967 29.5058 31.6256C29.6569 31.7231 29.8415 31.7664 30.0247 31.7474C30.2124 31.73 30.4014 31.7648 30.5673 31.8474C30.6375 31.8892 30.6979 31.9433 30.7453 32.0068C30.7926 32.0701 30.8259 32.1416 30.8433 32.2169C30.8743 32.3406 30.855 32.4705 30.789 32.5819C30.7436 32.6685 30.6755 32.7432 30.5909 32.7993C30.5392 32.8329 30.4806 32.8566 30.4187 32.8688C30.3739 32.8645 30.3527 32.8645 30.3527 32.8602Z" fill="#909090"/>
<path d="M25.7332 37.2544C25.644 37.2411 25.5589 37.2107 25.4832 37.1653C25.2089 37.0229 24.9966 36.7975 24.8822 36.5274C24.7679 36.2572 24.7585 35.9589 24.8557 35.6831C24.9204 35.487 25.0353 35.3081 25.1906 35.1615C25.3586 35.0113 25.5483 34.8833 25.7544 34.7811C25.9597 34.6725 26.1602 34.5638 26.3418 34.4638C26.5141 34.3595 26.667 34.2304 26.7947 34.0813C27.0107 33.8243 27.1513 33.5204 27.2028 33.1989C27.2422 32.8991 27.219 32.5952 27.1344 32.3035C27.1344 32.3035 27.151 32.3208 27.1698 32.36C27.1979 32.4158 27.22 32.4741 27.2359 32.5338C27.3024 32.7536 27.3209 32.9834 27.2901 33.2097C27.2478 33.5491 27.1078 33.8718 26.8844 34.1443C26.753 34.3044 26.5935 34.4432 26.4126 34.5551C26.2262 34.6725 26.021 34.7724 25.8205 34.8789C25.6238 34.9766 25.4422 35.0979 25.2803 35.2397C25.1373 35.374 25.03 35.5369 24.9665 35.7157C24.9121 35.8677 24.8909 36.0283 24.9043 36.188C24.9177 36.3476 24.9653 36.5033 25.0444 36.6459C25.155 36.8408 25.3173 37.0068 25.5162 37.1284C25.6483 37.2153 25.738 37.2436 25.7332 37.2544Z" fill="#909090"/>
<path d="M22.7656 34.9225C22.7656 34.8987 23.0888 34.9574 23.5983 34.9073C24.263 34.8462 24.9009 34.6342 25.4548 34.2901C26.0205 33.9641 26.4578 33.4796 26.7027 32.9078C26.7858 32.6663 26.7948 32.4083 26.7286 32.1624C26.7722 32.221 26.8012 32.2878 26.8136 32.358C26.8545 32.5485 26.8448 32.7454 26.7853 32.9318C26.6508 33.4077 26.1885 33.9706 25.5232 34.3836C24.9549 34.7404 24.292 34.9485 23.6054 34.9856C23.3993 34.9981 23.1923 34.9923 22.9873 34.9682C22.9114 34.9633 22.8367 34.9479 22.7656 34.9225Z" fill="#909090"/>
<path d="M36.7748 91.6044L36.7583 91.2222L32.5547 91.3325L32.59 92.5954H32.8519C34.0078 92.6217 38.7351 92.6608 39.5017 92.4414C40.3533 92.1932 36.7748 91.6044 36.7748 91.6044Z" fill="#E43434"/>
<path d="M32.5156 92.5043H32.5888H32.7964L33.5559 92.5152C34.1999 92.5152 35.0892 92.5152 36.0706 92.4915C37.0519 92.4671 37.9388 92.4305 38.5805 92.3959L39.34 92.3497L39.5476 92.335H39.34L38.5781 92.3651C37.9365 92.3914 37.0495 92.4241 36.0682 92.4479C35.0869 92.4716 34.1999 92.4806 33.5559 92.4844H32.7964H32.5888L32.5156 92.5043Z" fill="#353535"/>
<path d="M38.1696 92.4741C38.2012 92.365 38.2455 92.2592 38.3017 92.1585C38.3744 92.0655 38.4583 91.9802 38.5518 91.9045C38.4266 91.9475 38.322 92.0296 38.2569 92.1374C38.1816 92.2348 38.1503 92.3554 38.1696 92.4741Z" fill="#353535"/>
<path d="M36.9239 91.9609C36.9358 91.9609 36.9925 91.9044 37.0517 91.8191C37.1108 91.7345 37.1487 91.6626 37.1369 91.6562C37.125 91.6498 37.0659 91.7127 37.0091 91.798C36.9523 91.8826 36.9121 91.9545 36.9239 91.9609Z" fill="#353535"/>
<path d="M36.5732 91.8219C36.5732 91.8219 36.6489 91.7918 36.7199 91.7327C36.7909 91.6744 36.8382 91.6244 36.8288 91.6154C36.8193 91.607 36.7554 91.6462 36.6844 91.7026C36.6134 91.759 36.5566 91.8065 36.5732 91.8219Z" fill="#353535"/>
<path d="M36.3516 91.483C36.4227 91.5023 36.4973 91.5081 36.571 91.5004C36.6443 91.5055 36.718 91.4971 36.788 91.476C36.6444 91.4458 36.4952 91.4458 36.3516 91.476V91.483Z" fill="#353535"/>
<path d="M36.2734 91.2458C36.3456 91.283 36.4269 91.3016 36.5094 91.301C36.5954 91.3119 36.6829 91.2997 36.7618 91.2657C36.6786 91.2593 36.5949 91.2593 36.5117 91.2657C36.4331 91.2529 36.3533 91.2458 36.2734 91.2458Z" fill="#353535"/>
<path d="M37.0547 91.6441C37.1438 91.6563 37.2345 91.6563 37.3236 91.6441C37.4196 91.6306 37.5143 91.6101 37.6066 91.5831C37.6631 91.5671 37.7177 91.5459 37.7694 91.5196C37.7848 91.5119 37.7984 91.5017 37.8093 91.4889C37.8203 91.476 37.8284 91.4619 37.8331 91.4459C37.837 91.4286 37.8351 91.4106 37.8274 91.3939C37.8198 91.3779 37.807 91.3644 37.7906 91.3548C37.6869 91.3144 37.5717 91.3054 37.4623 91.3311C37.3529 91.3561 37.2554 91.4132 37.1844 91.494C37.144 91.5395 37.1157 91.5928 37.1019 91.6505C37.0963 91.671 37.0963 91.6928 37.1019 91.7133C37.1264 91.6409 37.1656 91.5729 37.2175 91.5132C37.2796 91.4478 37.3618 91.401 37.4533 91.3785C37.5582 91.3465 37.6722 91.3503 37.7742 91.3894C37.8166 91.4157 37.8025 91.4593 37.7553 91.485C37.708 91.5094 37.6581 91.5286 37.6066 91.544C37.5164 91.5729 37.4242 91.596 37.3307 91.6133C37.1561 91.6351 37.0547 91.637 37.0547 91.6441Z" fill="#353535"/>
<path d="M37.1202 91.6543C37.1491 91.6055 37.1576 91.5478 37.1437 91.4939C37.1344 91.4324 37.1076 91.3746 37.0659 91.3265C37.0401 91.2906 37.005 91.2617 36.9636 91.2425C36.9223 91.2233 36.8763 91.2136 36.83 91.2156C36.8172 91.2175 36.805 91.222 36.794 91.2284C36.7832 91.2348 36.7738 91.2438 36.7665 91.2534C36.7593 91.2637 36.7542 91.2746 36.7517 91.2861C36.7493 91.2983 36.7494 91.3105 36.7522 91.322C36.7587 91.3592 36.7758 91.3945 36.8017 91.424C36.8382 91.4747 36.8818 91.5209 36.9315 91.5613C36.9753 91.6023 37.0296 91.6331 37.0895 91.6504C37.0895 91.6504 37.0352 91.6113 36.9574 91.5395C36.913 91.4984 36.8734 91.4529 36.8395 91.4048C36.8017 91.3567 36.7734 91.2701 36.8395 91.2566C36.8748 91.2598 36.909 91.2695 36.9399 91.2861C36.9708 91.3022 36.9977 91.324 37.0187 91.3503C37.0575 91.3932 37.0849 91.4439 37.0989 91.4978C37.1105 91.5497 37.1176 91.6017 37.1202 91.6543Z" fill="#353535"/>
<path d="M32.5781 91.5216C32.5781 91.5216 32.6961 91.5087 32.8871 91.5216C33.1312 91.5376 33.3663 91.6126 33.5689 91.739C33.7628 91.8647 33.9148 92.0379 34.0076 92.2393C34.076 92.3913 34.0855 92.4958 34.0949 92.4933C34.1044 92.4913 34.0949 92.467 34.0949 92.4214C34.086 92.3554 34.0686 92.2906 34.0431 92.2284C33.9577 92.0161 33.8037 91.8333 33.6019 91.7044C33.3928 91.5722 33.1476 91.4972 32.8942 91.4869C32.8154 91.4824 32.7363 91.4863 32.6584 91.4978C32.6302 91.501 32.603 91.5094 32.5781 91.5216Z" fill="#353535"/>
<path d="M34.625 92.1586C35.0307 92.2151 35.4436 92.2087 35.8469 92.1394C35.8469 92.1259 35.5733 92.1394 35.236 92.1522C34.8987 92.1657 34.625 92.1458 34.625 92.1586Z" fill="#353535"/>
<path d="M33.7969 92.1758C33.7969 92.1758 33.8207 92.2259 33.8516 92.2785C33.8825 92.3304 33.8968 92.3779 33.9135 92.3779C33.9301 92.3779 33.9325 92.3214 33.8968 92.2605C33.8611 92.2002 33.8064 92.1675 33.7969 92.1758Z" fill="#353535"/>
<path d="M33.4922 91.8546C33.4922 91.8546 33.5111 91.9001 33.5559 91.9366C33.6008 91.9732 33.6457 91.995 33.6552 91.986C33.6646 91.9777 33.6362 91.9405 33.5914 91.9039C33.5465 91.8674 33.4922 91.8456 33.4922 91.8546Z" fill="#353535"/>
<path d="M33.0315 91.7152C33.0315 91.7261 33.0907 91.7261 33.1522 91.7415C33.2137 91.7569 33.2586 91.7877 33.2705 91.7787C33.2823 91.7703 33.2444 91.7223 33.1664 91.6998C33.0883 91.678 33.0268 91.7043 33.0315 91.7152Z" fill="#353535"/>
<path d="M32.7188 91.6526C32.7188 91.6526 32.74 91.6811 32.773 91.6921C32.8062 91.7031 32.8416 91.7031 32.8463 91.6921C32.851 91.6811 32.8274 91.6636 32.792 91.6526C32.7565 91.6416 32.7234 91.639 32.7188 91.6526Z" fill="#353535"/>
<path d="M17.2399 90.0483L16.6172 92.5696H20.8232L21.0024 90.9283L17.2399 90.0483Z" fill="#E43434"/>
<path d="M20.912 92.2048C20.71 92.2337 20.5054 92.2446 20.3011 92.2369C19.9213 92.2369 19.3976 92.2369 18.8221 92.2112L17.3453 92.1522C17.1407 92.1548 16.9362 92.1407 16.7344 92.1092C16.9371 92.0791 17.1427 92.0688 17.3477 92.0784C17.7275 92.0784 18.2488 92.0784 18.8267 92.1047L20.3011 92.1612C20.5058 92.1586 20.7103 92.1734 20.912 92.2048Z" fill="#353535"/>
<path d="M19.131 90.5396C19.1703 90.8109 19.1703 91.0854 19.131 91.3567C19.1293 91.6299 19.0901 91.9012 19.0144 92.1654C18.9744 91.8941 18.9744 91.619 19.0144 91.3483C19.0141 91.0751 19.0533 90.8032 19.131 90.5396Z" fill="#353535"/>
<path d="M20.5496 54.1721C20.5496 54.1721 17.9854 58.1212 17.9854 60.475L16.2422 85.873L23.1916 86.6055L24.8806 61.729C24.8806 61.729 30.5632 86.9749 30.8039 86.9749C31.0445 86.9749 37.1329 86.6055 37.1329 86.6055L30.5632 54.2982L20.5496 54.1721Z" fill="#353535"/>
<path d="M35.8483 86.6336C35.8153 86.6336 34.407 79.4072 32.7015 70.4792C30.996 61.5507 29.6349 54.3091 29.6726 54.3047C29.7104 54.3003 31.1163 61.5312 32.8218 70.4593C34.5273 79.3879 35.879 86.6298 35.8483 86.6336Z" fill="#E1E1E1"/>
<path d="M33.7969 86.9813C33.7639 86.9813 32.3816 79.6747 30.6902 70.6531C28.9989 61.6312 27.6684 54.3091 27.7038 54.3047C27.7392 54.3003 29.1192 61.6094 30.8106 70.6332C32.5019 79.6574 33.83 86.9749 33.7969 86.9813Z" fill="#E1E1E1"/>
<path d="M31.9605 86.921C31.9274 86.921 30.3611 79.5881 28.4622 70.5337C26.5633 61.4792 25.0512 54.1288 25.0865 54.1223C25.122 54.1158 26.6835 61.4532 28.5825 70.5119C30.4815 79.5708 31.9935 86.9146 31.9605 86.921Z" fill="#E1E1E1"/>
<path d="M22.2757 86.5144C22.2404 86.5144 22.6202 79.2796 23.1202 70.3638C23.6203 61.4488 24.0638 54.2158 24.0874 54.2158C24.111 54.2158 23.743 61.4488 23.2429 70.3683C22.7428 79.288 22.3088 86.5144 22.2757 86.5144Z" fill="#E1E1E1"/>
<path d="M22.5003 54.1721C22.5003 54.1721 22.5003 54.1982 22.4626 54.2482L22.3494 54.4656C22.255 54.6612 22.1134 54.9524 21.9648 55.3349C21.5306 56.4156 21.2499 57.5435 21.1297 58.6906C20.8939 61.6029 20.6863 65.6452 20.4221 70.088C20.1579 74.5302 19.9338 78.5638 19.7663 81.4917C19.679 82.9457 19.6082 84.1233 19.5587 84.9449L19.4974 85.8865L19.4785 86.1295C19.482 86.1571 19.482 86.1847 19.4785 86.2123C19.4759 86.1847 19.4759 86.1571 19.4785 86.1295V85.8839L19.5186 84.943L19.6861 81.4872C19.8347 78.5683 20.0493 74.5321 20.3065 70.0816C20.5636 65.6304 20.7924 61.6051 21.0472 58.6819C21.1779 57.5312 21.4755 56.4019 21.9318 55.324C22.0922 54.9415 22.2361 54.6524 22.3399 54.4546C22.3918 54.359 22.4343 54.2873 22.4626 54.2373C22.4734 54.2148 22.486 54.193 22.5003 54.1721Z" fill="#E1E1E1"/>
<path d="M20.8352 54.1223C20.8291 54.1496 20.8188 54.176 20.8045 54.2006C20.7809 54.2571 20.7479 54.3331 20.7054 54.4179C20.6158 54.6157 20.4695 54.9047 20.328 55.2873C19.8935 56.3623 19.5666 57.4717 19.3514 58.6016C19.2145 59.3167 19.1013 60.1056 19.0188 60.9554C18.9362 61.8052 18.8891 62.7181 18.8419 63.6787C18.764 65.6022 18.573 67.7104 18.4031 69.9231C18.0469 74.3499 17.7237 78.3554 17.4878 81.2614C17.3652 82.7065 17.2661 83.8693 17.1977 84.6954L17.1104 85.6299L17.0868 85.871C17.085 85.8993 17.0803 85.9268 17.0727 85.9538C17.0695 85.9262 17.0695 85.8986 17.0727 85.871L17.0868 85.628C17.101 85.4105 17.1222 85.093 17.1481 84.6935C17.2095 83.8738 17.2944 82.7026 17.4005 81.255C17.6365 78.3489 17.9384 74.3416 18.2804 69.9161C18.4503 67.7014 18.6461 65.5958 18.7286 63.6743C18.7782 62.7137 18.8324 61.8009 18.9174 60.9467C19.0023 60.0926 19.1226 59.3036 19.2641 58.5864C19.4876 57.4576 19.8265 56.3508 20.2761 55.2807C20.4294 54.8982 20.578 54.6135 20.6747 54.4114L20.7856 54.194C20.7996 54.1687 20.8162 54.1446 20.8352 54.1223Z" fill="#E1E1E1"/>
<path d="M27.7058 62.3725C27.7058 62.4029 26.3471 62.1248 24.6888 61.751C23.0305 61.3771 21.6953 61.0511 21.6953 61.0207C21.6953 60.9902 23.0517 61.2685 24.71 61.6423C26.3683 62.0161 27.7129 62.3421 27.7058 62.3725Z" fill="#909090"/>
<path d="M20.5496 54.1722L21.7479 50.9621L20.9152 47.0761L20.2642 48.7887L16.2422 47.4282C16.2422 47.4282 18.837 42.6294 18.9785 42.3773C20.158 40.0735 23.3402 40.0735 23.3402 40.0735L27.3787 40.1713C28.0201 40.1327 28.6629 40.2235 29.2622 40.4375C29.8616 40.6514 30.403 40.9834 30.8487 41.4101C32.0046 42.4838 34.4815 47.4239 34.4815 47.4239L30.8487 49.1843L29.5513 46.9501L29.7872 50.0059L30.6246 54.6613L20.5496 54.1722Z" fill="#E43434"/>
<path d="M28.9822 41.1821C28.9822 41.193 28.869 41.1973 28.685 41.2668C28.4287 41.3742 28.214 41.5508 28.0693 41.7733C27.8525 42.1021 27.7643 42.4894 27.8192 42.8708C27.8943 43.3396 28.0538 43.7936 28.291 44.214C28.7628 45.1376 29.1733 45.9809 29.4705 46.5916L29.8149 47.3175C29.8608 47.4048 29.8979 47.4958 29.9258 47.5892C29.864 47.5099 29.8118 47.4247 29.7701 47.3349L29.3927 46.6243C29.0742 46.0222 28.6496 45.1877 28.1802 44.2618C27.9388 43.8299 27.7793 43.3631 27.7084 42.8817C27.6567 42.479 27.7593 42.0723 27.9985 41.732C28.1573 41.5006 28.3932 41.3229 28.6708 41.2255C28.7468 41.2003 28.8262 41.1849 28.9068 41.1799C28.9539 41.1821 28.9822 41.1821 28.9822 41.1821Z" fill="#353535"/>
<path d="M21.7868 51.1447C21.7514 51.1447 21.2678 49.1344 20.704 46.6414C20.1402 44.1486 19.7109 42.1208 19.744 42.1143C19.777 42.1078 20.2606 44.1247 20.8244 46.6175C21.3881 49.1104 21.8198 51.1382 21.7868 51.1447Z" fill="#353535"/>
<path d="M27.8476 48.1194C27.862 48.208 27.862 48.2981 27.8476 48.3867C27.8194 48.631 27.7535 48.8703 27.6518 49.0974C27.3064 49.8516 26.6809 50.468 25.8873 50.8361C25.0955 51.188 24.2198 51.3488 23.3421 51.3034C23.0779 51.2947 22.8147 51.27 22.5542 51.2295C22.4584 51.2191 22.3642 51.1987 22.2734 51.1686C22.2734 51.1469 22.6815 51.2165 23.3444 51.223C24.2045 51.2439 25.0577 51.0755 25.8331 50.7318C26.6018 50.3742 27.2157 49.7863 27.574 49.0648C27.7078 48.7615 27.7997 48.4439 27.8476 48.1194Z" fill="#353535"/>
</svg>
